<svg xmlns="http://www.w3.org/2000/svg" viewBox="0 0 500 500"><defs><style>.cls-1{fill:#fff;}.cls-2{fill:#242c5b;}.cls-3{fill:#16b6aa;}.cls-4{fill:#39beb9;}.cls-5{fill:#89e0da;}.cls-6{fill:#f4ac22;}.cls-7{fill:#d0eae7;}.cls-8{fill:#c93c11;}.cls-17,.cls-9{fill:#5b61ab;}.cls-10{fill:#39438e;}.cls-11{fill:#fff7e6;}.cls-12{fill:#ffc871;}.cls-13,.cls-20{fill:#f47621;}.cls-14{fill:#f15a25;}.cls-15{fill:#69c9c0;}.cls-16{fill:#e25454;}.cls-17{font-size:38.25px;font-family:MyriadPro-Regular, Myriad Pro;}.cls-18{letter-spacing:-0.01em;}.cls-19{letter-spacing:0em;}.cls-20{font-size:61.64px;font-family:Bahiana-Regular, Bahiana Regular;}</style></defs><g id="BACKGROUND"><rect class="cls-1" width="500" height="500"/></g><g id="OBJECTS"><path class="cls-2" d="M382,363.91a90.41,90.41,0,0,1-61.58,1.89C340.77,365.25,361.65,364.48,382,363.91Z"/><path class="cls-3" d="M439.57,323.16a78.73,78.73,0,0,1-16.33,13.53c-19.73,12.93-42.14,21.55-61.5,34.92h-3.28l.93-1.47.43-.68a147.65,147.65,0,0,1,12.39-18.76,150.6,150.6,0,0,1,35-32.78c6.87-4.62,14.28-8.73,22.4-10.37a17.29,17.29,0,0,1,7.9-.1,8.23,8.23,0,0,1,5.81,5C444.59,316.2,442.2,320.18,439.57,323.16Z"/><path class="cls-3" d="M359.39,370.14l-.93,1.47C358.72,371.12,359.07,370.63,359.39,370.14Z"/><path class="cls-4" d="M437.19,254.47c-3.61,17.36-15.49,31.64-26.66,45.41-13.37,16.48-26.3,33.35-38.32,50.82a147.65,147.65,0,0,0-12.39,18.76l-.43.68-.93,1.47h-5.84c0-.76,0-1.53.05-2.28q1-7.17,1.9-14.36s0,0,0,0c1.1-5.13,2.57-10.23,4.12-15.24,8.78-28.41,20.88-56.29,40-79,7.39-8.78,16.32-17,27.47-19.76,2.38-.58,5-.87,7.21.2C437.88,243.3,438.21,249.57,437.19,254.47Z"/><path class="cls-3" d="M354.57,355s0,0,0,0q-.9,7.2-1.9,14.36c0,.75-.05,1.52-.05,2.28h-4.2q-4-12.21-8-24.41c-4.09-14.52-7.53-29.23-10.17-44.08-5.38-30.32-7.2-62.56,4.66-91,1.58-3.78,4.44-8.09,8.51-7.62,2.11.25,3.85,1.8,5.17,3.48,4.21,5.3,5.74,12.19,6.9,18.86C362.8,269.09,360,312.32,354.57,355Z"/><path class="cls-4" d="M348.42,371.61h-7.73q-11.37-15.93-23.9-31c-11.51-13.83-23.82-27.18-32.73-42.82A54.69,54.69,0,0,1,277.83,283a26.62,26.62,0,0,1,.91-15.9,8.52,8.52,0,0,1,3.44-4.43c2.91-1.62,6.55-.21,9.44,1.44,12.5,7.15,22,18.71,28.94,31.33s11.47,26.4,16,40.07q1.94,5.86,3.86,11.73Q344.41,359.41,348.42,371.61Z"/><path class="cls-5" d="M433.12,241.33c-3-.44-4.84,2.49-5.77,4.89a14,14,0,0,1-1.94,4,6.15,6.15,0,0,1-4.15,1.84,9.5,9.5,0,0,0-4.17,1.28,6.56,6.56,0,0,0-2.13,2.83c-1,2.31-1.29,5.24-3.34,6.92s-5.1,2-6.85,4.17c-1.89,2.35-1.18,5.52-2.23,8.18s-3.91,3.39-6.1,4.75a6.79,6.79,0,0,0-2.62,2.72,13,13,0,0,0-.89,4.29,6.91,6.91,0,0,1-1.42,4.15,10.34,10.34,0,0,1-3.47,2.06,10.11,10.11,0,0,0-3.28,2.06,7.12,7.12,0,0,0-1.65,3.67c-.27,1.43-.33,2.9-.73,4.3a6.35,6.35,0,0,1-2.5,3.35,26,26,0,0,0-3.19,2.42,5.56,5.56,0,0,0-1.6,3.63c-.18,2.78,1.3,6.1-.79,8.45-1.74,2-4.58,2.75-5.53,5.4a11.11,11.11,0,0,0-.34,4.26,8.33,8.33,0,0,1-.52,4.4c-1.21,2.22-4.22,2.69-5.38,5-.68,1.32-.35,2.76,0,4.13.35,1.53.44,2.88-.66,4.11-.85.94-1.94,1.62-2.78,2.57a4.71,4.71,0,0,0-1.2,3.47c.15,2.71,2.42,5.67.82,8.29a15.56,15.56,0,0,1-3.23,3.15,6.61,6.61,0,0,0-2.09,3.27,3.21,3.21,0,0,0,.85,3.28c.48.44,1.12-.33.64-.77-1.11-1-.55-2.73.18-3.82a17.23,17.23,0,0,1,3.06-2.91,5.94,5.94,0,0,0,2.09-3.44,8.7,8.7,0,0,0-.54-3.87,9.28,9.28,0,0,1-.74-4.18,5.26,5.26,0,0,1,2.16-3,8.14,8.14,0,0,0,2.36-2.63,6.24,6.24,0,0,0,0-4.09c-.32-1.41-.46-2.77.59-3.91a20.56,20.56,0,0,1,3-2.23,5.82,5.82,0,0,0,2.17-2.8,12,12,0,0,0,.27-4.31,8,8,0,0,1,.56-4.24,8.68,8.68,0,0,1,2.87-2.65,9.63,9.63,0,0,0,2.74-2.54,6.33,6.33,0,0,0,.82-3.84,33.29,33.29,0,0,1-.32-4.56,4.86,4.86,0,0,1,1.91-3.46c1.05-.87,2.26-1.52,3.28-2.43a6.72,6.72,0,0,0,2-3.14c.79-2.59.27-6,2.49-8,2-1.71,4.85-1.95,6.59-4,2-2.31,1.13-5.52,2.18-8.17s3.92-3.33,6.07-4.66a6.88,6.88,0,0,0,2.54-2.57,12,12,0,0,0,1-4.18,9.25,9.25,0,0,1,1.13-4.09,7.19,7.19,0,0,1,3.16-2.29,18.51,18.51,0,0,0,3.58-1.88,7.2,7.2,0,0,0,2.14-2.83c1-2.18,1.23-5.06,3.09-6.73,2.25-2,5.81-.9,8.14-2.86s2.39-5.07,4.06-7.36a3.74,3.74,0,0,1,3.45-1.9C433.58,242.41,433.76,241.43,433.12,241.33Z"/><path class="cls-5" d="M436.11,247.16c-4.33,2.39-2,8.93-5.83,11.78-1.86,1.39-4.27,1.78-6.36,2.72a7.76,7.76,0,0,0-2.61,1.76,6.19,6.19,0,0,0-1.52,3.64,27.77,27.77,0,0,1-.49,4.55,6.16,6.16,0,0,1-1.89,2.87c-1.72,1.55-3.89,2.49-5.76,3.84a10.26,10.26,0,0,0-2.45,2.38,9,9,0,0,0-1.37,3.61,43.65,43.65,0,0,1-.75,4.41,6.33,6.33,0,0,1-2.25,3.3c-2,1.58-4.65,2.44-6.22,4.57s-1.6,5.14-2.26,7.75a6.49,6.49,0,0,1-1.93,3.42,15.55,15.55,0,0,1-3.42,2,11.84,11.84,0,0,0-3,2,6.59,6.59,0,0,0-1.78,3.59c-.52,2.76,0,5.74-1.78,8.15-1.47,2-3.72,3.34-5.65,4.9a14,14,0,0,0-2.65,2.68,11.79,11.79,0,0,0-1.62,3.51c-.79,2.65-.94,5.67-2.58,8-1.49,2.11-4,3.11-5.8,4.93a6,6,0,0,0-1.68,3.2,31.56,31.56,0,0,0,0,4.56,4.61,4.61,0,0,1-1.75,3.64,6.73,6.73,0,0,0-2.35,2.81c-.46,1.47.32,3-.08,4.42s-1.89,2.23-2.78,3.3a3.49,3.49,0,0,0-.83,3.65c.27.57,1.21.23.94-.35-.73-1.55.85-2.91,1.87-3.85a5,5,0,0,0,1.89-3.3c.08-1.47-.61-3,.34-4.33.76-1.05,1.94-1.68,2.73-2.7,1.91-2.46.31-5.52,1.1-8.25.7-2.47,3.41-3.7,5.27-5.19a9.46,9.46,0,0,0,2.41-2.78,15,15,0,0,0,1.37-3.92c.63-2.63,1.06-5.36,2.9-7.47,1.68-1.91,3.94-3.17,5.83-4.83a11.45,11.45,0,0,0,2.29-2.62,9.3,9.3,0,0,0,1.17-3.82c.3-2.77,0-5.85,2.49-7.74,2-1.55,4.7-2.12,6.43-4.09s1.86-4.84,2.37-7.35a8,8,0,0,1,1.68-3.78,12.46,12.46,0,0,1,3-2.26,19.07,19.07,0,0,0,3.13-2.11,7.16,7.16,0,0,0,2.09-3.31c.8-2.63.4-5.7,2.13-8,2.7-3.58,8.37-4.28,10-8.8.94-2.65-.13-6,1.94-8.24,1.56-1.67,4.09-2.12,6.13-2.92A7.81,7.81,0,0,0,433,257c.89-2.15.89-4.54,1.75-6.69a4.39,4.39,0,0,1,1.94-2.32C437.25,247.67,436.66,246.85,436.11,247.16Z"/><path class="cls-5" d="M346.56,366.35c-1.34-2.15-3.85-3.19-5.29-5.26-1.71-2.47-.49-5.53-.69-8.28-.17-2.46-1.65-4.23-3.32-5.9s-3.5-3.41-3.63-6,.94-5.43-.34-8a4.14,4.14,0,0,0-2.49-2.13,4.09,4.09,0,0,1-1.73-.83,3,3,0,0,1-.79-1.51c-.62-2.63,1-5.23.27-7.86-.61-2.31-2.84-3.23-4.79-4.19a7,7,0,0,1-2.64-2,6.78,6.78,0,0,1-1.05-3.06c-.3-2.09-.18-4.4-1.29-6.27-1.27-2.14-3.68-2.28-5.75-3.16a3.46,3.46,0,0,1-2.15-2.35,17.07,17.07,0,0,1-.25-3.57,6.32,6.32,0,0,0-.72-3,4.65,4.65,0,0,0-2.72-1.92A8.37,8.37,0,0,1,304,289.7a4.79,4.79,0,0,1-1.17-3c-.25-2-.34-4.43-2.43-5.47s-4.69-.24-5.89-2.56c-.85-1.65-.86-3.6-1.54-5.31a4,4,0,0,0-1.37-1.88,3.4,3.4,0,0,0-1.21-.51,17.57,17.57,0,0,1-2.41-.24c-1.12-.38-1.66-1.62-2-2.63a11.41,11.41,0,0,0-1.56-3.24,3.29,3.29,0,0,0-2.65-1.35c-.64,0-.55,1,.09,1,2.43-.05,2.91,3.72,3.82,5.32a3.71,3.71,0,0,0,2.41,1.95c1.11.25,2.37-.13,3.27.75,1.21,1.19,1.27,3.37,1.69,4.92.52,1.91,1.51,3.42,3.52,3.92,1.16.29,2.46.23,3.53.81a3.41,3.41,0,0,1,1.54,2.61c.33,2,.18,4.32,1.83,5.75s4.81,1,5.78,3.33c.88,2.06,0,4.45.86,6.54.88,2.27,3.2,2.64,5.24,3.35a4.57,4.57,0,0,1,2.58,1.87,7.62,7.62,0,0,1,.85,3c.25,2.07.22,4.32,1.36,6.16s3.35,2.5,5.17,3.52a4.43,4.43,0,0,1,2.23,2.36,9,9,0,0,1-.17,4.38c-.36,2-.47,4.69,1.43,6,1,.72,2.42.69,3.24,1.75A5.46,5.46,0,0,1,333,336c0,1.47-.31,2.93-.33,4.41a7.07,7.07,0,0,0,.88,3.63c1.08,1.92,2.91,3.25,4.32,4.91a7.2,7.2,0,0,1,1.6,2.85,12.93,12.93,0,0,1,0,4.3,10.46,10.46,0,0,0,.22,3.94,7.11,7.11,0,0,0,2,2.95c1.74,1.69,4,2.89,4.78,5.36a2.83,2.83,0,0,1-.6,3c-.48.41.09,1.24.58.81C348.15,370.64,347.69,368.15,346.56,366.35Z"/><path class="cls-5" d="M340.13,366a18.87,18.87,0,0,1-2.48-2.25,3.85,3.85,0,0,1-.76-1.39,4.87,4.87,0,0,1,.06-2,4,4,0,0,0-.42-2.87,5.58,5.58,0,0,0-1.75-1.67c-1.34-.9-3.22-1.65-3.93-3.21-1-2.14.57-4.62-.58-6.77-.95-1.79-3.07-2.26-4.69-3.23-3.82-2.3-1.55-7.76-4.09-10.92-1.31-1.63-3.38-2.13-5.08-3.22a4.41,4.41,0,0,1-1.93-2.42,13,13,0,0,1-.36-3.42c-.06-2.11-.34-4.22-2.09-5.62-1.54-1.24-3.56-1.67-5.11-2.88-1.93-1.51-1.56-3.89-1.82-6.06a5.48,5.48,0,0,0-1.13-3,6.39,6.39,0,0,0-2.24-1.6c-1.69-.79-3.81-1.14-5.11-2.59-1.47-1.63-1.23-4.13-1.52-6.16a6,6,0,0,0-3-4.77c-1.83-1-4.24-1.38-5.43-3.27s-.94-4.59-1.77-6.74a9.54,9.54,0,0,0-4.11-4.73,9,9,0,0,0-3-1.06.5.5,0,0,0-.18,1,8.42,8.42,0,0,1,5.42,3.46c1.37,2,1.39,4.24,1.93,6.47a6.41,6.41,0,0,0,1.43,2.92,7.71,7.71,0,0,0,2.44,1.62c1.85.82,4,1.39,4.83,3.45s.5,4.14,1,6.15a5.89,5.89,0,0,0,3.64,4c1.67.72,3.84,1.12,5,2.65,1.38,1.83.65,4.45,1.27,6.55s2.27,3,4,3.79,3.71,1.69,4.28,3.81,0,4.36.72,6.45,2.47,3,4.28,3.88a8.84,8.84,0,0,1,2.57,1.63,5.24,5.24,0,0,1,1.29,2.61c.44,1.95.3,4,1,5.92s2.23,2.93,4,3.78a6.38,6.38,0,0,1,2.42,1.59,4.47,4.47,0,0,1,.56,3.32,8.48,8.48,0,0,0,.08,3.33,4.47,4.47,0,0,0,1.41,2.06c1.25,1.1,2.9,1.68,4.08,2.87a2.81,2.81,0,0,1,.74,2.6,5.23,5.23,0,0,0,.24,3.34c1,2,3.22,2.9,4.48,4.69a2.83,2.83,0,0,1,.44,3.16c-.34.55.57,1,.9.43C343.29,369.7,341.67,367.36,340.13,366Z"/><path class="cls-6" d="M382,363.91a179.08,179.08,0,0,1-2.82,19q-4.79,25.92-9.58,51.81c-11.26,2.34-23,3.33-34.11.78q-7.72-34.85-15.46-69.67h.39A90.41,90.41,0,0,0,382,363.91Z"/><ellipse class="cls-7" cx="235.01" cy="450.51" rx="180.56" ry="31.94"/><rect class="cls-7" x="160.74" y="125.27" width="68.19" height="68.05"/><rect class="cls-7" x="160.74" y="48.9" width="68.19" height="68.06"/><rect class="cls-7" x="82.11" y="125.27" width="68.19" height="68.05"/><rect class="cls-7" x="82.11" y="48.9" width="68.19" height="68.06"/><path class="cls-4" d="M181.42,244c.36,2.51-.44,5-1.28,7.4A176.32,176.32,0,0,1,151,303.76a387.36,387.36,0,0,0-60.17,8.85c-5.57,1.28-11.17,2.68-16.87,2.73s-11.64-1.45-15.87-5.29c-2.36-2.14-4.17-5.36-3.37-8.44.83-3.23,4.1-5.12,7.14-6.47a78.78,78.78,0,0,1,32.91-6.6c-13.28-9.83-26.87-20.38-34.32-35.13-1.15-2.27-2.08-5.2-.48-7.17,1.1-1.36,3-1.72,4.75-1.8,7.55-.32,14.84,2.89,21.17,7a75.71,75.71,0,0,1,20.74,20,331,331,0,0,1-9.21-51.91c-.48-5-.78-10.3,1.57-14.71a4.33,4.33,0,0,1,2-2.1c1.91-.82,3.92.83,5.28,2.4,13.51,15.54,19.72,36.22,22.09,56.66a246,246,0,0,1,7.85-46.28c1.5-5.59,3.56-11.59,8.45-14.68,3.39,1.21,4.78,5.19,5.51,8.71,4.27,20.72.32,42.43-7.41,62.13,8.38-11.66,17.16-23.55,29.32-31.18a8,8,0,0,1,4.61-1.61C179.18,239,181.05,241.5,181.42,244Z"/><path class="cls-5" d="M170.16,255.09a3.3,3.3,0,0,0-3.19.1,23.45,23.45,0,0,0-3.67,2.33,83.46,83.46,0,0,0-12.89,11.89c-4.24,4.61-8.28,9.4-12.76,13.78,2.2-12.92,6.33-25.52,7.14-38.65.11-1.65.16-3.3.15-5a13.23,13.23,0,0,0-.38-4.3A1.88,1.88,0,0,0,142,234c-1.23.54-2,2.12-2.61,3.22-3.34,5.6-5.32,11.88-7.18,18.1q-3.15,10.53-5.47,21.29-2.53-7.68-5.13-15.35-1.4-4.11-2.85-8.19a52.75,52.75,0,0,0-3-7.3,17.08,17.08,0,0,0-2.14-3.23,2.2,2.2,0,0,0-2.66-.84,3,3,0,0,0-1.17,2.26c-.21,1.4-.33,2.81-.43,4.22a93.92,93.92,0,0,0,.56,17.42c.71,6.06,1.82,12.06,3,18.06-6.13-5.81-12.57-11.76-20.44-15a4.13,4.13,0,0,0-2.58-.4,2,2,0,0,0-1.5,1.69A4.88,4.88,0,0,0,89,272.6c.46.95,1,1.88,1.5,2.78a48.64,48.64,0,0,0,7.92,9.77,128.79,128.79,0,0,0,10.14,8.67c-8.69.46-17.76,1.14-25.59,5.24a29.4,29.4,0,0,0-2.86,1.69,10.29,10.29,0,0,0-2.48,2.12,3.21,3.21,0,0,0-.75,2.68,3.32,3.32,0,0,0,1.79,2.09,13.21,13.21,0,0,0,6.94,1.17,56.23,56.23,0,0,0,7.74-1.15c6-1.18,11.93-2.73,17.84-4.29.56-.15.24-1-.31-.85-5,1.31-9.9,2.61-14.9,3.69-2.48.53-5,1-7.49,1.39a20.15,20.15,0,0,1-7,.06,6.86,6.86,0,0,1-3-1.23,2,2,0,0,1-.3-2.77,8.17,8.17,0,0,1,2.31-2.07A30,30,0,0,1,83.19,300,40.35,40.35,0,0,1,95.31,296a120.22,120.22,0,0,1,14.54-1.39.45.45,0,0,0,.25-.79c-6.24-4.93-12.62-10-17.23-16.55a34.65,34.65,0,0,1-3.06-5.19c-.34-.72-.84-1.82-.34-2.58s1.81-.44,2.55-.14a46,46,0,0,1,10.63,6.42,140.83,140.83,0,0,1,10.68,9.45.45.45,0,0,0,.74-.38c-2.06-10.79-4.14-21.7-3.95-32.74a53,53,0,0,1,.63-8.25,2.46,2.46,0,0,1,.46-1.22c.47-.54,1.11-.21,1.54.2a12.12,12.12,0,0,1,2.08,3,45.21,45.21,0,0,1,2.89,6.89c.94,2.62,1.85,5.25,2.75,7.88,2,5.93,4,11.88,6,17.83a.46.46,0,0,0,.87-.07q2.07-9.86,4.84-19.55c1.73-6,3.51-12.18,6.27-17.86a46,46,0,0,1,2.24-4.07c.45-.72,1.81-3.16,2.83-1.76a3,3,0,0,1,.45,1.49c.08.8.09,1.6.1,2.4,0,1.64,0,3.29-.1,4.93a121.55,121.55,0,0,1-2.91,19c-1.55,7.14-3.34,14.23-4.49,21.45a.46.46,0,0,0,.79.37c8.24-7.81,14.88-17.22,23.73-24.4,1.09-.88,2.21-1.73,3.37-2.52a14.8,14.8,0,0,1,3.44-2,2.17,2.17,0,0,1,1.64-.05c.64.32.65,1.13.65,1.75a14.6,14.6,0,0,1-1,4.75,89.18,89.18,0,0,1-3.86,8.72q-2.07,4.32-4.36,8.53A193.68,193.68,0,0,1,149.54,298c-.33.47.36,1.06.69.58a195.72,195.72,0,0,0,10.66-17q2.46-4.41,4.67-8.94c1.47-3,2.95-6.05,4.16-9.17a18.82,18.82,0,0,0,1.25-4.65C171.1,257.57,171.28,255.89,170.16,255.09Z"/><path class="cls-8" d="M223.63,257.16a69.63,69.63,0,0,1-2.31,12.48,22.29,22.29,0,0,1-5,9.64.53.53,0,0,1-.89-.24c-12.42,5.75-24.88,11.6-36.48,18.81a7.85,7.85,0,0,1-.52-1.71A374.33,374.33,0,0,1,171.76,255c-.85-8.06-1.41-16.15-1.74-24.25q-.24-3.12-.5-6.24c-.36-4.56-.71-9.58,1.87-13.64a11.4,11.4,0,0,1,8.4-4.8c.29,0,.57-.06.86-.08a21.44,21.44,0,0,1,8.88,1.73,30.2,30.2,0,0,1,5.25,1.89,31.86,31.86,0,0,1,4.25,2.34,51,51,0,0,1,7.73,6.24c2.68,2.57,5.19,5.36,7.66,8.15h0a29.33,29.33,0,0,1,5.45,7.47C223.58,241,224.39,249.2,223.63,257.16Z"/><path class="cls-9" d="M156.85,390.08q-7.11-1-14.17-2.18c-3.07-.51-6.13-1-9.18-1.59-8.87-22.43-11-47-12.94-71.16a299.3,299.3,0,0,1-1.46-30.37,39.12,39.12,0,0,1,1.44-11.21,16,16,0,0,1,6.56-9,24,24,0,0,1,7.43-2.52l1.33-.29,0,.22c6-.61,12.89-.87,16.94,3.54,2.71,2.95,3.33,7.21,3.67,11.2,1.14,13.22.62,26.53,0,39.79a22.49,22.49,0,0,0-2.44,4.91c-1.9,5.42-1.46,11.44.21,16.94s4.49,10.55,7.36,15.52a444.67,444.67,0,0,0,25.79,39.83q-12.72-1.22-25.39-2.93Z"/><path class="cls-10" d="M178.38,296.14a7.85,7.85,0,0,0,.52,1.71c-3.93,2.43-7.75,5-11.44,7.8-4.11,3.11-8.16,6.62-10.93,10.89.61-13.26,1.13-26.57,0-39.79-.34-4-1-8.25-3.67-11.2-4-4.41-11-4.15-16.94-3.54l0-.22q17.85-3.87,35.9-6.83A374.33,374.33,0,0,0,178.38,296.14Z"/><path class="cls-9" d="M173.06,145.1,169,128,133.4,142.86l4.53,12.25Zm-28.18,50.58a1.21,1.21,0,0,0-.22.74c0,.08.05.16.08.24S144.92,196.26,144.88,195.68Z"/><path class="cls-9" d="M144.88,195.68a1.21,1.21,0,0,0-.22.74C139.59,181.19,130,154.06,125,139l1.48-1.09,38.12-13.58,8.81-3.14c5.93,19.59,8,40.15,12.72,60.05-7,2.67-34.3,12.8-41.34,15.47C144.89,196.62,144.92,196.26,144.88,195.68Z"/><polygon class="cls-11" points="168.98 128.03 173.06 145.09 137.93 155.1 133.4 142.85 168.98 128.03"/><path class="cls-12" d="M164.55,124.28l-38.12,13.58L161.38,112C162.51,116.4,163.44,120,164.55,124.28Z"/><path class="cls-13" d="M320.54,429.58h-7.49q-4.46-22.33-8.9-44.65,4.85-3.29,9.4-7Q317.16,403.76,320.54,429.58Z"/><path class="cls-14" d="M304.15,384.93q4.46,22.32,8.9,44.65h-2.27q-5.29-20.83-11.64-41.38Q301.67,386.63,304.15,384.93Z"/><path class="cls-13" d="M283.86,396.52q3,30.39,7.1,60.67h-9q-7.25-30.12-12.88-60.6,7.39-.19,14.78-.55C283.82,396.2,283.84,396.36,283.86,396.52Z"/><path class="cls-14" d="M281.91,457.19h-6.22q-7.69-30-13.78-60.45c2.37,0,4.75-.08,7.12-.15Q274.67,427.05,281.91,457.19Z"/><path class="cls-2" d="M210.93,115.15a22,22,0,0,0-2.83-1c-5.67-1.37-11.59,1.91-17.35,1a12.36,12.36,0,0,1-9.26-7.2,7.18,7.18,0,0,1-.62-4.17c.68-3.52,4.58-5.2,7.28-7.56,4.36-3.82,6.2-10.33,11.37-13,4.5-2.29,10-.8,14.59,1.25,3.09,1.37,6.21,3,9.6,3.08,5.82.12,10.9-4.4,16.72-4.6a11.66,11.66,0,0,1,7.8,2.67c2.68,2.24,4.3,5.65,7.27,7.47,4.69,2.87,11.78,1.24,15.22,5.53,1.57,2,1.86,4.68,1.64,7.18s-.87,5-.9,7.49a15.4,15.4,0,0,0,1.58,7c1,2,2.35,3.73,3,5.82,1.13,3.86-.61,8-3.12,11.16s-5.78,5.59-8.44,8.6a16.19,16.19,0,0,0-4.15,8.21L257.83,144a23.83,23.83,0,0,0-.89-3,21.58,21.58,0,0,0,5.38-5.61,11.61,11.61,0,0,0,2.21-6.27,6.07,6.07,0,0,0-3.18-5.53,5.68,5.68,0,0,0-4.8.15,7.72,7.72,0,0,0-2.46,1.94c.57-4.21-2.94-8.7-7.26-8.88-2.4-.09-4.92.92-7.14,0-3.05-1.29-4.05-5.71-7.26-6.56a6.19,6.19,0,0,0-4,.6c-4.29,1.92-7.95,6-12.65,5.75A15.24,15.24,0,0,1,210.93,115.15Z"/><path class="cls-14" d="M162.06,390.81l-17.34,62.12h-3.25q7-31.59,15.38-62.85Z"/><path class="cls-13" d="M142.68,387.9q7.06,1.17,14.17,2.18-8.37,31.26-15.38,62.85h-8.32Q137.55,420.37,142.68,387.9Z"/><path class="cls-5" d="M300.32,249.34A83.58,83.58,0,0,1,297,269.75c-.65,2.94-1.4,5.85-2.31,8.73a78.15,78.15,0,0,1-5,12.23c-1.65,3.23-3.51,6.8-6.49,9a9,9,0,0,1,1.46,2.56,3.67,3.67,0,0,1-1,3.22,5.15,5.15,0,0,1-3.38,1.55,9.51,9.51,0,0,1-2.26-.13c-.23,0-1-.25-1.53-.34a4,4,0,0,1,.09.77,2.77,2.77,0,0,1-.36,1.15,3.31,3.31,0,0,1-2.1,1.53c-2,.47-4.07-.84-5.67-1.92-3.28-2.2-5.81-5.3-8.19-8.43a76.18,76.18,0,0,0-42.17-19.85,2.82,2.82,0,0,1-2.21-1,.76.76,0,0,1-.09-.18c-.48-1.27,1.14-2.25,2.44-2.63L213,272.78c-.38-.24-.8-.53-.85-1a1.32,1.32,0,0,1,.47-1,5.61,5.61,0,0,1,3.48-1.67l0-.23a2,2,0,0,0,1.52-.34,3.3,3.3,0,0,0,1-2q.6-2.6,1.18-5.21a12.9,12.9,0,0,0,2.86,3.08c.82.63,1.95,1.17,2.83.62a2.39,2.39,0,0,0,.91-1.87,12,12,0,0,0-.66-4.73c-.15-.49-.31-1-.47-1.44-3.32-9.84-6.88-19.78-12.92-28.23a.42.42,0,0,0,.11-.13c.67-.78,1.32-1.56,2-2.35q4-4.8,7.69-9.78a5.61,5.61,0,0,0,.38-.51,1.67,1.67,0,0,1-.31.05,373.87,373.87,0,0,1,10.07-46.83q0,5.58.19,11.15l.28-.25c6.56-5.85,13.17-11.68,20.45-16.62a34.16,34.16,0,0,1,8.32-4.43,17.87,17.87,0,0,1,2.61-.68c.48-.08,1.13,0,1.25.43a1.06,1.06,0,0,1-.29.79c-.9,1.18-1.79,2.38-2.67,3.57a24.66,24.66,0,0,1,10.3,1.19,1,1,0,0,1,.63.41c.2.36-.06.8-.34,1.11a9.3,9.3,0,0,1-2.9,2.19l.14.29a34.89,34.89,0,0,1,5.7,3.64,33,33,0,0,1,5.45,6.37,115.17,115.17,0,0,1,13.2,23.19,91.57,91.57,0,0,1,6.27,30.52A125.78,125.78,0,0,1,300.32,249.34Z"/><path class="cls-15" d="M222.29,177l-.68-.5a1.74,1.74,0,0,1-.78-1c-.11-.74.73-1.23,1.45-1.43a10.94,10.94,0,0,1,4.73-.22c0-1-1.26-1.76-1.22-2.8a1.66,1.66,0,0,1,1-1.31,4.61,4.61,0,0,1,1.68-.37l3.8-.38v.24a373.87,373.87,0,0,0-10.07,46.83c-5.12.79-22.82,3.31-28,3.91-2.39-2.31-.21-21.4-.76-26.88,0-.46-.09-.92-.14-1.37Q208.16,185.08,222.29,177Z"/><path class="cls-11" d="M212.34,228.78c6,8.45,9.6,18.39,12.92,28.23.16.47.32.95.47,1.44a12,12,0,0,1,.66,4.73,2.39,2.39,0,0,1-.91,1.87c-.88.55-2,0-2.83-.62a12.9,12.9,0,0,1-2.86-3.08q-.58,2.61-1.18,5.21a3.3,3.3,0,0,1-1,2,2.24,2.24,0,0,1-2,.22,4.35,4.35,0,0,1-1.67-1.25,18.3,18.3,0,0,1-3.16-6.24c-1.47,2.14-1.76,5.1-3.77,6.75a2.24,2.24,0,0,1-1.2.55,2.3,2.3,0,0,1-2-1.64,10.34,10.34,0,0,1-.61-3.59c-.06-1.65-.07-3.3,0-4.95.27-9.29,2.2-18.49,4.31-27.58L208,229a8.72,8.72,0,0,1,4.27-.39Z"/><path class="cls-13" d="M183.23,193.55l.08,0c-.31,1.15-.56,2.32-.79,3.49-.64,3.25-1.12,6.54-1.44,9.84V207c-.54.05-1.08.13-1.62.23q-4.38-3.78-8.72-7.6c-1.54-3.05-3.12-6.11-4.9-9,1.44.37,2.9.61,4.36.84Z"/><path class="cls-15" d="M276.06,199.18a169.46,169.46,0,0,1-2.16,18.66c-.54,3.07-1.15,6.14-1.86,9.17a35.29,35.29,0,0,1-2.57,7.69,20.5,20.5,0,0,1-5.42,6.58c-2.27,1.89-4.66,3.64-7,5.39q-7.39,5.49-15.1,10.54c-1.42.94-2.84,1.9-4.31,2.76a15.32,15.32,0,0,1-2.14,1.08c-.68.28-1.45.35-2.12.65a1.34,1.34,0,0,0-.79,1.36c0,.61.34,1.25-.32,1.64-1.37.78-2.49-.89-3.12-1.86-.35-.54-1.16,0-.81.58a4.85,4.85,0,0,0,2.64,2.4,2.35,2.35,0,0,0,2.48-.92,2,2,0,0,0,.21-1.38c-.06-.4-.22-.78.24-.95s.83-.19,1.22-.32a17.53,17.53,0,0,0,3.85-1.92c5.38-3.37,10.61-7,15.75-10.72q3.91-2.84,7.75-5.79a29.51,29.51,0,0,0,6.35-6.07c3.34-4.73,4.37-10.8,5.45-16.37a166.5,166.5,0,0,0,2.78-22C277.08,198.72,276.09,198.54,276.06,199.18Z"/><path class="cls-3" d="M223.68,230.74c-.75-1.55-1.49-3.09-2.23-4.64a1,1,0,0,0-1.28-.59,1,1,0,0,0-.59,1.29l2.22,4.63a1,1,0,0,0,1.29.59A1,1,0,0,0,223.68,230.74Z"/><path class="cls-3" d="M238.5,221.69a1,1,0,0,0-1.28-.59l-4.45,1.11a1,1,0,0,0-.59,1.29,1,1,0,0,0,1.28.58l4.45-1.1A1,1,0,0,0,238.5,221.69Z"/><path class="cls-3" d="M232.23,209a1,1,0,1,0-2,.17c.19,1.36.37,2.72.56,4.08a1,1,0,0,0,2-.17C232.61,211.67,232.42,210.31,232.23,209Z"/><path class="cls-3" d="M245.38,197.3a1,1,0,0,0-1.28-.59L238,198.54a1,1,0,0,0-.58,1.29,1,1,0,0,0,1.28.59l6.12-1.84A1,1,0,0,0,245.38,197.3Z"/><path class="cls-3" d="M235.25,185.06a1,1,0,0,0-.91,1.08v4.08a1,1,0,0,0,1.08.91,1,1,0,0,0,.91-1.09V186A1,1,0,0,0,235.25,185.06Z"/><path class="cls-3" d="M254,182.55l-4.44.66a1,1,0,1,0,.18,2l4.43-.65a1,1,0,0,0-.17-2Z"/><path class="cls-3" d="M265,178.11l-1.49-3.71a1,1,0,0,0-1.28-.59,1,1,0,0,0-.59,1.29l1.48,3.7a1,1,0,0,0,1.88-.69Z"/><path class="cls-3" d="M267.94,194.22l-4.82-.28a1.08,1.08,0,0,0-.76.17,1,1,0,0,0,.4,1.8l4.82.28a1.08,1.08,0,0,0,.76-.17,1,1,0,0,0,.4-.63A1,1,0,0,0,267.94,194.22Z"/><path class="cls-3" d="M267.86,203a1,1,0,0,0-.91,1.09v5.19a1,1,0,0,0,1.09.91,1,1,0,0,0,.91-1.09v-5.19A1,1,0,0,0,267.86,203Z"/><path class="cls-3" d="M254.49,209.13a1,1,0,0,0-1.08-.91,1,1,0,0,0-.91,1.09c.24,1.54.49,3.09.74,4.63a1,1,0,0,0,2-.17C255,212.22,254.74,210.68,254.49,209.13Z"/><path class="cls-3" d="M257.83,225.1a1,1,0,0,0-1.09-.9l-5.37-.15a1,1,0,0,0-.91,1.09,1,1,0,0,0,1.08.9l5.38.15A1,1,0,0,0,257.83,225.1Z"/><path class="cls-3" d="M267.09,223.4a1,1,0,1,0-2,.18c.12,1.48.24,3,.37,4.45a1,1,0,0,0,1.08.9,1,1,0,0,0,.91-1.08C267.34,226.37,267.21,224.89,267.09,223.4Z"/><path class="cls-3" d="M241.14,230.12a1,1,0,0,0-1.17.81l-1.73,5.72a1,1,0,0,0,.81,1.17,1,1,0,0,0,1.16-.81c.58-1.9,1.15-3.81,1.73-5.72A1,1,0,0,0,241.14,230.12Z"/><path class="cls-3" d="M255.6,239.55a1,1,0,0,0-1.08-.9l-5.19-.21a1,1,0,0,0-.91,1.08,1,1,0,0,0,1.08.91l5.19.21A1,1,0,0,0,255.6,239.55Z"/><path class="cls-3" d="M242.72,245.48a1,1,0,0,0-1.16.8q-.75,2.59-1.48,5.19a1,1,0,0,0,.8,1.17,1,1,0,0,0,1.17-.8l1.47-5.19A1,1,0,0,0,242.72,245.48Z"/><path class="cls-3" d="M231.79,245.63l-4.18-4.52a1,1,0,0,0-1.41.12,1,1,0,0,0-.23.73,1.15,1.15,0,0,0,.35.68c1.4,1.51,2.79,3,4.19,4.52a1,1,0,0,0,.73.23,1,1,0,0,0,.67-.35,1,1,0,0,0,.23-.73A1.15,1.15,0,0,0,231.79,245.63Z"/><path class="cls-3" d="M235.63,252.24a1,1,0,0,0-1.39-.24l-4,3.39a1,1,0,0,0,1.16,1.63l4-3.39A1,1,0,0,0,235.63,252.24Z"/><path class="cls-3" d="M233.54,272.78l-2.79-4.08a1,1,0,0,0-1.39-.24,1,1,0,0,0-.24,1.4l2.79,4.07a1,1,0,0,0,1.39.24A1,1,0,0,0,233.54,272.78Z"/><path class="cls-3" d="M246.15,263.49a1,1,0,0,0-1.39-.24l-4.29,2.37a1,1,0,0,0-.24,1.39,1,1,0,0,0,1.4.24l4.28-2.37A1,1,0,0,0,246.15,263.49Z"/><path class="cls-3" d="M254.14,262.13a1,1,0,0,0-1.08-.91,1,1,0,0,0-.91,1.09l.73,4.45a1,1,0,1,0,2-.18C254.63,265.1,254.39,263.62,254.14,262.13Z"/><path class="cls-3" d="M248.83,274.36a1,1,0,1,0-2,.17l.86,6.31a1,1,0,0,0,2-.17Z"/><path class="cls-3" d="M257.93,285l-4.45-.36a1,1,0,0,0-1.16.81,1,1,0,0,0,.8,1.16l4.45.36a1,1,0,1,0,.36-2Z"/><path class="cls-3" d="M263.66,273.47a1,1,0,0,0-1.29-.59l-2.94,1.34a1.06,1.06,0,0,0-.55.51,1,1,0,0,0,0,.78,1,1,0,0,0,1.29.59l2.94-1.35a1.07,1.07,0,0,0,.56-.51A1,1,0,0,0,263.66,273.47Z"/><path class="cls-3" d="M265.21,254.91a1,1,0,1,0-2,.17l.18,5.56a1,1,0,1,0,2-.17Z"/><path class="cls-3" d="M271.76,245.33l-4.82.17a1,1,0,0,0-.91,1.09,1,1,0,0,0,1.08.91l4.82-.18a1,1,0,0,0,.91-1.09A1,1,0,0,0,271.76,245.33Z"/><path class="cls-3" d="M282.24,247.34a1,1,0,0,0-1.16.81L280.7,252a1,1,0,0,0,2,.36c.12-1.3.25-2.6.38-3.89A1,1,0,0,0,282.24,247.34Z"/><path class="cls-3" d="M279.34,259.08a1.18,1.18,0,0,0-.73-.23l-4.08-.14a1,1,0,0,0-.68.35,1.06,1.06,0,0,0-.23.73,1,1,0,0,0,.36.68,1.18,1.18,0,0,0,.73.23l4.08.15a1,1,0,0,0,.67-.36,1,1,0,0,0,.23-.73A1,1,0,0,0,279.34,259.08Z"/><path class="cls-3" d="M294,252.7l-4.43,1a1.12,1.12,0,0,0-.68.35,1,1,0,0,0-.23.73c.07.48.54,1,1.08.91l4.44-1a1.14,1.14,0,0,0,.68-.36,1,1,0,0,0,.23-.73C295,253.13,294.54,252.58,294,252.7Z"/><path class="cls-3" d="M293.58,235.68a1,1,0,0,0-1.17.8l-.75,3.7a1,1,0,0,0,.8,1.17,1,1,0,0,0,1.16-.81c.26-1.23.51-2.47.76-3.7A1,1,0,0,0,293.58,235.68Z"/><path class="cls-3" d="M281.47,237l-5.19-.55a1,1,0,0,0-.36,2l5.19.54a1,1,0,0,0,.36-2Z"/><path class="cls-3" d="M286.8,224a1,1,0,0,0-1.16.81l-.51,4.82a1,1,0,0,0,2,.36l.51-4.82A1,1,0,0,0,286.8,224Z"/><path class="cls-3" d="M283.12,218.62a1,1,0,0,0-1.28-.59L277,220.41a1,1,0,1,0,.7,1.87l4.83-2.37A1,1,0,0,0,283.12,218.62Z"/><path class="cls-3" d="M291.65,209.92a1,1,0,0,0-1.16.81l-.69,5.91a1,1,0,0,0,.8,1.17,1,1,0,0,0,1.16-.81l.69-5.91A1,1,0,0,0,291.65,209.92Z"/><path class="cls-3" d="M286.32,200.38a1,1,0,0,0-1.28-.58l-4.24,1.71a1,1,0,0,0,.69,1.88l4.25-1.72A1,1,0,0,0,286.32,200.38Z"/><path class="cls-3" d="M280.92,186.37a1,1,0,0,0-1.17.8c-.3,1.3-.61,2.59-.92,3.89a1,1,0,0,0,.8,1.17,1,1,0,0,0,1.17-.81c.3-1.29.61-2.59.92-3.89A1,1,0,0,0,280.92,186.37Z"/><path class="cls-3" d="M296.07,221.91A1,1,0,0,0,295,221a1,1,0,0,0-.9,1.09c.17,1.42.35,2.84.53,4.26a1,1,0,0,0,2-.17C296.42,224.76,296.25,223.33,296.07,221.91Z"/><path class="cls-11" d="M197.89,228c-1.21.22-2.3-.77-3-1.63s-1.13-1.61-1.76-2.36a4.38,4.38,0,0,1-1.77,2.5,5,5,0,0,1-4.32.59c-3-.91-4.72-3.79-5.61-6.64a30.46,30.46,0,0,1-1.17-10.18,72.11,72.11,0,0,1,1.26-10.25,39.73,39.73,0,0,1,2.53-8.71,20.14,20.14,0,0,1,1.38-3.07c.21-.37.56-.78,1-.78l.17,0c.32.11.47.48.57.8.28.85.55,1.69.83,2.53l2-2.8c.45-.63,1.12-1.33,1.85-1.1a1.69,1.69,0,0,1,.93,1.33.45.45,0,0,1,.42.43c.12,1.72.25,3.43.38,5.15.2,2.06.39,4.11.56,6.18,0,.07,0,.14,0,.21.36,3.36.82,6.7,1.48,10s1.68,6.63,2.65,9.92a23,23,0,0,1,1,4.79C199.27,226.08,199.31,227.77,197.89,228Z"/><path class="cls-14" d="M270.74,319.42a16.64,16.64,0,0,1-5.95,7.91c-1.38,1-9.7,2.94-12.31,3.39a370.1,370.1,0,0,1-38.84,4.67c-.54,0-1.17.14-1.4.62a1.51,1.51,0,0,0-.09.79c.07,1,.15,2.08.22,3.12s0,2.52-1,3c-1.42.61-3-1.34-4.43-.68a11,11,0,0,1,.82,4.05v.14a2.16,2.16,0,0,1-.32,1.3,2.6,2.6,0,0,1-2.45.72,16.77,16.77,0,0,1-3-.59q4.17,6.89,8.11,13.91,7.41,13.11,14,26.63c-1.95,1.21-3.82,2.55-5.69,3.88l-4.91,3.49-1.13.8c-5.51,3.87-9.17,6-15,10.12l-.24-.33q-5-6.18-9.66-12.58a444.67,444.67,0,0,1-25.79-39.83c-2.87-5-5.7-10-7.36-15.52s-2.11-11.52-.21-16.94a22.49,22.49,0,0,1,2.44-4.91c2.77-4.27,6.82-7.78,10.93-10.89,3.69-2.79,7.51-5.37,11.44-7.8,11.75-7.3,24.39-13.21,37-19a2.82,2.82,0,0,0,2.21,1,76.11,76.11,0,0,1,35.8,14.54,50.52,50.52,0,0,1,10.17,7.24C269.16,306.07,273.11,312.49,270.74,319.42Z"/><path class="cls-10" d="M215.53,455.11c.39-5.19,2.83-10.05,5.73-14.38,2.42-3.61,5.32-7.09,9.24-9a4.81,4.81,0,0,1,3.74-.47,3.77,3.77,0,0,1,2,3.82,9.94,9.94,0,0,1-1.66,4.27A70.32,70.32,0,0,1,219.82,457l-.14.15c1.09,1,2.49,1.67,3.61,2.67a15.61,15.61,0,0,1,1.81,2.07l1.77,2.29.13.08q11.35-18.63,24.25-36.28a9.2,9.2,0,0,1,.7-.87c1-1.05,2.17-1.91,3.42-1.42,1.66.66,1.63,3.06.95,4.71a26.2,26.2,0,0,1-2,3.8q-9.47,15.49-19,31c-2.43,3.94-5.07,8.09-9.25,10.08a22.92,22.92,0,0,1-7,1.69q-7.41.93-14.87,1.27c-3.15.13-6.67.06-9-2-.66-5.84.53-12.05,4.29-16.54.32-.38.66-.75,1-1.1A15.54,15.54,0,0,1,204,456a15,15,0,0,1,6.39-1.79A11.88,11.88,0,0,1,215.53,455.11Z"/><path class="cls-6" d="M219.9,430a113.81,113.81,0,0,0-8.52-14.18l.64-.73q7.39-8.52,14.81-17l.42-.49q3.13,6.58,6.42,13.12h0c1.26,2.26,3.54,3.76,5.86,4.91a49.74,49.74,0,0,1,6.88,3.56,14.57,14.57,0,0,1,5.52,7.95,9.2,9.2,0,0,0-.7.87Q238.37,445.57,227,464.22l-.13-.08-1.77-2.29a15.61,15.61,0,0,0-1.81-2.07c-1.12-1-2.52-1.65-3.61-2.67l.14-.15a70.32,70.32,0,0,0,14.8-17.57,9.94,9.94,0,0,0,1.66-4.27,3.77,3.77,0,0,0-2-3.82,4.81,4.81,0,0,0-3.74.47c-3.92,1.87-6.82,5.35-9.24,9-2.9,4.33-5.34,9.19-5.73,14.38a11.88,11.88,0,0,0-5.16-.9C214.8,446.64,219.32,438.68,219.9,430Z"/><path class="cls-11" d="M230.92,391.81a14.64,14.64,0,0,1-2.73,4.6c-.31.39-.62.76-.94,1.13l-.42.49q-7.41,8.52-14.81,17l-.64.73a64.1,64.1,0,0,1-4.59,4.87,13.24,13.24,0,0,1-4.14,2.82c-.4.15-.93.24-1.21-.09a1.13,1.13,0,0,1-.11-.89,17.15,17.15,0,0,1,1.45-4.5,10.9,10.9,0,0,1-3.56,2.08,2.63,2.63,0,0,1-1.72.16,2,2,0,0,1-1.17-1.72,4.82,4.82,0,0,1,.45-2.14,18.29,18.29,0,0,1,3.44-5.45c-2,.67-4.28,1.31-6,.17a1.09,1.09,0,0,1-.49-.57,1.19,1.19,0,0,1,.45-1c.23-.25.46-.49.7-.72h0l2.49-2.13c5.78-4.11,9.44-6.25,15-10.12l1.13-.8,4.91-3.49c1.87-1.33,3.74-2.67,5.69-3.88.87-.54,1.76-1.06,2.67-1.54a1.25,1.25,0,0,1,.76-.2,1.16,1.16,0,0,1,.62.5A24.12,24.12,0,0,1,230.92,391.81Z"/><path class="cls-9" d="M204,456a15.54,15.54,0,0,0-3.48,2.54,45.35,45.35,0,0,1-12.57-12.28c-2.74-4-4.86-8.56-5.1-13.39-.06-1.29.14-2.8,1.25-3.45s2.66,0,3.79.79a34.74,34.74,0,0,1,10.18,11.66A82.3,82.3,0,0,1,204,456Z"/><path class="cls-8" d="M220.64,280a237.51,237.51,0,0,0-29.08,12.46c-9.16,4.85-18.1,10.82-25.05,18.59A32.63,32.63,0,0,0,159,323.84c-1.47,5.29-.54,10.62,1.44,15.65A112.73,112.73,0,0,0,168.34,355c3,5.11,6.15,10.13,9.35,15.11q9.66,15,20.22,29.45l2.63,3.57c.39.51,1.2-.06.82-.58q-10.49-14.08-20.11-28.79-4.81-7.37-9.41-14.87a165.4,165.4,0,0,1-8.44-15.19c-2.36-4.95-4.58-10.34-4.08-15.95.44-5,2.79-9.51,5.79-13.41a62.43,62.43,0,0,1,11-10.71,103.21,103.21,0,0,1,12.81-8.52A200.76,200.76,0,0,1,217.4,282.3L221,281A.5.5,0,0,0,220.64,280Z"/><path class="cls-8" d="M230.14,282.68c-10.16,4.06-20.34,8.14-30.09,13.14a135.73,135.73,0,0,0-13.62,7.89,57,57,0,0,0-11.14,9.46c-6.3,7.15-10.18,17.35-6.93,26.75a35.19,35.19,0,0,0,3.44,6.89c1.45,2.37,3,4.69,4.53,7,3.15,4.69,6.42,9.31,9.68,13.93,6.45,9.15,13,18.28,20,27,.88,1.08,1.76,2.16,2.66,3.23.41.49,1.23-.08.81-.58-7.05-8.44-13.53-17.34-19.89-26.31-3.2-4.53-6.41-9.06-9.56-13.62-1.56-2.27-3.11-4.55-4.62-6.85s-3-4.51-4.25-6.88a23.92,23.92,0,0,1-2.62-7.07,22.25,22.25,0,0,1-.11-7.1A29.4,29.4,0,0,1,174,316.33c5.92-8,14.8-13.37,23.42-18a286.64,286.64,0,0,1,29.38-13.23l3.68-1.48A.5.5,0,0,0,230.14,282.68Z"/><path class="cls-8" d="M243.4,289.05c-8.8,3.08-17.59,6.24-26.06,10.16A103.85,103.85,0,0,0,194,313.5a59.35,59.35,0,0,0-9.57,9.77c-2.76,3.72-4.69,8.12-4.08,12.83.65,5,3.54,9.44,6.09,13.67q4.11,6.81,8.48,13.45,8.77,13.33,18.58,25.95c.82,1.05,1.65,2.1,2.48,3.14.4.51,1.22-.07.81-.57q-9.74-12.28-18.51-25.27-4.38-6.5-8.5-13.16c-1.38-2.23-2.75-4.47-4.08-6.72a41.76,41.76,0,0,1-3.36-6.68,15.49,15.49,0,0,1-1-7.19,16.74,16.74,0,0,1,2.3-6.41A44.68,44.68,0,0,1,192.69,316a97.11,97.11,0,0,1,22.59-14.69,245.2,245.2,0,0,1,25.28-10.17l3.19-1.12A.5.5,0,0,0,243.4,289.05Z"/><path class="cls-8" d="M259.09,299.21c-1.65,2.34-4.37,3.61-6.79,5l-8.81,4.95L226,319c-2.53,1.43-5.55,2.71-7.3,5.14-1.8-.58-3.23-2.8-5.31-1.63s-1.74,3.72-1.93,5.82c-1.64-1.36-3.88-2.55-5.73-.92s-1.44,4.45-.75,6.67a2.14,2.14,0,0,1-1.4-.14,5.89,5.89,0,0,0-1.8-.37,3.13,3.13,0,0,0-2.5,1.62c-1.49,2.47.18,5.09,1.67,7.09.38.52,1.2-.06.81-.58-1.29-1.73-3.09-4.31-1.36-6.37.76-.91,1.69-.8,2.73-.49s1.94.59,2.74-.13a.53.53,0,0,0,.18-.58c-.6-1.83-1.36-4.28.21-5.86s4,.22,5.25,1.43a.51.51,0,0,0,.81-.29c.38-1.78-.43-5.16,1.69-6.1.88-.38,1.75.2,2.45.69a6.72,6.72,0,0,0,2.33,1.2.52.52,0,0,0,.55-.28,9.17,9.17,0,0,1,3-2.71c1.3-.8,2.66-1.52,4-2.27l8.7-4.89,17.17-9.66c2.7-1.51,5.8-2.9,7.63-5.51C260.22,299.32,259.46,298.68,259.09,299.21Z"/><path class="cls-11" d="M213.83,468.94c-.11-.62-1.11-.54-1,.09.22,1.22.38,3.21-1.36,3.27s-2.56-1.57-3.28-2.79a.5.5,0,0,0-.9.19c-.22,1.44-.71,3-2.42,3.1a2.28,2.28,0,0,1-2.34-2.6c.08-.64-.9-.82-1-.18a3.32,3.32,0,0,0,3.11,3.79,3.48,3.48,0,0,0,2.45-1,3.71,3.71,0,0,0,.92-1.75c.91,1.3,2.13,2.45,3.84,2.17C214,472.91,214.13,470.67,213.83,468.94Z"/><ellipse class="cls-11" cx="202.69" cy="462.69" rx="1.81" ry="2.4"/><ellipse class="cls-11" cx="211.62" cy="462.24" rx="1.7" ry="2.36"/><path class="cls-6" d="M256.94,141a23.83,23.83,0,0,1,.89,3l2.46,10.13h0l1.2,4.94a34.16,34.16,0,0,0-8.32,4.43c-7.28,4.94-13.89,10.77-20.45,16.62l-.28.25q-.24-5.56-.19-11.15c0-.08.05-.16.07-.24h-.07c0-3,.12-5.91.26-8.87a19.27,19.27,0,0,1-4.73.39c-5.34-.22-10.68-3-13.3-7.7a22.87,22.87,0,0,1-2-5.22,74.07,74.07,0,0,1-1.56-32.44,15.24,15.24,0,0,0,4.84,1.4c4.7.26,8.36-3.83,12.65-5.75a6.19,6.19,0,0,1,4-.6c3.21.85,4.21,5.27,7.26,6.56,2.22.94,4.74-.07,7.14,0,4.32.18,7.83,4.67,7.26,8.88a7.72,7.72,0,0,1,2.46-1.94,5.68,5.68,0,0,1,4.8-.15,6.07,6.07,0,0,1,3.18,5.53,11.61,11.61,0,0,1-2.21,6.27A21.58,21.58,0,0,1,256.94,141Z"/><path class="cls-13" d="M232.32,169h-.07c0-3,.12-5.91.26-8.87a24.11,24.11,0,0,0,10.09-4.86,38.76,38.76,0,0,0,9.71-12.21,58.86,58.86,0,0,1-5.17,11.69q-6.88,12.87-14.42,25.39l-.28.25q-.24-5.56-.19-11.15C232.27,169.15,232.3,169.07,232.32,169Z"/><path class="cls-13" d="M244.83,131.22a4.66,4.66,0,1,1-6.74,2.24,3.61,3.61,0,0,1,.35-.71,5.9,5.9,0,0,1,1.07-1.16A4.78,4.78,0,0,1,244.83,131.22Z"/><path class="cls-16" d="M238.28,143.49a5.37,5.37,0,0,1-.64,3.38,11.48,11.48,0,0,1-9.35,6.26,14.13,14.13,0,0,1,9-11.44A3.4,3.4,0,0,1,238.28,143.49Z"/><path class="cls-2" d="M237.28,141.69a14.13,14.13,0,0,0-9,11.44q-.36,0-.72,0a6.86,6.86,0,0,1-3.59-.88,3.87,3.87,0,0,1-1.92-3.05,4,4,0,0,1,1.17-2.78,8.88,8.88,0,0,1,2.53-1.75c.79-.4,1.61-.76,2.43-1.11l3.71-2a9.44,9.44,0,0,1,1.87-.83,3.78,3.78,0,0,1,.67-.13A3.6,3.6,0,0,1,237.28,141.69Z"/><path class="cls-13" d="M222.1,127.39a26.29,26.29,0,0,1,1.88,11,2.41,2.41,0,0,1-.26,1.19.92.92,0,0,1-1,.48,1.29,1.29,0,0,1-.58-.53,7.21,7.21,0,0,1-1-2,8.56,8.56,0,0,1-2.55,2.5,3.52,3.52,0,0,1-1.45.58,1.61,1.61,0,0,1-1.43-.52,2.27,2.27,0,0,1-.09-2.11C216.91,134,220.34,131.13,222.1,127.39Z"/><path class="cls-2" d="M234.67,119.35a7.23,7.23,0,0,0-5.17-2,1,1,0,0,0-.91,1.09,1,1,0,0,0,1.08.91,1.76,1.76,0,0,1,.23,0h.15c.2,0,.4,0,.6.08a5.54,5.54,0,0,1,.55.14h.05l0,0,.3.11a4.9,4.9,0,0,1,.52.24l.25.14.09.06a.91.91,0,0,0,.23.15l.25.2a5.92,5.92,0,0,1,.45.41,1,1,0,0,0,1.41-.12A1,1,0,0,0,234.67,119.35Z"/><path class="cls-2" d="M229.9,119.31h0Z"/><path class="cls-2" d="M216.92,118.16a1,1,0,0,0-1.29-.59,12.3,12.3,0,0,0-3,1,5.78,5.78,0,0,0-2.39,2.18,1,1,0,0,0,.47,1.33,1,1,0,0,0,1.34-.47.39.39,0,0,0,0-.06l.05,0,.18-.24.24-.25h0l.09-.08a5.74,5.74,0,0,1,.5-.36l.26-.16.05,0,.09,0a13.5,13.5,0,0,1,2.77-.87A1,1,0,0,0,216.92,118.16Z"/><path class="cls-2" d="M233.38,123.06a.52.52,0,0,0-.59.4,6.33,6.33,0,0,1-.49,2.31c-.22.52-.73,1.21-1.39,1s-.95-.87-1.19-1.41a7,7,0,0,1-.66-2.28.5.5,0,0,0-1,.09,7.49,7.49,0,0,0,.58,2.23,5.11,5.11,0,0,0,1.08,1.79,2,2,0,0,0,2,.51,2.68,2.68,0,0,0,1.49-1.55,7.27,7.27,0,0,0,.56-2.52A.51.51,0,0,0,233.38,123.06Z"/><path class="cls-2" d="M217.68,123.66a.51.51,0,0,0-.45.54,8.65,8.65,0,0,1-.29,2.43.91.91,0,0,1-.45.63,1.35,1.35,0,0,1-.64.11,1.74,1.74,0,0,1-1.24-1,5.71,5.71,0,0,1-.49-2.24.5.5,0,0,0-1,.09c.13,1.4.37,3,1.67,3.78a2.26,2.26,0,0,0,1.86.24,2,2,0,0,0,1.28-1.49,10.42,10.42,0,0,0,.3-2.67A.5.5,0,0,0,217.68,123.66Z"/><path class="cls-13" d="M261.46,127.62c-.41-.73-.5-1.58-1.23-2.09a1.63,1.63,0,0,0-2,.2c-1.27,1.07-1.6,3-1.8,4.6-.06.48-.09.95-.12,1.43a1.58,1.58,0,0,0,.16,1c.57.79,1.2-.28,1.85,0a1.91,1.91,0,0,1,.82,2.18,2.1,2.1,0,0,1-1.88,1.51.5.5,0,0,0,.09,1,3.11,3.11,0,0,0,2.84-2.66c.15-1.33-.68-3.15-2.23-3.1a3.06,3.06,0,0,0-.66.13.86.86,0,0,0,0-.16l.06-.72a14.34,14.34,0,0,1,.48-2.6c.19-.63.66-2,1.46-2.06s1.06,1.42,1.35,1.93S261.77,128.17,261.46,127.62Z"/><path class="cls-6" d="M147.61,195a17.66,17.66,0,0,1-6.53-.57c-.27-.1-.58-.24-.65-.52s.19-.6.43-.8a12.73,12.73,0,0,1,7.18-3h0a33,33,0,0,1-9.18-3.05c-.5-.28-1.07-.77-.9-1.33a1.3,1.3,0,0,1,.7-.64,8.58,8.58,0,0,1,1.46-.55A23.59,23.59,0,0,1,143,184a18.31,18.31,0,0,1,5.52-.24,40.72,40.72,0,0,1-7.95-7.45,1.34,1.34,0,0,1-.39-.82c0-.63.82-.88,1.45-.91,6.81-.41,13.37,3.15,18.12,8A43.7,43.7,0,0,1,165,189.2c.31.46.6.92.89,1.39,1.78,2.91,3.36,6,4.9,9q4.35,3.81,8.72,7.6,13.88,12,28.06,23.63c-2.11,9.09-4,18.29-4.31,27.58q-17.15-19.74-33.52-40.12-2.31-2.87-4.59-5.74l-.19.15a11.43,11.43,0,0,1-13.14-7.52,12.81,12.81,0,0,0-1.2-3.16,2.73,2.73,0,0,0-2.55-1.31l-.46-.12a14.14,14.14,0,0,1-5.68,1,1.17,1.17,0,0,1-.68-.24.82.82,0,0,1-.18-.82,2.4,2.4,0,0,1,.45-.77A17.31,17.31,0,0,1,147.61,195Z"/><path class="cls-13" d="M154,198.14a7.49,7.49,0,0,0-5.86-3.54.53.53,0,0,0-.59.4.5.5,0,0,0,.41.58,6.6,6.6,0,0,1,5.23,3.14C153.54,199.27,154.36,198.69,154,198.14Z"/><path class="cls-13" d="M155.22,194.38a15.7,15.7,0,0,0-7.14-5.11c-.61-.2-1,.7-.43.91a14.82,14.82,0,0,1,6.76,4.78C154.8,195.46,155.62,194.89,155.22,194.38Z"/><path class="cls-13" d="M156.72,190.44a21.42,21.42,0,0,0-8.22-7.5c-.57-.3-1,.6-.43.9A20.33,20.33,0,0,1,155.9,191C156.25,191.56,157.06,191,156.72,190.44Z"/><path class="cls-10" d="M318.56,235.76a32.92,32.92,0,0,1,9.27,5.15,15.68,15.68,0,0,1-5,9.25,33.86,33.86,0,0,1-9.86,6.1,101.22,101.22,0,0,1-14.3,5.06,135.14,135.14,0,0,0,2.16-29.22C306.85,232.83,312.89,233.66,318.56,235.76Z"/><path class="cls-2" d="M262.75,346.58q0,8.54,0,17.07c-17.61.19-35.24-.45-52.78-1.92q-3.93-7-8.11-13.91a16.77,16.77,0,0,0,3,.59,2.6,2.6,0,0,0,2.45-.72,2.16,2.16,0,0,0,.32-1.3Q235.22,347.4,262.75,346.58Z"/><path class="cls-10" d="M262.71,328.16q0,9.21,0,18.42-27.51.81-55-.19v-.14a11,11,0,0,0-.82-4.05c1.4-.66,3,1.29,4.43.68,1-.44,1.12-1.84,1-3s-.15-2.08-.22-3.12a1.51,1.51,0,0,1,.09-.79c.23-.48.86-.58,1.4-.62a370.1,370.1,0,0,0,38.84-4.67A51.08,51.08,0,0,0,262.71,328.16Z"/><path class="cls-10" d="M313.55,378q-4.56,3.67-9.4,7-2.47,1.69-5,3.27a145.78,145.78,0,0,1-13.05,7.25q1.92-44.93,1.3-89.91c-.1-6.87-.23-13.82,1.3-20.51s4.93-13.22,10.58-17.12c3.85-2.66,8.46-3.92,12.73-5.85,8.38-3.77,15.93-11.09,17.06-20.11a22.75,22.75,0,0,1,4.56,5.68c3.53,6.31,3.54,13.94,3.11,21.16-1.14,19-4.68,37.73-8.21,56.42q-4.51,23.85-9,47.69Q316.6,375.53,313.55,378Z"/><path class="cls-9" d="M298.68,261.32a101.22,101.22,0,0,0,14.3-5.06,33.86,33.86,0,0,0,9.86-6.1,15.68,15.68,0,0,0,5-9.25c.42.33.83.68,1.23,1-1.13,9-8.68,16.34-17.06,20.11-4.27,1.93-8.88,3.19-12.73,5.85-5.65,3.9-9,10.43-10.58,17.12s-1.4,13.64-1.3,20.51q.62,45-1.3,89.91L285,396l-1.2.06q-7.38.36-14.78.55c-2.37.07-4.75.11-7.12.15q-16.86.27-33.72-.33a14.64,14.64,0,0,0,2.73-4.6,24.12,24.12,0,0,0-2.84-4.69,1.16,1.16,0,0,0-.62-.5,1.25,1.25,0,0,0-.76.2c-.91.48-1.8,1-2.67,1.54q-6.61-13.51-14-26.63c17.54,1.47,35.17,2.11,52.78,1.92q0-8.53,0-17.07,0-9.21,0-18.42,0-13.08-.07-26.15c0-2,0-3.93,0-5.9,0-6.15,0-12.59,2.93-18a19.61,19.61,0,0,1,3.13-4.32,30.43,30.43,0,0,1,10.81-7.09c5.67-2.3,11.75-3.41,17.68-4.95Z"/><path class="cls-9" d="M394.4,433.15v16.29H375.18a29.72,29.72,0,0,1,1-16.26v0Z"/><polygon class="cls-14" points="305.2 467.85 384.68 467.85 386.34 467.85 386.34 469.99 303.5 469.99 303.5 467.85 305.2 467.85"/><polygon class="cls-14" points="384.69 451.57 305.45 451.57 303.5 451.57 303.5 449.44 322.59 449.44 334.13 449.44 344.3 449.44 365.28 449.44 375.18 449.44 386.34 449.44 386.34 451.57 384.69 451.57"/><path class="cls-6" d="M305.45,451.57h79.24a19.24,19.24,0,0,0-1.28,3.91l-76.54.39A17.1,17.1,0,0,0,305.45,451.57Z"/><path class="cls-12" d="M384.68,467.85H305.2a17.08,17.08,0,0,0,1.47-3.91h76.74A19.85,19.85,0,0,0,384.68,467.85Z"/><path class="cls-14" d="M383.93,407.87v11.77H371a16.16,16.16,0,0,1,.3-11.77Z"/><path class="cls-12" d="M306.87,455.87l76.54-.39a20.28,20.28,0,0,0-.41,5.39L307.21,460A17.42,17.42,0,0,0,306.87,455.87Z"/><path class="cls-6" d="M383.41,463.94H306.67a17.31,17.31,0,0,0,.54-3.93l75.79.86A21.16,21.16,0,0,0,383.41,463.94Z"/><path class="cls-6" d="M376.22,433.15v0a29.72,29.72,0,0,0-1,16.26h-9.9a14.3,14.3,0,0,1-1.46-8,41.9,41.9,0,0,1,1.82-8.26h10.58Z"/><path class="cls-4" d="M339.91,407.87H371.3a16.16,16.16,0,0,0-.3,11.77H339.45a.52.52,0,0,1-.2-.26A14.72,14.72,0,0,1,339.91,407.87Z"/><polygon class="cls-10" points="368.57 430.09 369.92 430.09 369.92 433.15 365.64 433.15 346.04 433.15 334.17 433.15 322.59 433.15 313.56 433.15 313.56 430.09 314.75 430.09 368.57 430.09"/><path class="cls-10" d="M314.54,422.7h-1v-3.06h25.89a.15.15,0,0,0,.21,0h30.26v3.06H314.54Z"/><path class="cls-6" d="M368.57,430.09H314.75a11.41,11.41,0,0,0,.3-1.65l52.92.4A5,5,0,0,0,368.57,430.09Z"/><path class="cls-12" d="M314.54,422.7H368c-.16.8-.3,1.61-.38,2.42l-52.69-.88A13.84,13.84,0,0,0,314.54,422.7Z"/><path class="cls-12" d="M368,428.84l-52.92-.4a13.57,13.57,0,0,0,.1-1.69l52.41-.28A7.33,7.33,0,0,0,368,428.84Z"/><path class="cls-6" d="M314.92,424.24l52.69.88a11.65,11.65,0,0,0-.05,1.32v0l-52.41.28A14.12,14.12,0,0,0,314.92,424.24Z"/><path class="cls-9" d="M346,433.15h19.6a41.9,41.9,0,0,0-1.82,8.26,14.3,14.3,0,0,0,1.46,8h-21v-.25A21.94,21.94,0,0,1,346,433.43Z"/><path class="cls-6" d="M346,433.15v.28a21.94,21.94,0,0,0-1.74,15.76v.25H334.13v-.14a23.19,23.19,0,0,1,0-15.74v-.41Z"/><path class="cls-14" d="M331.58,407.87h8.33a14.72,14.72,0,0,0-.66,11.51.52.52,0,0,0,.2.26h-7.87Z"/><path class="cls-9" d="M334.17,433.15v.41a23.19,23.19,0,0,0,0,15.74v.14H322.59V433.15Z"/><path class="cls-6" d="M463.17,313.18a42.48,42.48,0,0,0-6.89-18.26c-4-5.86-9.52-10.4-15.21-14.51-1.44-1-2.89-2.05-4.34-3.07-.52-.36-1.17.4-.64.77,5.8,4.05,11.71,8.16,16.39,13.53a40.77,40.77,0,0,1-13.92,63.85c-5.47,2.49-11.6,4.16-16,8.43s-5.78,10.84-5.71,16.94c.08,7.41,2.14,14.79,1.08,22.21a24.51,24.51,0,0,1-9.61,15.86c-5.59,4.28-12.58,6.25-19.54,6.57a48.44,48.44,0,0,1-5.39-.05c-.64,0-.83.94-.18,1,7.23.47,14.7-.49,21.2-3.85A27.79,27.79,0,0,0,417,409.73c3.18-7,2.12-14.65,1.31-22-.72-6.48-1.17-13.63,2.14-19.53s9.72-8.13,15.53-10.52a51.59,51.59,0,0,0,8.34-4.18,42,42,0,0,0,18.85-40.32Z"/><path class="cls-6" d="M402.41,210.47c2.35-6.45,3.65-14,.27-20.31-2.69-5-7.81-8.21-13.16-9.8a32.31,32.31,0,0,0-8.52-1.29c-3.46-.06-6.92.3-10.37.52a41.45,41.45,0,0,1-10.26-.29,18.33,18.33,0,0,1-9-4.41,48,48,0,0,1-6.28-7.51,67.89,67.89,0,0,0-6.17-7.48,38.21,38.21,0,0,0-16.16-10.15c-13-3.86-26.63,2-36.5,10.47q-1.83,1.58-3.54,3.28c-.46.45.31,1.09.77.64,9.16-9.12,22.27-16.43,35.59-14.22a34.3,34.3,0,0,1,17,8.68,50.71,50.71,0,0,1,6.62,7.27c1.92,2.55,3.71,5.21,5.84,7.6a21,21,0,0,0,7.63,5.66,26,26,0,0,0,9.46,1.63c6.6.06,13.22-1.35,19.8-.3,5.55.89,11.23,3.29,14.79,7.79,4.42,5.57,4,12.92,2.08,19.39-2.09,7-6,13.26-7.6,20.37-1.28,5.57-1,12,2.46,16.78a13.52,13.52,0,0,0,2.9,3c.51.39,1.16-.38.64-.76-4.9-3.66-6.24-10.28-5.51-16C396.11,223.68,400,217.24,402.41,210.47Z"/><path class="cls-6" d="M107.91,312.63c-7.09,3.35-15,8.79-15.5,17.38-.29,4.62,1.39,9,2.51,13.43a25.28,25.28,0,0,1,.94,7,16.12,16.12,0,0,1-1.51,6.1c-3.76,8.1-12.13,12.46-19.33,17a46.76,46.76,0,0,0-10.25,8.1A24.3,24.3,0,0,0,59,393.59c-1.7,9.51,1.76,18.94,7,26.75.67,1,1.37,2,2.09,2.91.39.51,1.21-.06.82-.58-5.69-7.49-10.06-16.58-9.3-26.22a23.92,23.92,0,0,1,4.61-12.6,37.77,37.77,0,0,1,9.69-8.43c7-4.6,15-8.45,19.8-15.72a18.06,18.06,0,0,0,3-11.79c-.45-4.55-2.29-8.81-3.07-13.29a17,17,0,0,1,0-6.6,14.69,14.69,0,0,1,2.47-5.39,28.07,28.07,0,0,1,9.4-7.7c.89-.49,1.79-.94,2.7-1.37C108.84,313.29,108.5,312.35,107.91,312.63Z"/><path class="cls-7" d="M291.42,127.25A35,35,0,0,0,291,114.8c-1.11-5.88-3-11.65-3.32-17.62-.89-15.13,8.44-29.65,21.2-37.82s28.42-10.75,43.57-10.43c16.16.34,32.54,3.91,46.26,12.44,6.57,4.09,12.67,9.57,15.44,16.81,2.1,5.49,2.11,11.61.93,17.37-3.81,18.59-19.66,33.11-37.57,39.38s-37.58,5.38-56.26,2c-7.26-1.32-14.87-3-21.89-.7s-13,8.25-20.09,8a37.25,37.25,0,0,0,12.05-17Z"/><text class="cls-17" transform="translate(296.61 70.37)">I st<tspan class="cls-18" x="45.05" y="0">a</tspan><tspan x="63.18" y="0">y </tspan><tspan class="cls-19" x="89.3" y="0">a</tspan><tspan x="107.59" y="0">t</tspan></text><text class="cls-20" transform="translate(296.61 122.78)">home</text></g></svg>