<?xml version="1.0" encoding="utf-8"?>
<!-- Generator: Adobe Illustrator 24.1.2, SVG Export Plug-In . SVG Version: 6.00 Build 0)  -->
<svg version="1.1" id="Layer_1" xmlns="http://www.w3.org/2000/svg" xmlns:xlink="http://www.w3.org/1999/xlink" x="0px" y="0px"
	 viewBox="0 0 400.2 425" style="enable-background:new 0 0 400.2 425;" xml:space="preserve">
<style type="text/css">
	.st0{fill:#B9E2FE;}
	.st1{clip-path:url(#SVGID_2_);}
	.st2{fill:#00325C;}
	.st3{fill:url(#SVGID_3_);}
	.st4{fill:#FFFFFF;}
	.st5{fill:#111A56;}
	.st6{fill:#0079DB;}
	.st7{fill:#190097;}
	.st8{fill:#85BFED;}
</style>
<path class="st0" d="M400.2,389.3c0,19.7-13.8,35.7-30.9,35.7H30.9C13.8,425,0,409,0,389.3V35.7C0,16,13.8,0,30.9,0h338.4
	c17.1,0,30.9,16,30.9,35.7V389.3z"/>
<g>
	<defs>
		<path id="SVGID_1_" d="M400.2,366.7c0,18.6-13.8,33.6-30.9,33.6H30.9C13.8,400.3,0,385.3,0,366.7v-333C0,15.1,13.8,0,30.9,0h338.4
			c17.1,0,30.9,15.1,30.9,33.6V366.7z"/>
	</defs>
	<clipPath id="SVGID_2_">
		<use xlink:href="#SVGID_1_"  style="overflow:visible;"/>
	</clipPath>
	<g class="st1">
		<path class="st2" d="M159.5,263.5c0,0,58-9.4,91.5,7.4v20.3l-50.9,18.6l-35.5-24.4C164.6,285.3,157.4,275.7,159.5,263.5z"/>
		
			<linearGradient id="SVGID_3_" gradientUnits="userSpaceOnUse" x1="575.4255" y1="151.327" x2="575.4255" y2="411.5916" gradientTransform="matrix(1 0 0 -1 -375.3 426.34)">
			<stop  offset="0" style="stop-color:#FFFFFF"/>
			<stop  offset="0.13" style="stop-color:#F9FDFD"/>
			<stop  offset="0.31" style="stop-color:#E9F7F9"/>
			<stop  offset="0.51" style="stop-color:#CEEDF2"/>
			<stop  offset="0.72" style="stop-color:#A8DFE8"/>
			<stop  offset="0.95" style="stop-color:#78CDDB"/>
			<stop  offset="1" style="stop-color:#6CC9D8"/>
		</linearGradient>
		<path class="st3" d="M281.4,107.3c-0.3,11.5-0.5,25.1-1.2,39.3c-0.5,11.2-1.4,22.9-2.9,34.4c-0.8,6.2-1.8,12.4-3,18.4
			c-7,35.8-21.9,67-54,74.1c-4.1,0.9-8.2,1.4-12.4,1.5c-10.5,0.3-21-1.1-31.1-4.1c-15.9-4.7-30.7-13.8-38.4-28.9
			c-6.4-12.5-10.5-27.4-13.3-43.1c-1-5.9-1.9-12-2.5-18c-1.2-10.9-1.8-21.8-2.2-32c-0.1-2.4-0.1-4.7-0.2-7
			c-0.7-32.1-6.5-69.3,9.7-96.9c10.5-17.7,29.5-26.5,48.3-28c15.8-1.3,32.1-5,47.5,1.2c14.7,6,29.7,15.1,40.2,28
			C279.2,62.3,281.9,86,281.4,107.3z"/>
		<path class="st4" d="M293.9,178.8c-1.9,5.8-4.6,14.3-9.4,17.9c-2.7,2.1-6.7,2.9-10.2,2.7c3.4-17.3,5-35.6,5.8-52.8
			c7.4-3.3,16.9,2.3,17.8,11.7C298.7,165.2,296,172.3,293.9,178.8z"/>
		<path class="st5" d="M281.4,107.3c-0.3,11.5-0.5,25.1-1.2,39.3c-0.5,11.2-1.4,22.9-2.9,34.4h-13.3v-44.3
			c-16.1-9.9-13.6-26.3-13.6-26.3c-53.2,2.5-73.4-26.3-73.4-26.3c-9.9,51.5-41.7,56.1-41.7,56.1V181h-12.6
			c-1.2-10.9-1.8-21.8-2.2-32c-0.1-2.4-0.1-4.7-0.2-7c-0.7-32.1-6.5-69.3,9.7-96.9c10.4-17.8,29.5-26.5,48.3-28.1
			c15.8-1.3,32.1-5,47.5,1.2c14.7,6,29.7,15.1,40.2,28C279.2,62.3,281.9,86,281.4,107.3z"/>
		<path class="st6" d="M371.4,409.9H28.8c5.3-69.1,44.7-82.5,44.7-82.5l126.6-41.5l126.6,41.5C326.7,327.4,366.1,340.8,371.4,409.9z
			"/>
		<path class="st7" d="M220.4,304.7v10.5c-25.8,15.1-43.5,0-43.5,0v-10.5C176.9,304.7,194.6,319.8,220.4,304.7z"/>
		<path class="st4" d="M220.4,273.5v31.2c-25.8,15.1-43.5,0-43.5,0v-33.8c10.1,3,20.6,4.4,31.1,4.1
			C212.2,274.9,216.3,274.4,220.4,273.5z"/>
		<path class="st6" d="M44.1,322.4c-0.4,0-0.7-0.1-1-0.3c-0.8-0.6-1.1-1.8-0.5-2.7c4.9-8.2,14.7-15,22.3-18.2
			c3.5-1.5,7.5-1.6,11.4-1.7c5.5-0.2,10.7-0.3,14.3-3.9c1.3-1.4,2.3-3,3-4.7c1.4-2.9,3.1-6.1,7.1-7.7c3.3-1.3,6.5-0.6,9.5,0.1
			c1.7,0.5,3.4,0.7,5.1,0.8c4.1,0,7.1-1.8,8.6-4.8c1.7-3.6,1-8.6-1.9-12.9c-1.2-1.8-2.6-3.4-4.2-4.8c-2.5-2.5-5.1-5.1-6.4-10.1
			c-0.5-1.9-0.8-3.6-1-5.2c-0.6-4-1-6.4-4.8-9.1c-1.4-0.9-2.9-1.7-4.5-2.3c-3.3-1.3-7-2.8-9.2-8.2c-1.5-3.7-1.4-7.8-1.2-11.8
			c0.2-2.8,0.1-5.6-0.4-8.3c-1.3-5.6-3.8-10.5-6.2-15.3c-3.3-6.4-6.6-13.1-7.3-21.8c-0.6-7.5,1.2-14.3,3-20.8
			c1.6-5.7,3-11.2,2.9-16.9c-0.1-1,0.6-1.9,1.5-2c1-0.1,1.9,0.6,2,1.5c0,0.1,0,0.2,0,0.4c0.2,6.4-1.5,12.3-3,18.1
			c-1.8,6.5-3.4,12.6-2.9,19.4c0.6,7.9,3.7,13.9,6.9,20.3c2.5,4.9,5.1,10.1,6.5,16.2c0.6,3.1,0.8,6.3,0.5,9.4
			c-0.1,3.7-0.3,7.2,0.9,10.1c1.6,3.9,4,4.9,7.2,6.1c1.8,0.7,3.6,1.5,5.2,2.6c5.2,3.6,5.7,7.4,6.4,11.7c0.2,1.6,0.5,3.2,0.9,4.8
			c1,4,2.9,5.9,5.4,8.3c1.7,1.6,3.3,3.5,4.7,5.4c3.7,5.5,4.5,12,2.2,16.9c-2,4.4-6.3,6.9-11.7,7c-2,0-3.9-0.3-5.8-0.9
			c-2.8-0.6-5.2-1.2-7.5-0.3c-2.8,1.1-3.9,3.4-5.2,6c-0.9,2.1-2.2,4-3.8,5.7c-4.6,4.5-10.7,4.7-16.6,4.8c-3.8,0.1-7.3,0.2-10.3,1.4
			c-7.1,2.9-16.2,9.2-20.6,16.7C45.3,322.1,44.7,322.4,44.1,322.4z"/>
		<path class="st6" d="M38.4,295.3c-0.2,0-0.4,0-0.5-0.1c-1-0.3-1.6-1.3-1.3-2.3c0.2-0.8,0.9-1.4,1.7-1.5c1.5-1.2,2.9-2.6,4.2-4
			c3.2-3.3,6.8-7.1,9.8-8.1c4.5-1.5,9-0.7,13.2,0.1c2.2,0.5,4.4,0.7,6.6,0.8c2.4,0,6.4,0.1,8-1.9c0.5-0.6,0.5-1.9,0.4-3.3
			c-0.1-1.9-0.2-4.3,1.4-6c2.4-2.7,5.8-2.7,8.7-2.7c3.7,0.1,5.8-0.1,7-3.2c1-2.6-2-12.2-4.2-14.6c-1.9-2-4.4-2.2-7.3-2.4
			c-2.6-0.2-5.4-0.4-7.8-2.1c-4.6-3.1-4.9-8-5.2-12.4c-0.1-1.7-0.3-3.4-0.6-5c-0.8-3.6-2.5-5.6-4.4-8c-1.8-2-3.3-4.2-4.4-6.6
			c-2.9-6.3-1.5-12.4,0-18.3c1.4-5.9,2.7-11.3,0.4-17.2c-0.6-1.6-1.3-3-1.9-4.3c-1.8-3.8-3.6-7.4-2.8-13.5c0.6-4.5,2.7-8.9,4.8-13.1
			c1-2,1.9-3.9,2.7-5.8c0.3-0.9,1.3-1.4,2.2-1.1c0.1,0,0.1,0,0.2,0.1c0.9,0.5,1.3,1.6,0.9,2.5c-0.8,2-1.8,4.1-2.8,6.1
			c-1.9,3.9-3.9,7.9-4.4,11.8c-0.6,4.9,0.7,7.5,2.4,11.2c0.7,1.4,1.4,2.9,2,4.6c2.8,7.2,1.2,13.8-0.2,19.7
			c-1.4,5.7-2.5,10.6-0.2,15.6c1,2.1,2.4,4.1,3.9,5.8c2,2.5,4.2,5,5.2,9.6c0.4,1.8,0.6,3.7,0.7,5.6c0.3,4.5,0.6,7.4,3.6,9.4
			c1.7,1.2,3.9,1.3,6.2,1.5c3.1,0.2,6.7,0.5,9.5,3.5s6.8,14,5,18.7c-2.1,5.7-6.6,5.7-10.3,5.6c-2.5,0-4.8,0-6.2,1.5
			c-0.5,0.5-0.5,1.6-0.4,3.2c0.1,1.9,0.2,4.2-1.3,6c-2.7,3.4-7.7,3.3-10.7,3.2c-2.4-0.1-4.8-0.4-7.1-0.9c-4.1-0.7-7.9-1.4-11.6-0.2
			c-2.2,0.7-5.8,4.5-8.5,7.3C41.3,293.8,39.8,295.3,38.4,295.3z"/>
		<path class="st6" d="M356.4,332c-0.8,0-1.5-0.6-1.7-1.4c-1.9-6.4-6.6-11.5-12.8-13.9c-2.4-0.8-5.3-0.7-8.3-0.5
			c-3.8,0.2-7.6,0.4-11-1.3s-5.3-4.8-7.1-7.9c-1.7-2.8-3.3-5.4-5.9-6.5c-2.3-1.1-5.1-1.2-8-1.4c-3.5-0.2-7.2-0.4-10.6-2.3
			c-8.7-4.8-9.4-12.7-10-19.6c-0.4-4.9-0.8-9.4-3.6-13.4c-1-1.4-1.9-2.5-2.7-3.5c-2.7-3.2-4.6-5.5-4.4-12.8
			c0.2-6.6,2.1-8.7,4.7-11.6c0.8-0.9,1.8-2,2.8-3.4c1.9-2.6,2.7-5.3,3.5-8.2c0.7-2.9,1.8-5.7,3.3-8.3c2-3.1,4.9-5.1,7.7-7.1
			c1.9-1.3,3.8-2.7,5.4-4.4c6-6.5,5.5-16.9,5-26.9c-0.1-2.6-0.2-5.2-0.2-7.7c-0.1-1,0.6-1.8,1.6-1.9c1-0.1,1.8,0.6,1.9,1.6
			c0,0.1,0,0.3,0,0.4c0,2.4,0.1,4.9,0.2,7.5c0.5,10.4,1,22.1-6.1,29.8c-1.8,1.8-3.8,3.5-6,4.9c-2.6,1.9-5.1,3.6-6.7,6.1
			c-1.3,2.3-2.3,4.7-2.9,7.2c-0.9,3.1-1.8,6.3-4.2,9.5c-1.1,1.5-2.1,2.6-3.1,3.6c-2.4,2.6-3.6,3.9-3.7,9c-0.2,5.7,1.1,7.2,3.5,10
			c0.9,1,1.9,2.2,3,3.7c3.4,4.8,3.9,10.2,4.3,15.4c0.6,6.8,1.1,12.6,8.1,16.5c2.7,1.5,5.9,1.7,9.2,1.8c3.1,0.2,6.3,0.3,9.3,1.7
			c3.5,1.6,5.5,4.8,7.4,7.9c1.7,2.7,3.3,5.3,5.7,6.5s5.8,1.1,9.3,0.9c3.2-0.2,6.5-0.4,9.5,0.7c7,2.4,13.3,9.3,15.1,16.6
			c0.3,1-0.3,2-1.2,2.4C356.7,332,356.5,332,356.4,332z"/>
		<path class="st6" d="M338,297.6c-0.6,0-1.1-0.3-1.4-0.8c-2.5-3.9-6.3-5.2-10.2-6.6c-5-1.7-10.6-3.6-12.8-11.6
			c-0.5-2.2-0.8-4.4-0.8-6.6c-0.1-3.5-0.2-6.2-3-8.6c-1.3-1-2.8-1.6-4.4-1.9c-3.1-0.8-6.9-1.8-7.3-8.1c-0.2-3.5,1.3-6.3,2.8-9
			c1.3-2.4,2.5-4.6,2.5-7.1c0-1.6,0-2.9,0-4.1c-0.1-4.9,0-7.4,4.1-12.9c7.5-9.9,7.5-19.6,7.5-32.9V187c-0.1-1,0.7-1.8,1.6-1.9
			c1-0.1,1.8,0.7,1.9,1.6c0,0.1,0,0.2,0,0.3v0.4c0,13.6,0,24.4-8.3,35.4c-3.5,4.6-3.4,6.2-3.3,10.4c0,1.2,0.1,2.6,0,4.3
			c-0.1,3.5-1.6,6.4-3,9s-2.5,4.6-2.3,6.9c0.2,3.4,1.5,3.8,4.5,4.6c2.1,0.4,4.1,1.3,5.8,2.6c4,3.5,4.2,7.8,4.3,11.5
			c0,1.9,0.2,3.8,0.6,5.6c1.7,6,5.6,7.4,10.5,9c4.1,1.4,8.8,3,12,8c0.6,0.9,0.4,2-0.4,2.7C338.7,297.5,338.3,297.6,338,297.6z"/>
		<path class="st8" d="M281.4,313.3c-10,10.3-22.4,17.9-36.1,22c-13.6,4-28,4.2-41.6,0.6c-14.8-3.8-31.3-12.2-49-27.7
			c-2-1.7-4-3.6-6.1-5.5c0,0-10.2-22,10.9-39.3c0,0,33.7,48.4,91.5,7.4C251.1,270.9,278.8,277.7,281.4,313.3z"/>
		<path class="st8" d="M208.2,425h-46.4c4.8-58.6,1.8-89.1-2.5-105c-1-4.1-2.6-8.1-4.7-11.8c17.7,15.5,34.2,23.9,49,27.7
			c0.5,2,1,4.1,1.4,6.2C213.1,380.3,208.2,425,208.2,425z"/>
		<path class="st8" d="M311.6,425h-46c-2-44.1-10.3-69.6-17.1-83.5c-1.1-2.4-2.2-4.4-3.2-6.2c13.7-4.1,26.1-11.7,36.1-22
			C309.1,348.8,311.6,425,311.6,425z"/>
		<path class="st2" d="M203.7,335.9c0.5,2,1,4.1,1.4,6.2c-15.6-2.8-33.6-9-45.8-22c-1-4.1-2.6-8.1-4.7-11.8
			C172.4,323.7,188.9,332.1,203.7,335.9z"/>
		<path class="st2" d="M281.4,313.3c0,0-1.4,18.8-32.9,28.2c-1.1-2.4-2.2-4.4-3.2-6.2C259.1,331.2,271.5,323.7,281.4,313.3z"/>
	</g>
</g>
</svg>
