<svg id="Layer_1" data-name="Layer 1" xmlns="http://www.w3.org/2000/svg" xmlns:xlink="http://www.w3.org/1999/xlink" viewBox="0 0 440.73 509.78"><defs><style>.cls-1{fill:none;}.cls-2{fill:#b9e2fe;}.cls-3{clip-path:url(#clip-path);}.cls-4{fill:#fff;}.cls-5{fill:#0079db;}.cls-6{fill:#111a56;}</style><clipPath id="clip-path" transform="translate(40.73 52.25)"><path class="cls-1" d="M400,33.53V365.39c0,18.54-13.85,33.54-30.9,33.54H30.9c-17,0-30.9-15-30.9-33.54V33.53C0,15,13.85,0,30.9,0H369.1C386.15,0,400,15,400,33.53Z"/></clipPath></defs><path class="cls-2" d="M400,33.53V365.39c0,18.54-13.85,33.54-30.9,33.54H30.9c-17,0-30.9-15-30.9-33.54V33.53C0,15,13.85,0,30.9,0H369.1C386.15,0,400,15,400,33.53Z" transform="translate(40.73 52.25)"/><g class="cls-3"><path class="cls-4" d="M273.45,183.85a29,29,0,0,1-5.05,10.46l-13.76,11.87s-3.17,8.39.43,13.82a16,16,0,0,1,6.13,9.66c.1.64.19,1.31.24,2.07a20.32,20.32,0,0,1-3.16,11A17,17,0,0,1,261,252.3a12.79,12.79,0,0,1-.59,3.75,15.46,15.46,0,0,1-3.94,6.44,223.36,223.36,0,0,0,.88,37.57s5.93,39-25.92,39H157.23s-4.52,74.56,4.13,105.69H2.49l.87-3.95S24.22,367.24,19,307.24c0,0-3-24.81-13.23-58.05a354.2,354.2,0,0,0-25.38-62s-24-43-20.86-98.48c0,0,5.2-92.87,91.81-131.35,0,0,136.75-44.86,175.21,59.26,1.17,3.12,2.24,6.39,3.22,9.77,0,0,6.27,43.06,7.29,72.51,0,0,2.09,29.39,20.86,44.11C257.94,143,278.51,163.27,273.45,183.85Z" transform="translate(40.73 52.25)"/><path class="cls-5" d="M300.16,259.42C299.59,276.83,291,275,291,275c-10.77-.91-9.4-15.32-9.4-15.32a60.33,60.33,0,0,1,1.19-7.49v0a122,122,0,0,1,8.45-24.28c6.56,12.59,8.37,26.2,8.79,30.29C300.14,259,300.16,259.42,300.16,259.42Z" transform="translate(40.73 52.25)"/><path class="cls-6" d="M113.17,15.25c5.11,43.27-12.3,60.53-12.3,60.53l20.28,71.56-16.64,11.29c-21-79.1-58.7-40.36-58.7-40.36-32.57,13.34-19.93,88.81-19.93,88.81C27,232.41,15.47,244,5.79,249.19a354.2,354.2,0,0,0-25.38-62s-24-43-20.86-98.48c0,0,5.2-92.87,91.81-131.35,0,0,136.75-44.86,175.21,59.26C167.64,37.26,113.17,15.25,113.17,15.25Z" transform="translate(40.73 52.25)"/><path class="cls-6" d="M39.44,187.41c7.78,12.66,22.26,18.2,33.72,7.5,12.86-12,11.64-28.78,7.39-45.24-3.5-13.57-7.5-32.3-19.93-39.49-9.76-5.64-24.08-5.26-32,4.09C13.6,131.86,29.4,171.06,39.44,187.41Z" transform="translate(40.73 52.25)"/><path class="cls-5" d="M254.64,206.18l13.76-11.87a29,29,0,0,0,5.05-10.46C130.65,187.44,109.72,300,107.39,317.3h0v.06C75.29,366.5,63.91,422.23,60.45,444.75c-1,6.29-1.36,10-1.41,10.25l24.22,2.53c0-.16.49-4.86,1.75-12.78,3-18.25,10.65-53.66,28.35-88.91,32.3-64.17,81.7-97.73,147.06-99.79,2.19-7.13-2.14-13.3-2.14-13.3,3.07-5.23,3.55-9.61,2.92-13.09-53.1,1.31-92.44,21.16-121.52,48.61C154.75,248.61,186.8,213.35,254.64,206.18Z" transform="translate(40.73 52.25)"/><path class="cls-4" d="M42.08,179.41c7.78,12.66,22.26,18.19,33.71,7.5,12.87-12,11.64-28.79,7.4-45.25-3.5-13.56-7.5-32.3-19.94-39.48-9.76-5.64-24.08-5.26-32,4.08C16.24,123.85,32,163.05,42.08,179.41Z" transform="translate(40.73 52.25)"/></g></svg>