<svg id="Layer_1" data-name="Layer 1" xmlns="http://www.w3.org/2000/svg" xmlns:xlink="http://www.w3.org/1999/xlink" viewBox="0 0 400.24 418.36"><defs><style>.cls-1{fill:none;}.cls-2{fill:#b9e2fe;}.cls-3{clip-path:url(#clip-path);}.cls-4{fill:url(#linear-gradient);}.cls-5{fill:#fff;}.cls-6{fill:#111a56;}.cls-7{fill:#0079db;}.cls-8{fill:#190097;}.cls-9{fill:#ff1076;}</style><clipPath id="clip-path" transform="translate(0.24 -0.35)"><path class="cls-1" d="M400,366.26c0,18.54-13.84,33.57-30.91,33.57H30.67c-17.06,0-30.91-15-30.91-33.57V33.93C-.24,15.39,13.61.35,30.67.35H369.09c17.07,0,30.91,15,30.91,33.58Z"/></clipPath><linearGradient id="linear-gradient" x1="573.78" y1="284.13" x2="573.78" y2="24.42" gradientTransform="translate(-375.54)" gradientUnits="userSpaceOnUse"><stop offset="0" stop-color="#fff"/><stop offset="1" stop-color="#ff1076"/></linearGradient></defs><path class="cls-2" d="M400,366.26c0,18.54-13.84,33.57-30.91,33.57H30.67c-17.06,0-30.91-15-30.91-33.57V33.93C-.24,15.39,13.61.35,30.67.35H369.09c17.07,0,30.91,15,30.91,33.58Z" transform="translate(0.24 -0.35)"/><g class="cls-3"><path class="cls-4" d="M279.5,116.73c-.28,11.49-.46,25-1.17,39.25-.52,11.18-1.37,22.82-2.85,34.35-.81,6.2-1.76,12.32-3,18.34-7,35.72-21.9,66.85-54,73.94a63.11,63.11,0,0,1-12.37,1.48A100.51,100.51,0,0,1,175,280c-15.9-4.67-30.68-13.79-38.36-28.8-6.39-12.44-10.55-27.37-13.26-43-1-5.93-1.87-11.94-2.54-17.91-1.2-10.92-1.83-21.76-2.19-31.9-.07-2.37-.14-4.71-.17-7-.67-32-6.52-69.11,9.66-96.68,10.43-17.76,29.51-26.46,48.27-28,15.79-1.35,32.15-5,47.49,1.22,14.67,6,29.65,15.09,40.23,28C277.31,71.93,280,95.48,279.5,116.73Z" transform="translate(0.24 -0.35)"/><path class="cls-5" d="M123.41,208.24a8.12,8.12,0,0,1-1.73.39c-3.52.31-8-.42-10.89-2.68-4.69-3.6-7.51-12.1-9.35-17.85-2.08-6.43-4.72-13.51-4.09-20.48,1-10.26,12.2-16,19.82-10.45a12.15,12.15,0,0,1,1.51,1.26A363.81,363.81,0,0,0,123.41,208.24Z" transform="translate(0.24 -0.35)"/><path class="cls-5" d="M292.05,188.1c-1.87,5.75-4.65,14.25-9.38,17.85-2.68,2.1-6.73,2.87-10.15,2.72,3.42-17.23,5-35.5,5.81-52.69,7.44-3.33,16.93,2.26,17.77,11.64C296.78,174.59,294.09,181.67,292.05,188.1Z" transform="translate(0.24 -0.35)"/><path class="cls-6" d="M279.5,116.73c-.28,11.49-.46,25-1.17,39.25-.52,11.18-1.37,22.82-2.85,34.35H262.19V146.14c-16.15-9.88-13.58-26.23-13.58-26.23-53.24,2.49-73.44-26.23-73.44-26.23-9.91,51.35-41.68,56-41.68,56v40.63H120.87c-1.2-10.92-1.83-21.76-2.19-31.9-.07-2.37-.14-4.71-.17-7-.67-32-6.52-69.11,9.66-96.68,10.43-17.76,29.51-26.46,48.27-28,15.79-1.35,32.15-5,47.49,1.22,14.67,6,29.65,15.09,40.23,28C277.31,71.93,280,95.48,279.5,116.73Z" transform="translate(0.24 -0.35)"/><path class="cls-7" d="M369.51,418.72H26.94c5.29-68.92,44.67-82.32,44.67-82.32l126.62-41.47L324.84,336.4S364.22,349.8,369.51,418.72Z" transform="translate(0.24 -0.35)"/><path class="cls-8" d="M218.5,313.73v10.53c-25.81,15.05-43.47,0-43.47,0V313.73S192.69,328.78,218.5,313.73Z" transform="translate(0.24 -0.35)"/><path class="cls-5" d="M218.5,282.61v31.12c-25.81,15-43.47,0-43.47,0V280a100.51,100.51,0,0,0,31.1,4.09A63.11,63.11,0,0,0,218.5,282.61Z" transform="translate(0.24 -0.35)"/><path class="cls-5" d="M374.41,234.41c0,20.94-15.62,37.9-34.9,37.9s-34.94-17-34.94-37.9a38.82,38.82,0,0,1,15.55-31.55v-133c0-11.64,8.67-21.06,19.39-21.06S358.9,58.2,358.9,69.84v133A38.9,38.9,0,0,1,374.41,234.41Z" transform="translate(0.24 -0.35)"/><path class="cls-7" d="M339.5,244c-4.87,0-8.82-4.28-8.82-9.57V69.83c0-5.28,3.95-9.57,8.82-9.57s8.81,4.29,8.81,9.57V234.39C348.31,239.68,344.36,244,339.5,244Z" transform="translate(0.24 -0.35)"/><path class="cls-9" d="M348.31,212.5V107.37c0-5.29-3.95-9.57-8.81-9.57s-8.82,4.28-8.82,9.57V212.5c-7.76,3.69-13.19,12.1-13.19,21.89,0,13.2,9.85,23.9,22,23.9s22-10.7,22-23.9C361.5,224.6,356.07,216.2,348.31,212.5Z" transform="translate(0.24 -0.35)"/><path class="cls-6" d="M336.12,82.74a1.85,1.85,0,0,1-1.76,1.92H320.12V80.83h14.24A1.82,1.82,0,0,1,336.12,82.74Z" transform="translate(0.24 -0.35)"/><path class="cls-6" d="M336.12,101a1.83,1.83,0,0,1-1.76,1.92H320.12V99.1h14.24A1.84,1.84,0,0,1,336.12,101Z" transform="translate(0.24 -0.35)"/><path class="cls-6" d="M336.12,119.27a1.82,1.82,0,0,1-1.76,1.92H320.12v-3.83h14.24A1.84,1.84,0,0,1,336.12,119.27Z" transform="translate(0.24 -0.35)"/><path class="cls-6" d="M336.12,137.58a1.84,1.84,0,0,1-1.76,1.91H320.12v-3.83h14.24A1.82,1.82,0,0,1,336.12,137.58Z" transform="translate(0.24 -0.35)"/><path class="cls-6" d="M336.12,155.84a1.82,1.82,0,0,1-1.76,1.91H320.12v-3.83h14.24A1.85,1.85,0,0,1,336.12,155.84Z" transform="translate(0.24 -0.35)"/><path class="cls-6" d="M336.12,174.14a1.85,1.85,0,0,1-1.76,1.92H320.12v-3.83h14.24A1.82,1.82,0,0,1,336.12,174.14Z" transform="translate(0.24 -0.35)"/><path class="cls-6" d="M336.12,192.4a1.85,1.85,0,0,1-1.76,1.92H320.12v-3.83h14.24A1.82,1.82,0,0,1,336.12,192.4Z" transform="translate(0.24 -0.35)"/></g></svg>