<svg xmlns="http://www.w3.org/2000/svg" viewBox="0 0 500 500"><defs><style>.cls-1{isolation:isolate;}.cls-2{fill:#fefcff;}.cls-12,.cls-13,.cls-3,.cls-4,.cls-6,.cls-8,.cls-9{fill:#e8505b;}.cls-3{opacity:0.07;}.cls-19,.cls-26,.cls-3,.cls-5{mix-blend-mode:multiply;}.cls-4{opacity:0.1;}.cls-5{opacity:0.14;}.cls-11,.cls-7{fill:none;}.cls-11,.cls-13,.cls-7,.cls-9{stroke:#e8505b;stroke-linecap:round;stroke-linejoin:round;}.cls-7,.cls-8,.cls-9{opacity:0.74;}.cls-10{opacity:0.53;}.cls-12{opacity:0.58;}.cls-14{opacity:0.56;}.cls-15{fill:#493952;}.cls-16{fill:#e7997f;}.cls-17{fill:#e48a74;}.cls-18{fill:#ffffe2;}.cls-19{opacity:0.16;}.cls-20{fill:#b5543c;}.cls-21{fill:#3f5063;}.cls-22{fill:#374657;}.cls-23{fill:#e26c7a;}.cls-24{fill:#e27985;}.cls-25{fill:#cc6750;}.cls-26{opacity:0.29;}.cls-27{fill:#e5907b;}</style></defs><g class="cls-1"><g id="BACKGROUND"><rect class="cls-2" width="500" height="500"/><ellipse class="cls-3" cx="197.32" cy="452.14" rx="121.7" ry="11.35"/></g><g id="OBJECTS"><path class="cls-4" d="M184,392.39c19.77-15.71,39.9-31.63,63-40.61,13.19-5.12,27.06-7.86,40.64-11.65a276.23,276.23,0,0,0,61.51-25.58c10.67-6,21.13-12.91,29.34-22.38s14-21.86,13.92-34.78c-.13-14.48-7.46-29.31-2.62-42.83,3.91-10.91,14.8-17.52,19-28.33,5.76-15-3.41-31.81-14.47-42.84a102.34,102.34,0,0,0-37.78-24c-28.29-10.06-59.82-6.75-87.49-18.61-17.44-7.47-32.31-20.56-49.42-28.85-27.43-13.29-62.89-12-84.36,10.6-6,6.27-10.63,13.87-16.9,19.78-12.3,11.59-29.16,15.34-45,20s-32.5,11.58-41,26.56a41.91,41.91,0,0,0-.91,38.56c9,17.75,29.91,26.44,37,45.15,6.65,17.58-1.72,38.12-14.44,51.32-6.06,6.29-13.2,11.64-17.59,19.36-4.1,7.19-5.43,15.87-5.14,24.28.64,18.48,8.84,36.17,20.93,49.38S80,399.05,96.56,404.38s33.93,7.16,50.81,4c29.86-5.58,55.17-26.06,78.67-46.55"/><g class="cls-5"><path class="cls-6" d="M429.62,91.49c-13.58-13.06-26.74-12-45.42-9.55-19,2.53-36.64,13.69-55.8,12.89-12.68-.54-26.26-6.17-37.43-.15-10.33,5.56-13.69,18.77-14,30.51-.19,7.1.42,14.49,3.92,20.69,8.18,14.52,30.13,19.27,33.91,35.5,2.71,11.6-5.66,23.34-4.17,35.15,1.71,13.52,15.19,22,22.12,33.74,3.37,5.71,5.18,12.24,8.56,17.94,8.14,13.71,25.81,21,41.24,17s27.31-19,27.74-34.92c.09-3.64-.34-7.35.56-10.88,2.89-11.39,16.94-14.93,26.38-21.93a35.25,35.25,0,0,0,13.65-32.21c-.53-4.07-1.79-8.06-1.73-12.15.2-12.3,11.73-21.2,16.22-32.65,5.21-13.28-.72-30-13.15-37-7.53-4.25-16.29-4.07-21.56-10.93Z"/></g><line class="cls-7" x1="377.31" y1="151.64" x2="362.49" y2="158.03"/><line class="cls-7" x1="383.65" y1="132.96" x2="374.49" y2="119.68"/><line class="cls-7" x1="402.64" y1="165.59" x2="414.44" y2="186.02"/><line class="cls-7" x1="395.31" y1="161.15" x2="383.91" y2="180.54"/><line class="cls-7" x1="419.01" y1="151.56" x2="441.13" y2="145.91"/><circle class="cls-8" cx="397.62" cy="150.46" r="25.91" transform="translate(-18.31 238.46) rotate(-32.67)"/><path class="cls-8" d="M404.28,154.57a9.58,9.58,0,1,1,9.82-9.34A9.58,9.58,0,0,1,404.28,154.57Z"/><path class="cls-8" d="M396.73,163.39a3.38,3.38,0,1,1,3.47-3.29A3.37,3.37,0,0,1,396.73,163.39Z"/><path class="cls-8" d="M386.46,146.23a5.63,5.63,0,1,1,5.77-5.49A5.63,5.63,0,0,1,386.46,146.23Z"/><path class="cls-8" d="M371.86,121.63a5.63,5.63,0,1,1,5.77-5.49A5.63,5.63,0,0,1,371.86,121.63Z"/><line class="cls-7" x1="402.48" y1="111.08" x2="400.38" y2="128.92"/><path class="cls-8" d="M401.2,113.38a4.15,4.15,0,1,1,5.55-1.9A4.15,4.15,0,0,1,401.2,113.38Z"/><line class="cls-9" x1="421.15" y1="123.53" x2="413.49" y2="132.05"/><path class="cls-8" d="M419.63,124.26a2.64,2.64,0,1,1,3.59,1.06A2.64,2.64,0,0,1,419.63,124.26Z"/><path class="cls-8" d="M382.49,186.28a4.3,4.3,0,1,1,4.41-4.18A4.29,4.29,0,0,1,382.49,186.28Z"/><path class="cls-8" d="M360.49,163.54a4.89,4.89,0,1,1,5-4.77A4.89,4.89,0,0,1,360.49,163.54Z"/><path class="cls-8" d="M441.85,153.75a7.39,7.39,0,1,1,7.57-7.21A7.4,7.4,0,0,1,441.85,153.75Z"/><path class="cls-8" d="M416.1,192.9a4.89,4.89,0,1,1,5-4.77A4.9,4.9,0,0,1,416.1,192.9Z"/><g class="cls-10"><line class="cls-11" x1="261.52" y1="112.8" x2="252.48" y2="116.61"/><line class="cls-11" x1="265.39" y1="101.65" x2="259.8" y2="93.72"/><line class="cls-11" x1="276.98" y1="121.12" x2="284.18" y2="133.32"/><line class="cls-11" x1="272.51" y1="118.48" x2="265.55" y2="130.05"/><line class="cls-11" x1="286.97" y1="112.75" x2="300.47" y2="109.38"/><path class="cls-12" d="M273.52,127.55a15.47,15.47,0,1,1,16.21-15.07A15.62,15.62,0,0,1,273.52,127.55Z"/><path class="cls-6" d="M278,114.55a5.72,5.72,0,1,1,6-5.58A5.77,5.77,0,0,1,278,114.55Z"/><path class="cls-6" d="M273.38,119.81a2,2,0,1,1,2.11-2A2,2,0,0,1,273.38,119.81Z"/><path class="cls-6" d="M267.1,109.57a3.36,3.36,0,1,1,3.53-3.28A3.41,3.41,0,0,1,267.1,109.57Z"/><path class="cls-6" d="M258.19,94.89a3.37,3.37,0,1,1,3.53-3.28A3.41,3.41,0,0,1,258.19,94.89Z"/><line class="cls-11" x1="276.89" y1="88.59" x2="275.6" y2="99.24"/><path class="cls-6" d="M276.1,90A2.45,2.45,0,0,1,275,86.65a2.56,2.56,0,0,1,3.39-1.13,2.44,2.44,0,0,1,1.15,3.31A2.56,2.56,0,0,1,276.1,90Z"/><line class="cls-13" x1="288.28" y1="96.02" x2="283.6" y2="101.1"/><path class="cls-6" d="M287.35,96.46a1.56,1.56,0,0,1,.65-2.14,1.61,1.61,0,0,1,2.18.63,1.56,1.56,0,0,1-.64,2.14A1.65,1.65,0,0,1,287.35,96.46Z"/><path class="cls-6" d="M264.68,133.48a2.57,2.57,0,1,1,2.69-2.5A2.6,2.6,0,0,1,264.68,133.48Z"/><path class="cls-6" d="M251.25,119.9a2.92,2.92,0,1,1,3.06-2.85A2.95,2.95,0,0,1,251.25,119.9Z"/><path class="cls-6" d="M300.91,114.06a4.42,4.42,0,1,1,4.63-4.3A4.47,4.47,0,0,1,300.91,114.06Z"/><path class="cls-6" d="M285.2,137.43a2.92,2.92,0,1,1,3.06-2.85A3,3,0,0,1,285.2,137.43Z"/></g><g class="cls-14"><line class="cls-11" x1="321.07" y1="252.85" x2="315.44" y2="255.25"/><line class="cls-11" x1="323.49" y1="245.82" x2="320" y2="240.82"/><line class="cls-11" x1="330.71" y1="258.1" x2="335.19" y2="265.79"/><line class="cls-11" x1="327.92" y1="256.43" x2="323.58" y2="263.72"/><line class="cls-11" x1="336.93" y1="252.82" x2="345.34" y2="250.69"/><ellipse class="cls-12" cx="328.8" cy="252.4" rx="9.85" ry="9.75"/><path class="cls-6" d="M331.33,254a3.61,3.61,0,1,1,3.73-3.51A3.62,3.62,0,0,1,331.33,254Z"/><path class="cls-6" d="M328.46,257.27a1.27,1.27,0,1,1,1.32-1.24A1.27,1.27,0,0,1,328.46,257.27Z"/><path class="cls-6" d="M324.55,250.81a2.12,2.12,0,1,1,2.2-2.06A2.12,2.12,0,0,1,324.55,250.81Z"/><path class="cls-6" d="M319,241.55a2.12,2.12,0,1,1,2.2-2.06A2.12,2.12,0,0,1,319,241.55Z"/><line class="cls-11" x1="330.65" y1="237.58" x2="329.85" y2="244.3"/><path class="cls-6" d="M330.16,238.45a1.56,1.56,0,0,1-.72-2.09,1.59,1.59,0,0,1,2.11-.71,1.55,1.55,0,0,1,.72,2.09A1.59,1.59,0,0,1,330.16,238.45Z"/><line class="cls-13" x1="337.74" y1="242.27" x2="334.83" y2="245.47"/><path class="cls-6" d="M337.17,242.54a1,1,0,0,1,.4-1.34,1,1,0,0,1,1.36.39,1,1,0,0,1-.4,1.35A1,1,0,0,1,337.17,242.54Z"/><path class="cls-6" d="M323.05,265.88a1.62,1.62,0,1,1,1.67-1.57A1.61,1.61,0,0,1,323.05,265.88Z"/><path class="cls-6" d="M314.68,257.33a1.85,1.85,0,1,1,1.91-1.8A1.85,1.85,0,0,1,314.68,257.33Z"/><path class="cls-6" d="M345.62,253.64a2.78,2.78,0,1,1,2.88-2.71A2.79,2.79,0,0,1,345.62,253.64Z"/><path class="cls-6" d="M335.83,268.38a1.85,1.85,0,1,1,1.9-1.8A1.86,1.86,0,0,1,335.83,268.38Z"/></g><path class="cls-15" d="M146.11,210.54c-.06,0,.46-.9,1.26-2.51a34.25,34.25,0,0,0,2.56-7.14,39.34,39.34,0,0,0,1-11.17,46.48,46.48,0,0,0-2.74-13.46c-3.42-9.23-9-16.39-13.23-21.19-2.14-2.41-4-4.28-5.24-5.56L128.25,148c-.33-.34-.5-.53-.48-.55a3.58,3.58,0,0,1,.58.44c.36.32.89.77,1.56,1.39,1.33,1.21,3.22,3,5.42,5.42a76.37,76.37,0,0,1,7.09,8.9A58.47,58.47,0,0,1,148.85,176a45.66,45.66,0,0,1,2.74,13.68A38.42,38.42,0,0,1,150.41,201a30.78,30.78,0,0,1-2.8,7.15c-.4.81-.83,1.38-1.07,1.79A2.87,2.87,0,0,1,146.11,210.54Z"/><path class="cls-15" d="M50.14,262.67a3.8,3.8,0,0,1-.69-.48c-.43-.33-1.06-.82-1.86-1.47a73.44,73.44,0,0,1-6.52-5.86,31.78,31.78,0,0,1-7.21-10.81,21.81,21.81,0,0,1-1.48-7.59,16.38,16.38,0,0,1,2-8.08A23.31,23.31,0,0,1,39.63,222c2-1.78,4.1-3.28,6-4.74s3.81-2.85,5.42-4.28a49.13,49.13,0,0,0,4.19-4.3c2.41-2.78,4.15-5.21,5.39-6.86l1.41-1.91a3,3,0,0,1,.54-.64,4.3,4.3,0,0,1-.42.72c-.29.46-.73,1.13-1.31,2a85.83,85.83,0,0,1-5.23,7,45.37,45.37,0,0,1-4.18,4.4,68.67,68.67,0,0,1-5.42,4.37c-1.94,1.47-4,3-6,4.74A23,23,0,0,0,35,228.72a15.84,15.84,0,0,0-1.89,7.73,21.41,21.41,0,0,0,1.4,7.37,32.15,32.15,0,0,0,7,10.7c2.53,2.67,4.79,4.62,6.33,6l1.78,1.57A4,4,0,0,1,50.14,262.67Z"/><path class="cls-15" d="M51.1,260.3c-.05,0-.7-1-2.06-2.67A67.89,67.89,0,0,0,42.7,251c-1.41-1.34-3-2.78-4.62-4.38a50.54,50.54,0,0,1-4.95-5.41,29.88,29.88,0,0,1-4.09-7,19.21,19.21,0,0,1-1.51-8.61,14.31,14.31,0,0,1,3.24-8.1,21.9,21.9,0,0,1,6.37-5.08c4.57-2.51,9.09-3.72,12.68-5.17A33.62,33.62,0,0,0,57.9,203c1.72-1.31,2.5-2.24,2.55-2.19a3.66,3.66,0,0,1-.55.68,17.25,17.25,0,0,1-1.83,1.73A31.77,31.77,0,0,1,50,207.69c-3.59,1.53-8.08,2.79-12.54,5.28a21.37,21.37,0,0,0-6.15,4.95,13.61,13.61,0,0,0-3.08,7.71,18.71,18.71,0,0,0,1.46,8.3,29.36,29.36,0,0,0,4,6.89,51.6,51.6,0,0,0,4.84,5.4L43,250.64a60.44,60.44,0,0,1,6.22,6.82c.65.88,1.13,1.58,1.42,2.07A3.82,3.82,0,0,1,51.1,260.3Z"/><path class="cls-15" d="M68,179.1a4.07,4.07,0,0,1,.38-.65,10.49,10.49,0,0,0,1.06-1.83,18.87,18.87,0,0,0,1.65-7.53c.2-3.29-.13-7.23.11-11.65a20.53,20.53,0,0,1,1.52-6.79,13.39,13.39,0,0,1,2-3.16A12.29,12.29,0,0,1,77.58,145a17.65,17.65,0,0,1,7.12-2.31,31.51,31.51,0,0,1,6.94,0c4.39.52,8.22,1.49,11.5,1.9a29.8,29.8,0,0,0,7.78.23c1.83-.22,2.81-.53,2.83-.46a3.1,3.1,0,0,1-.7.26,15.15,15.15,0,0,1-2.09.47,22.23,22.23,0,0,1-3.39.28,37.46,37.46,0,0,1-4.49-.28c-3.32-.35-7.19-1.28-11.51-1.75a30.83,30.83,0,0,0-6.79,0A17.06,17.06,0,0,0,78,145.61a11.72,11.72,0,0,0-4.63,5.32,20.07,20.07,0,0,0-1.5,6.56c-.27,4.33,0,8.3-.26,11.63a18.25,18.25,0,0,1-1.91,7.63,8.57,8.57,0,0,1-1.18,1.79C68.16,178.92,68,179.12,68,179.1Z"/><path class="cls-15" d="M76.73,192.31a9.44,9.44,0,0,0,.1-3.83c-.46-2.43-2.39-5.68-5.88-8.46-1.74-1.39-3.82-2.71-5.93-4.32a18,18,0,0,1-5.65-6.35,11.7,11.7,0,0,1-1.1-4.53A13,13,0,0,1,59,160a18,18,0,0,1,5.87-8.18,22.57,22.57,0,0,1,9.17-4.16,45.65,45.65,0,0,1,9.32-1c3-.06,5.81,0,8.45.11l7.34.21,10.64.35,2.89.13a6.77,6.77,0,0,1,1,.09,5,5,0,0,1-1,.05h-2.9l-10.64-.12-7.35-.12c-2.64,0-5.46-.13-8.42-.05a46,46,0,0,0-9.17,1,22.12,22.12,0,0,0-8.89,4,17.51,17.51,0,0,0-5.66,7.85,12.62,12.62,0,0,0-.74,4.55,11.34,11.34,0,0,0,1,4.27,17.55,17.55,0,0,0,5.42,6.16c2.07,1.62,4.13,3,5.88,4.41,3.52,2.88,5.46,6.26,5.84,8.8a8.16,8.16,0,0,1,0,2.91A4.81,4.81,0,0,1,76.73,192.31Z"/><path class="cls-16" d="M139.36,201.89c-4.28-12.18,5.92-26.57,20.54-29,3.51-.58,7.19-.56,10.54-1.63,3.53-1.12,6.4-3.34,9.49-5.18,12.34-7.37,26.77-9.92,41.77-11,1.42,1.25,10.25.78,9.14,2.22-2.61,3.39-10.16,7.87-12.65,9.26-15.35,8.53-29,16.39-43.93,25.47-5.33,3.24-10.71,6.53-14.94,10.8a26.31,26.31,0,0,1-4,3.7,12,12,0,0,1-12,.23c-3.51-2.1-5.17-6.21-3.91-9.71"/><path class="cls-17" d="M225.05,156a117.18,117.18,0,0,1-10.24,8.21C207,169.77,198,173.61,189,177c-17.51,6.56-36.16,12-49.31,26a9,9,0,0,0,3.54,3.88,12,12,0,0,0,12-.23,26.31,26.31,0,0,0,4-3.7c4.23-4.27,9.61-7.56,14.94-10.8,14.9-9.08,28.58-16.94,43.93-25.47,2.49-1.39,10-5.87,12.65-9.26C231.57,156.41,228,156.29,225.05,156Z"/><path class="cls-17" d="M239.53,140.42c-.45.58-.89,1.16-1.35,1.73a118.6,118.6,0,0,1-16.5,16.73,5.18,5.18,0,0,0,2.06,1.22c3.29,1,6.65-2.17,9.36-5.09s5.83-6.34,7.07-10.64c.39-1.35.5-3.09-.42-3.82Z"/><path class="cls-16" d="M233.29,245.86c-4.08-11.2-14.4-20.11-24.72-17.84-7.53,1.65-13.29,8.51-18.51,15-4.19,5.23-6.4,7.58-10.59,12.81l-.56,1.8a555.76,555.76,0,0,1-2.48,167.23c-4.36,11.29-13,18.32-27.1,23.5-1.25.46-2.66,1.67-2.16,2.92a2.26,2.26,0,0,0,1.67,1.14c3.63.85,12.68.88,16.25-.19,5-1.52,9-3.26,14.27-3.59s10.76-1.41,14.64-5a5.73,5.73,0,0,0,2.07-3.73c.06-1.54-.86-2.9-1.55-4.27-2.74-5.47-1.93-12.06-.27-18,.36-1.27.76-2.53,1.16-3.78,3.72-6.87,5.42-13,9.08-21.18,5.77-13,15.44-23.8,13.34-42.08-.69-6.06-1.63-10.4.5-18,1.82-6.49,5.21-12.74,7.49-19a185.67,185.67,0,0,0,8.58-31.94C236.49,269.85,237.38,257.07,233.29,245.86Z"/><path class="cls-18" d="M192.94,424c-.53.14-1.06.28-1.59.4a36.22,36.22,0,0,1-8.68,1,21.15,21.15,0,0,1-4.55-.57c-.54-.13-1.08-.28-1.62-.43,0,.16,0,.31-.07.47-4.36,11.29-13,18.32-27.1,23.5-1.25.46-2.66,1.67-2.16,2.92a2.26,2.26,0,0,0,1.67,1.14c3.63.85,12.68.88,16.25-.19,5-1.52,9-3.26,14.27-3.59s10.76-1.41,14.64-5a5.73,5.73,0,0,0,2.07-3.73c.06-1.54-.86-2.9-1.55-4.27A20.33,20.33,0,0,1,192.94,424Z"/><path class="cls-17" d="M233.29,245.86c-4.08-11.2-14.4-20.11-24.72-17.84-7.53,1.65-13.29,8.51-18.51,15-4.19,5.23-6.4,7.58-10.59,12.81l-.56,1.8a555.89,555.89,0,0,1-.85,156.71,28.79,28.79,0,0,0,12.74,3.32c1.14.07,2.29.09,3.43.1a.29.29,0,0,0,0-.09c.36-1.27.76-2.53,1.16-3.78,3.72-6.87,5.42-13,9.08-21.18,5.77-13,15.44-23.8,13.34-42.08-.69-6.06-1.63-10.4.5-18,1.82-6.49,5.21-12.74,7.49-19a185.67,185.67,0,0,0,8.58-31.94C236.49,269.85,237.38,257.07,233.29,245.86Z"/><path class="cls-15" d="M107.1,143.66c-7.23,4.79-14.43,5.13-22.46,6.62s-16.89,5.29-19.13,13.14c-2,7,2.18,14.55.73,21.69-1.22,6-6,10.4-10.1,14.93a78.15,78.15,0,0,0-16.61,29.38c-2.89,9.48-3.87,20.07.3,29.06S54.48,274,64,271.13c6.93-2.08,11.82-8.36,18.46-11.24,14.83-6.42,32.34,5.91,47.74,1,11.55-3.66,18.23-16.22,19.49-28.28s-1.65-24.11-3-36.16c-1.43-12.48-1.4-25.73-7.78-36.55-7.12-12.06-17.47-19-31.23-16.41Z"/><g class="cls-19"><path class="cls-20" d="M56.14,200q-1.55,1.72-3,3.54a20.7,20.7,0,0,1,9.27-4.86c2.05-.41,4.24-.62,6.06-1.72a9.69,9.69,0,0,0,4-4.05c3.79-7.72-4-14.26-6.45-20.87a16.86,16.86,0,0,1-.9-6.63c-.83,6.42,2.44,13.2,1.13,19.66C65,191.08,60.21,195.51,56.14,200Z"/></g><g class="cls-19"><path class="cls-20" d="M130.51,217.71c-.59.85-1.84.29-2-.62a1.17,1.17,0,0,1,.74-2.05c1.19-2.56,2.26-5.18,3.22-7.83a70.6,70.6,0,0,0,4.38-19.81c.29-5.6-.39-11.56-3.34-16.41-.24,3.33-.08,6.69,0,10,1.08.2,1,2-.27,2.25a1.22,1.22,0,0,1-1.57.13,79.34,79.34,0,0,1-9.37-.36,39.71,39.71,0,0,0-11.41.66c-2.76.61-5.59.84-8.35,1.43-2.51.54-5.49,1.3-7.13,3.46a1.14,1.14,0,0,1-.22.22,2.19,2.19,0,0,0-.3,1.78,8.19,8.19,0,0,0,1.93,2.46,9.19,9.19,0,0,1,2,3.22,9.9,9.9,0,0,1-1.4,8.33c-1.65,2.62-3.93,4.75-5.84,7.16a48.18,48.18,0,0,0-5.82,9.7A49.13,49.13,0,0,0,82,232.87c-.66,3.47-1.09,7-1.69,10.47-1.2,7-3.22,14.56-8.57,19.67a14.21,14.21,0,0,1-8.22,4.06,15.06,15.06,0,0,1-8.63-1.87c-5.62-3-10.23-8.4-13.15-14a39.5,39.5,0,0,1-4.1-13.52c-1.11,7.08-.77,14.34,2.21,20.78C44,267.47,54.48,274,64,271.13c6.93-2.08,11.82-8.36,18.46-11.24,14.83-6.42,32.34,5.91,47.74,1,11.55-3.66,18.23-16.22,19.49-28.28a66.13,66.13,0,0,0,.15-11C143.34,220.51,136.86,219.4,130.51,217.71Z"/></g><path class="cls-15" d="M129.82,151.79a22.72,22.72,0,0,0-31.1-4.29,45.12,45.12,0,0,0-6.26,5.87A15.51,15.51,0,0,0,89,158.06a12.87,12.87,0,0,0-.77,4.36,39.44,39.44,0,0,0,4.15,19.32,14,14,0,0,0,4.12,5.33,17.16,17.16,0,0,0,5.2,2.17l5.73,1.67a17.12,17.12,0,0,0,4.35.86c3.92.08,7.44-2.58,9.68-5.8s3.47-7,5.08-10.58c2.1-4.66,4.91-9.13,5.61-14.2s-1.58-11.07-6.5-12.45"/><path class="cls-15" d="M192.74,427.8a87.3,87.3,0,0,1-17.84.52c-4.72,9.31-13,15.42-25.57,20.05-1.25.46-2.66,1.67-2.16,2.92a2.26,2.26,0,0,0,1.67,1.14c3.63.85,12.68.88,16.25-.19,5-1.52,9-3.26,14.27-3.59s10.76-1.41,14.64-5a5.73,5.73,0,0,0,2.07-3.73c.06-1.54-.86-2.9-1.55-4.27A18,18,0,0,1,192.74,427.8Z"/><path class="cls-21" d="M178.54,411.21l1.45.56a104.92,104.92,0,0,0,15.11,3.85c4.43-7.61,5.42-14,9.39-22.9,5.77-13,15.44-23.8,13.34-42.08-.69-6.06-1.63-10.4.5-18,1.82-6.49,5.21-12.74,7.49-19a185.67,185.67,0,0,0,8.58-31.94c2.09-11.92,3-24.7-1.11-35.91s-14.4-20.11-24.72-17.84c-7.53,1.65-13.29,8.51-18.51,15-4.19,5.23-6.4,7.58-10.59,12.81l-.56,1.8A555.88,555.88,0,0,1,178.54,411.21Z"/><path class="cls-22" d="M180,411.77l.88.29c1.39-6.07,2.74-12.14,3.95-18.25a256.54,256.54,0,0,0,4.59-37c.63-12.49.76-25,.46-37.52s-1.33-24.72-1.93-37.1c-.3-6.25-.53-12.55-1.81-18.7-.82-4-2.29-7.74-3.46-11.6-1,1.16-2,2.42-3.2,3.91l-.56,1.8a555.88,555.88,0,0,1-.37,153.57Z"/><path class="cls-22" d="M230.31,259a2.83,2.83,0,0,1,.08.29c.07.14.14.27.22.4l.1.13a1.22,1.22,0,0,0,.15.17,7.38,7.38,0,0,0,2.2,1.58,22.94,22.94,0,0,0,3.05,1.34c.07-2,.06-4-.05-6-.67.14-1.34.28-2,.44-1.05.26-2.11.53-3.13.88l-.47.17-.08.05c0,.08-.05.16-.07.23S230.35,259,230.31,259Z"/><path class="cls-22" d="M221.83,323.26c-.54.82-1.08,1.63-1.6,2.46a49.82,49.82,0,0,0-6.36,13.65c-1.24,4.79-.73,10.09.14,14.9.71,4,1.76,7.84,2.78,11.74a41.34,41.34,0,0,0,1-15.37c-.69-6.06-1.63-10.4.5-18A75.79,75.79,0,0,1,221.83,323.26Z"/><path class="cls-17" d="M102.37,188.88a4.12,4.12,0,1,1-4.11-4.11A4.11,4.11,0,0,1,102.37,188.88Z"/><path class="cls-15" d="M235.53,195.75c-5.81.33-13-.88-14.95-6.36-1.19-3.33.17-7.16,2.57-9.76s5.65-4.22,8.88-5.67a81.77,81.77,0,0,1,19.23-6.31c4.79-.84,11.31.14,12.11,4.95.37,2.21-.75,4.38-2,6.24-7,10.5-15.69,17.45-28.31,16.74"/><g class="cls-19"><path class="cls-20" d="M262.66,170.73a35.12,35.12,0,0,0-6,.49,44.42,44.42,0,0,0-12.9,4.61,39.31,39.31,0,0,0-10.35,8,39.86,39.86,0,0,0-7.31,10.1l-.24.53a23.13,23.13,0,0,0,9.62,1.27l-2.47-.17c12.62.71,21.27-6.24,28.31-16.74,1.25-1.86,2.37-4,2-6.24A5.13,5.13,0,0,0,262.66,170.73Z"/></g><path class="cls-16" d="M250.51,189a45,45,0,0,0-10.62-6.42c-3.14-1.27-6.89-2.2-10.17-.87-3,1.23-7.07,5.79-4.46,9,1.63,2,4,3.36,5.78,5.2.64.65,1.27,1.33,1.91,2,7.08-.6,12.81-3.81,17.72-8.74Z"/><path class="cls-18" d="M227.91,186.51a20.32,20.32,0,0,1,7.5-5.25,10.48,10.48,0,0,0-5.69.44c-3,1.22-7,5.71-4.52,8.88A16.05,16.05,0,0,1,227.91,186.51Z"/><path class="cls-17" d="M127.71,207.34c-12.37,3-11.12,17.32-11.9,27.46-.22,2.85-6.36,5.32-8.17,7.54-2.35,2.87-3,3.91-4.86,11.76a40.89,40.89,0,0,1-.49-14.67c.37-2.45,1-4.91.72-7.38s-1.56-5-3.88-5.9-4.89.13-6.58,1.85a15.34,15.34,0,0,0-3.31,6.36c-3.6,11.7-3.06,24.36-.55,36.34.77,3.65,2.13,7.76,5.59,9.17,4.4,1.79,9-1.9,12.3-5.29l19.69-20.06c5.94-6.05,12-12.32,15.21-20.18s2.8-17.8-3.2-23.79a10.53,10.53,0,0,0-7.33-3.39c-2.76,0-5.59,1.9-6.1,4.62"/><path class="cls-23" d="M138.28,210.55a10.53,10.53,0,0,0-7.33-3.39,6.78,6.78,0,0,0-4,1.44l.81-1.26c-12.37,3-11.12,17.32-11.9,27.46-.12,1.51-1.9,2.92-3.82,4.24,2.24,4.16,4.7,8.2,7,12.34,1.26,2.3,2.44,4.64,3.5,7l3.81-3.89c5.94-6.05,12-12.32,15.21-20.18S144.28,216.54,138.28,210.55Z"/><path class="cls-16" d="M119.84,204.45c1.51,6.45,2.58,20.24,4,32.35.79,6.4,2.31,13.88,8.17,16.58,2.8,1.3,6,1.16,9.1,1.12a116.19,116.19,0,0,1,33.58,4.5c1.47.42,3.1.86,4.45.14a5.84,5.84,0,0,0,2.2-2.83q5-10.4,9-21.2c.68-1.82,1.33-3.9.46-5.63-.79-1.55-2.54-2.3-4.09-3.08-14.67-7.31-21.66-25.94-37-31.65-5.51-2.05-11.51-2.17-17.39-2.27a23.46,23.46,0,0,0-11.17,2.16c-2.74,1.39-3.65,2.31-1.36,9.85Z"/><path class="cls-17" d="M121.07,201.5a29.05,29.05,0,0,0,5.66-.42,16.66,16.66,0,0,0,5.21-1.5,6.73,6.73,0,0,0,3.73-7l-3.29-.07a23.46,23.46,0,0,0-11.17,2.16c-2.29,1.16-3.29,2-2.24,6.62A10,10,0,0,0,121.07,201.5Z"/><path class="cls-24" d="M156.49,179.26a48.15,48.15,0,0,1-1.57-5c-11.55,4.33-18.94,16.26-15.82,26.81a8.85,8.85,0,0,0,4.17,5.75,12,12,0,0,0,12-.23,26.31,26.31,0,0,0,4-3.7,49.94,49.94,0,0,1,7.12-5.83A73.58,73.58,0,0,1,156.49,179.26Z"/><path class="cls-21" d="M184.09,254.88c-6.78-16.87,1.79-32.35,15.18-41,5.37-3.49,12.52-6.26,21.78-9.55,1.52-.54,3.31-.64,4.39-1.85s1.21-2.65,1.53-4.09c2.68-12,14.39-20.42,26.48-22.94s24.6-.35,36.76,1.81c4.64.83,10.27,2.59,11.1,7.23s-3.66,8.13-7.3,11c-21.29,16.91-29.81,48.1-54.39,59.72-17.74,8.38-38.59,3.93-57.67-.67"/><path class="cls-22" d="M182,254.51l2.29.55a54.17,54.17,0,0,0,11.28-13,34.92,34.92,0,0,0,3.85-9.6,40.81,40.81,0,0,1,2.91-9,21.38,21.38,0,0,1,9.79-9.29c4-2,8.39-3.15,12.58-4.72s8.26-3.71,11.09-7.28c4-5.08,7.16-10.79,11.32-15.76a40.21,40.21,0,0,1,6.92-6.63,49.6,49.6,0,0,1,9.64-5.22l.68-.3a56.59,56.59,0,0,0-10.85,1.12c-12.09,2.52-23.8,10.89-26.48,22.94-.32,1.44-.55,3-1.53,4.09s-2.87,1.31-4.39,1.85c-9.26,3.29-16.41,6.06-21.78,9.55-13.39,8.69-22,24.17-15.18,41Z"/><path class="cls-16" d="M91.7,161c.54,14.56,3.09,28.68,18.42,36.8,4.35,2.31,9.67,3.72,14.14,1.67a15.53,15.53,0,0,0,5-4c10.89-12.31,9.66-31.69-1.85-43.43-5.53-5.64-11.46-7.3-19.28-6.2S92.24,153,91.72,160.91Z"/><path class="cls-17" d="M119.9,199.75a16.91,16.91,0,0,1-13.37-6.57c-2.73-3.32-5.5-7.13-6.44-11.4a7.7,7.7,0,0,1,.4-5.43c1.15-2,3.73-2.65,5.82-3.27a25.12,25.12,0,0,0,8.3-4.08,10.66,10.66,0,0,0,3.06-3.11,4.58,4.58,0,0,1,1.88-2.25,1.19,1.19,0,0,1,1.57.41c.14.24.33.77.57.84a5,5,0,0,0,2.21-.37,22.85,22.85,0,0,0,5.48-2.08,7.45,7.45,0,0,0,3.35-3.26,32.17,32.17,0,0,0-5.29-7.17c-5.53-5.64-11.46-7.3-19.28-6.2S92.24,153,91.72,160.91l0,.08c.54,14.56,3.09,28.68,18.42,36.8,4.35,2.31,9.67,3.72,14.14,1.67a12.4,12.4,0,0,0,1.13-.62A19.19,19.19,0,0,1,119.9,199.75Z"/><path class="cls-15" d="M96.07,175.88c-.67-5.1-1.46-9.35.91-13.95a24.36,24.36,0,0,1,9.69-9.82,30.42,30.42,0,0,1,16.75-3.83c-4.49-3.05-9.42-3.86-15.46-3-7.93,1.15-16.14,7.54-16.67,15.76l0,.09c.28,7.82,2,17.43,4.8,24.22a3.64,3.64,0,0,1,2.83-.49C98,182.59,96.4,178.38,96.07,175.88Z"/><path class="cls-18" d="M136.79,174.4a50.51,50.51,0,0,1-21.16,10.06,69.34,69.34,0,0,1-11.95,1.09,31.6,31.6,0,0,1-6.75-.47c.4.75.86,1.47,1.33,2.19a26,26,0,0,1,7.94,1.84c3.75,1.49,9.51,4.06,8.31,9.11a5,5,0,0,1-.48,1.26c3.4,1.14,7,1.45,10.23,0a15.53,15.53,0,0,0,5-4A30.54,30.54,0,0,0,136.79,174.4Z"/><path class="cls-17" d="M102.87,236c.33-1.16,1.18-4.58,1.29-5.11a19.8,19.8,0,0,1,1.49-3.91,7.51,7.51,0,0,1,3.37-2.67,11.23,11.23,0,0,0,3.1-2.58c2.11-2.24,4.39-5,3.73-8-.51-2.35-.18-4.4-4.47-5.62a26.16,26.16,0,0,0-3.62-1.08,12.07,12.07,0,0,1-3.13-1.37c-1.56-.88-2.64-.19-3.42,1a35.6,35.6,0,0,0-3.13,6.23c-1.45,3.27-2.47,5.59-3.92,8.87-1.18,2.68-2.94,6.77-4.65,11.77Z"/><path class="cls-25" d="M103.5,213.54a9.06,9.06,0,0,1,.51.88,9.64,9.64,0,0,0,.65,1,4.66,4.66,0,0,0,.47.54,1.43,1.43,0,0,0,.27.23l.36.19c.51.24,1.1.54,1.71.78.31.11.65.21,1,.32l.54.19.28.1h0a1.94,1.94,0,0,0,.31-.37c.07-.08.14-.17.23-.26A.72.72,0,0,1,110,217l.08-.06c.14-.12.29-.25.43-.39a2.53,2.53,0,0,0,.37-.42c.23-.32.43-.69.67-1.07s.65-.8.7-1a7.9,7.9,0,0,0-.07-1.18c0-.46-.09-.89-.07-1.34a3,3,0,0,1,.34-1.34,1.71,1.71,0,0,1,1.18-.84,1.47,1.47,0,0,1,1.27.53,5,5,0,0,1,.64.95,6,6,0,0,1,.59,1.91,8,8,0,0,1-.17,2.83,2.48,2.48,0,0,1-.35,1,3.9,3.9,0,0,1,.08-1,8.92,8.92,0,0,0-.06-2.7,5.78,5.78,0,0,0-.61-1.71c-.31-.53-.78-1.23-1.29-1.11s-.93.78-.93,1.56c0,.4.06.82.08,1.23,0,.22,0,.42.06.64a1.86,1.86,0,0,1,0,.81,1.77,1.77,0,0,1-.42.68,5.74,5.74,0,0,0-.36.5c-.22.36-.43.74-.7,1.11a3.66,3.66,0,0,1-.46.51,4.93,4.93,0,0,1-.49.42,1,1,0,0,1-.17.12l0,0a1.52,1.52,0,0,0-.17.18,2,2,0,0,1-.48.5.6.6,0,0,1-.57.06l-.25-.11-.52-.19c-.34-.12-.68-.23-1-.37a17.55,17.55,0,0,1-1.74-.88l-.38-.23a1.51,1.51,0,0,1-.34-.32,4.7,4.7,0,0,1-.46-.62,8.48,8.48,0,0,1-.58-1.07C103.49,213.94,103.45,213.55,103.5,213.54Z"/><path class="cls-25" d="M110.16,213c0,.08-.26.37-.83.76l-.47.32a.74.74,0,0,1-.48.11.64.64,0,0,1-.45-.41,4.39,4.39,0,0,0-.77-1.07,6.15,6.15,0,0,0-1-.88c-.33-.2-.72-.37-1-.51-.6-.3-.95-.48-.94-.56s.47-.1,1.12.09a6.19,6.19,0,0,1,1.16.42,4.87,4.87,0,0,1,1.2,1,4,4,0,0,1,.87,1.3c0,.05,0,.07,0,.08s-.08.09-.07.06v-.09h0l.1,0,.48-.23C109.7,213.05,110.1,212.92,110.16,213Z"/><path class="cls-25" d="M109.47,211.05c.13.16-.23.68-.49,1.36s-.39,1.31-.59,1.33-.42-.73-.07-1.59S109.36,210.9,109.47,211.05Z"/><path class="cls-15" d="M129.6,173.58c0,.89-.49,1.62-1.08,1.62s-1.08-.73-1.08-1.62.48-1.62,1.08-1.62S129.6,172.68,129.6,173.58Z"/><path class="cls-15" d="M110.24,177.89c0,.89-.48,1.62-1.08,1.62s-1.08-.73-1.08-1.62.49-1.62,1.08-1.62S110.24,177,110.24,177.89Z"/><path class="cls-15" d="M102.15,173.17c0-.28.55-.6,1.52-.72a7.13,7.13,0,0,1,1.72,0,11.9,11.9,0,0,1,2,.47,5.6,5.6,0,0,0,2.81.37c.71-.13,1.22-.41,1.46-.22s.11.89-.81,1.57a3.5,3.5,0,0,1-1.88.63,6.46,6.46,0,0,1-2.19-.32c-.69-.21-1.25-.42-1.77-.58s-1-.32-1.42-.44C102.73,173.69,102.17,173.47,102.15,173.17Z"/><path class="cls-15" d="M131,166.59c.16.26,0,.68-.27,1.33a8,8,0,0,1-.58,1.21,4.1,4.1,0,0,1-1.43,1.46,3.67,3.67,0,0,1-2.07.46,4.29,4.29,0,0,1-1.48-.35c-.77-.34-1.14-.73-1.07-1s.6-.41,1.33-.47a5.43,5.43,0,0,0,2.23-.47A17,17,0,0,0,129.5,167C130.17,166.44,130.81,166.34,131,166.59Z"/><path class="cls-25" d="M122.76,180.65c-.06-.1.41-.34.73-1a1.11,1.11,0,0,0,.05-1,.85.85,0,0,0-1-.4.6.6,0,0,0-.23.2,1,1,0,0,1-.59.33,1.72,1.72,0,0,1-1-.33,3.25,3.25,0,0,1-1-1.08c-.43-.75-.37-1.3-.29-1.31s.24.46.7,1a3.42,3.42,0,0,0,1,.81,1.54,1.54,0,0,0,.55.2s0,0,.14-.11a1.44,1.44,0,0,1,.44-.37,1.32,1.32,0,0,1,1.15,0,1.49,1.49,0,0,1,.53,2.3C123.36,180.67,122.77,180.72,122.76,180.65Z"/><path class="cls-15" d="M122.85,150.44a35.15,35.15,0,0,1-11.19,19.34,5.72,5.72,0,0,1-2,1.27,6.43,6.43,0,0,1-1.81.17l-10.56-.07c4.38-4,9-8.25,10.49-14,.63-2.37.72-4.95,2-7.07a7.3,7.3,0,0,1,11.43-1.52c1.08,1.06,1.59,3.24.19,3.83"/><path class="cls-15" d="M110.84,150.64A68.51,68.51,0,0,1,91.08,170.4c-1.37.86-4.48.79-6,1.37a12.47,12.47,0,0,1-8.33.17A57.31,57.31,0,0,0,92.5,159.11c2.21-2.58,4.25-5.4,7.11-7.24a13.52,13.52,0,0,1,7.8-2.11c.27,0,1.11.13,1.37.1,1-.11,2.21.42,2.25.68"/><path class="cls-15" d="M118.63,146.19a9.17,9.17,0,0,1,6.11.89,21,21,0,0,1,5,3.74,5,5,0,0,1,1.17,1.42,5.21,5.21,0,0,1,.25,2.83c-.2,1.91-.56,4-1.95,5.31-1.72,1.65-4.39,1.64-6.77,1.52a13,13,0,0,0,1.46-4.34,5.94,5.94,0,0,0-1.1-4.35c-.91-1.12-2.3-1.75-3.34-2.75a6.28,6.28,0,0,1-1.9-4.68,4.59,4.59,0,0,1,2.11.26"/><path class="cls-24" d="M192.82,226.16c-2.16-.39-4.48,1-6,.24-14.67-7.31-21.66-25.94-37-31.65a38.62,38.62,0,0,0-11.46-2.09,18.08,18.08,0,0,1-2.2,8.81c-2.85,5.12-9.82,9.68-15.49,7.61.67,8.48,2.3,19.75,3.27,27.72.79,6.4,2.31,13.88,8.17,16.58,2.8,1.3,6,1.16,9.1,1.12a115.85,115.85,0,0,1,33.58,4.5,8.83,8.83,0,0,0,4.45.14c3.06-.69,6.7-4.76,7.37-5.78a50.32,50.32,0,0,0,7.23-15.85C194.33,235.65,194.72,226.51,192.82,226.16Z"/><g class="cls-26"><path class="cls-24" d="M179.25,251.83a30.08,30.08,0,0,0-8.89-4,32.43,32.43,0,0,0-10.58-.69c-8,.55-17.06,2.91-24.5-1.26-5.62-3.14-7.2-9.49-8.61-15.28-1.7-7.05-3.55-14.07-4.91-21.19a9.72,9.72,0,0,1-1.14-.32c.67,8.48,2.3,19.75,3.27,27.72.79,6.4,2.31,13.88,8.17,16.58,2.8,1.3,6,1.16,9.1,1.12a115.85,115.85,0,0,1,33.58,4.5,8.83,8.83,0,0,0,4.45.14c1.77-.4,3.74-1.94,5.21-3.36A45.93,45.93,0,0,0,179.25,251.83Z"/></g><path class="cls-16" d="M239.75,140.55c-.4-.31-.91-.36-1.33-.64a2.49,2.49,0,0,1-.62-2.95c-1-.75-2.37-.4-3.6-.41a2.42,2.42,0,0,1-2.61-2.32c0-.41.15-.83.16-1.24a1.9,1.9,0,0,0-1.67-2,3.6,3.6,0,0,0-2.51,1.16c-2.08,1.92-3.32,4.87-4.48,7.71-.46,1.13-.89,2.11-1.29,3a12.19,12.19,0,0,1-.14-1.59c0-1,.19-2.06.19-3.09,0-2.94-1.57-4.72-3.08-7.24a1.08,1.08,0,0,0-.37-.42c-.63-.35-1.11.67-1.12,1.39-.06,6.09.87,11.4-.39,17.32a11.38,11.38,0,0,0,.73,2.82c0,.14.12.28.17.42a7,7,0,0,0,1,2.5c1.3,2.18,2.77,4.47,5,5.11,3.29,1,6.65-2.17,9.36-5.09s5.83-6.34,7.07-10.64C240.56,143,240.67,141.28,239.75,140.55Z"/><path class="cls-17" d="M229.33,129.27c-2.06,1.92-3.09,4.51-4,7.1a23.76,23.76,0,0,0-1,3.47,1.94,1.94,0,0,0,1.07,2.35c.55.21,1.55-.49,1.85-1,1-1.62,2.05-3.42,3-5a10.74,10.74,0,0,0,2-4.93,2.24,2.24,0,0,0-3-2Z"/><path class="cls-17" d="M232.8,132.48c-2.3,3.17-3.06,4.79-5.26,8.36a3.62,3.62,0,0,0-.58,3,1.58,1.58,0,0,0,1,.62c2.08,0,3.48-1.89,4.82-3.48a15.1,15.1,0,0,0,2.94-5.15,5,5,0,0,0,.34-2.94,1.85,1.85,0,0,0-2.29-1.35,2.83,2.83,0,0,0-.94.85Z"/><path class="cls-17" d="M235.05,137.35a17.36,17.36,0,0,0-2.83,5.87,1,1,0,0,0,1,1.26,5.08,5.08,0,0,0,3.11-1.35,13.46,13.46,0,0,0,2.66-3.84,5.74,5.74,0,0,0,1-3.57,2.21,2.21,0,0,0-1.15-1.68c-1.37-.66-2.72.55-3.33,1.81s-.82,2.51-1.7,3.45"/><path class="cls-27" d="M240.35,137.12c.76-.58,1.36-.46,1.71,0a1.78,1.78,0,0,1,.05,1.61,16.16,16.16,0,0,1-1.79,4.43,6.08,6.08,0,0,1-2.74,2.33c-.53.21-1.19-.23-1.05-.79.73-3,2.13-4.91,3.82-7.53Z"/><path class="cls-15" d="M113.19,147.58c0-.2.11-.36.26-.36s.26.16.26.36-.12.35-.26.35S113.19,147.77,113.19,147.58Z"/><path class="cls-15" d="M105.39,194c-.24.25-4.84-4.31-8.3-11.42S92.8,169.05,93.15,169,95,175.06,98.36,182,105.72,193.71,105.39,194Z"/></g></g></svg>