<svg xmlns="http://www.w3.org/2000/svg" viewBox="0 0 400 400"><defs><style>.cls-1{isolation:isolate;}.cls-2{fill:#fff;}.cls-3{fill:#b9e2fe;}.cls-4{fill:#85bfed;}.cls-5{fill:#0079db;}.cls-6{fill:#190097;}.cls-7{fill:#111a56;}.cls-8{opacity:0.5;mix-blend-mode:multiply;}.cls-9{fill:#ff1076;}</style></defs><g class="cls-1"><g id="Layer_1" data-name="Layer 1"><polygon class="cls-2" points="334.46 400 278.12 400 278.01 399.62 334.29 399.62 334.46 400"/><path class="cls-3" d="M400,33.55V366c0,18.54-13.85,33.6-30.9,33.6H30.9a21.24,21.24,0,0,1-2.64-.15C12.44,398.05,0,383.61,0,366V33.55C0,15,13.85,0,30.9,0H369.1C386.15,0,400,15,400,33.55Z" transform="translate(0)"/><path class="cls-4" d="M123.58,199.28a7.56,7.56,0,0,1-1.73.39c-3.52.3-8-.42-10.89-2.68-4.69-3.6-7.5-12.11-9.34-17.85-2.08-6.44-4.72-13.52-4.09-20.5,1-10.26,12.2-16,19.81-10.45a12.15,12.15,0,0,1,1.51,1.26A364.09,364.09,0,0,0,123.58,199.28Z" transform="translate(0)"/><path class="cls-4" d="M292.11,179.14c-1.87,5.74-4.65,14.25-9.37,17.85-2.68,2.1-6.73,2.87-10.15,2.72,3.42-17.24,5-35.51,5.81-52.71,7.44-3.33,16.91,2.26,17.76,11.64C296.83,165.62,294.15,172.7,292.11,179.14Z" transform="translate(0)"/><polygon class="cls-5" points="57.75 63.78 56.16 81.33 42.94 58.33 35.62 77.23 16.15 57.02 41.82 100.48 46.59 83.64 63.08 108.23 64.3 91.71 86.2 109.55 57.75 63.78"/><polygon class="cls-5" points="344.27 63.78 345.85 81.33 359.08 58.33 366.39 77.23 385.86 57.02 360.19 100.48 355.42 83.64 338.94 108.23 337.71 91.71 315.82 109.55 344.27 63.78"/><polygon class="cls-5" points="344.27 171.02 345.85 153.47 359.08 176.47 366.39 157.57 385.86 177.78 360.19 134.32 355.42 151.16 338.94 126.56 337.71 143.09 315.82 125.25 344.27 171.02"/><polygon class="cls-5" points="57.75 171.02 56.16 153.47 42.94 176.47 35.62 157.57 16.15 177.78 41.82 134.32 46.59 151.16 63.08 126.56 64.3 143.09 86.2 125.25 57.75 171.02"/><path class="cls-5" d="M368.43,399.62H30.9a21.24,21.24,0,0,1-2.64-.15c8.21-60,43.55-72,43.55-72L198.34,286l126.54,41.48S360.29,339.56,368.43,399.62Z" transform="translate(0)"/><path class="cls-2" d="M218.6,273.68v31.14c-25.79,15.05-43.44,0-43.44,0V271.07a100.41,100.41,0,0,0,31.08,4.1A63,63,0,0,0,218.6,273.68Z" transform="translate(0)"/><path class="cls-6" d="M218.61,304.81v10.53c-25.8,15.06-43.45,0-43.45,0V304.81S192.81,319.86,218.61,304.81Z" transform="translate(0)"/><path class="cls-4" d="M218.6,273.68v14.71c-.45,0-.91.07-1.41.07a100.35,100.35,0,0,1-31.07-4.1,83.61,83.61,0,0,1-11-4.06v-9.23a100.41,100.41,0,0,0,31.08,4.1A63,63,0,0,0,218.6,273.68Z" transform="translate(0)"/><path class="cls-2" d="M279.56,107.75c-.28,11.49-.45,25-1.16,39.26-.53,11.18-1.37,22.83-2.85,34.35-.81,6.21-1.77,12.34-3,18.35-2.72,13.79-6.59,26.81-12.16,38.08v0c-4.79,9.81-10.89,18.24-18.64,24.59a53.8,53.8,0,0,1-23.19,11.27,63,63,0,0,1-12.36,1.49,100.41,100.41,0,0,1-31.08-4.1,72.74,72.74,0,0,1-23.75-11.68,49.69,49.69,0,0,1-14.59-17.12c-1.3-2.53-2.5-5.21-3.59-7.93-4.44-10.65-7.51-22.64-9.66-35.05-1-5.94-1.87-11.95-2.53-17.93-1.2-10.91-1.84-21.75-2.19-31.9-.07-2.38-.14-4.71-.18-7-.66-32-6.51-69.14,9.66-96.72,10.43-17.77,29.49-26.46,48.24-28,15.78-1.33,32.13-5,47.46,1.23,14.66,6,29.63,15.09,40.21,28C277.38,62.93,280.06,86.49,279.56,107.75Z" transform="translate(0)"/><path class="cls-7" d="M279.57,107.74c-.29,11.49-.46,25-1.17,39.26-.52,11.18-1.37,22.83-2.85,34.36H262.26v-44.2c-16.13-9.89-13.56-26.24-13.56-26.24-53.21,2.49-73.4-26.24-73.4-26.24-9.9,51.37-41.65,56-41.65,56v40.64H121c-1.2-10.92-1.83-21.76-2.19-31.91-.07-2.37-.14-4.71-.17-7-.67-32-6.52-69.13,9.65-96.71,10.43-17.78,29.5-26.47,48.24-28,15.79-1.34,32.13-5,47.46,1.22,14.66,6,29.64,15.1,40.21,28C277.38,62.93,280.06,86.48,279.57,107.74Z" transform="translate(0)"/><path class="cls-4" d="M151.41,259.39a49.69,49.69,0,0,1-14.59-17.12c-1.3-2.53-2.5-5.21-3.59-7.93v-27A140,140,0,0,1,151.41,259.39Z" transform="translate(0)"/><path class="cls-4" d="M260.54,207.34l-.11,30.45v0c-4.79,9.81-10.89,18.24-18.64,24.59A138.12,138.12,0,0,1,260.54,207.34Z" transform="translate(0)"/><path class="cls-2" d="M137.28,309.3l-21.53,90.32H59.48l51.9-114.84c2.05-13.37-4-64.15-4-64.15-2.82-20.84-4.19-57.42-4.19-57.42,1.44-13.06,7.61-52.51,7.61-52.51,6.73.3,7.89,14.28,7.89,14.28,9.37,0,6.17,19.42,6.17,19.42,5,3.83.88,46.08.88,46.08C163.92,269,137.28,309.3,137.28,309.3Z" transform="translate(0)"/><path class="cls-2" d="M334.28,399.62H278L256.48,309.3S229.85,269,268,190.48c0,0-4.09-42.25.91-46.08,0,0-3.24-19.42,6.13-19.42,0,0,1.17-14,7.9-14.28,0,0,6.16,39.45,7.64,52.51,0,0-1.41,36.58-4.23,57.42,0,0-6,50.78-4,64.15Z" transform="translate(0)"/><g class="cls-8"><path class="cls-9" d="M247.57,89.29c0,28.56-21.3,51.71-47.57,51.71s-47.57-23.15-47.57-51.71S173.72,37.58,200,37.58,247.57,60.73,247.57,89.29Z" transform="translate(0)"/></g><g class="cls-8"><path class="cls-9" d="M200,169.73c-40.8,0-74-36.09-74-80.44S159.2,8.85,200,8.85s74,36.09,74,80.44S240.8,169.73,200,169.73Zm0-153.22c-36.92,0-66.95,32.65-66.95,72.78s30,72.78,66.95,72.78S267,129.42,267,89.29,236.91,16.51,200,16.51Z" transform="translate(0)"/></g></g></g></svg>