<svg xmlns="http://www.w3.org/2000/svg" viewBox="0 0 392.23 453.02"><defs><style>.cls-1{opacity:0.7;}.cls-2{fill:#ffe7e8;}.cls-3{fill:#7689a1;}.cls-4{fill:#697b8e;}.cls-5{fill:#627382;}.cls-6{fill:#ff7c84;}.cls-7{fill:#d16671;}.cls-8{fill:#ffb8bd;}.cls-9{fill:#e2a6ac;}.cls-10,.cls-21{fill:#3a85a3;}.cls-11{fill:#2d6a7c;}.cls-12{fill:#c9959d;}.cls-13{fill:#093c5b;}.cls-14{fill:#093f67;}.cls-15{fill:#ff9fb1;}.cls-16{fill:#fff;}.cls-17{fill:none;stroke:#ff7c84;stroke-linecap:round;stroke-miterlimit:10;stroke-width:0.99px;}.cls-18{fill:#06263a;}.cls-19{fill:#4b9fbc;}.cls-20{fill:#5ac4e0;}.cls-21{opacity:0.2;}</style></defs><g id="BACKGROUND"><g class="cls-1"><path class="cls-2" d="M437.91,197.71q0,4.08-1.11,20.33t-7.24,37.61q-6.13,21.36-18.95,45.24T374.4,345.1q-23.4,20.34-59.06,33.54t-86.91,13.22q-41.24,0-74.66-9.65T96.38,352.73q-24-19.82-37.33-50.82T45.68,227.2a225.14,225.14,0,0,1,11.7-71.67A176.9,176.9,0,0,1,93.6,93q24.48-27.47,63.51-43.72T249.6,33.06q92.48,0,140.4,42.68T437.91,197.71Z" transform="translate(-45.68 -33.06)"/></g></g><g id="OBJECTS"><polygon class="cls-3" points="126.16 431.96 306.31 431.96 250.04 211.84 148.37 207.89 126.16 431.96"/><path class="cls-4" d="M295.72,244.89,283,244.4c-6.49,22.26-16.05,46.15-38.7,55.88-17.64,7.58-37.39,9-56.88,7.78L171.84,465H352Z" transform="translate(-45.68 -33.06)"/><path class="cls-5" d="M189.25,399.16c17.48-4.78,37-12.29,47.25-23.48,0,0,1.48,25.67,27.14,41.95,17.7,11.24,15.21,34.21,12,47.38H352L295.72,244.89,283,244.4c-6.49,22.26-16.05,46.15-38.7,55.88-17.64,7.58-37.39,9-56.88,7.78L171.84,465h18.69Z" transform="translate(-45.68 -33.06)"/><path class="cls-6" d="M277,252.29s11.84,8.39-1,28.63-43.92,41-27.14,85.88,70.33,43.68,71.81,98H433.84s-4.86-14.56-23.61-25.92-48.84-3.69-38-38.24,22.18-30.85-5.95-61.45-35.53-84.4-37.51-98.22-11.35-36.52-34.05-35S277,252.29,277,252.29Z" transform="translate(-45.68 -33.06)"/><path class="cls-7" d="M372.25,400.61c.69-2.19,1.39-4.24,2.07-6.15-2.46,3.73-5.05,7.4-7.55,11.17-3.24,4.89-7.16,10.67-7.21,16.78-.06,7.17,4.49,12.86,9.5,17.55,10.94,10.27,25.46,15.23,37.78,23.47.65.44,1.28.89,1.91,1.34h25.09s-4.86-14.56-23.61-25.92S361.39,435.16,372.25,400.61Z" transform="translate(-45.68 -33.06)"/><path class="cls-7" d="M331.23,448c-3.44-11.28,1.21-20.57,5-31,4-10.83,11.92-26,5.19-45.22-4.2-12-12.17-12-21.39-20.54-8.72-8.1-18.63-15-26.56-24-7.47-8.43-13.72-17.84-15.68-29.14a110.18,110.18,0,0,1-1.4-17.93c-.15.24-.29.49-.45.74-12.83,20.24-43.92,41-27.14,85.88s70.33,43.68,71.81,98h23.72C338.28,460.72,333.46,455.26,331.23,448Z" transform="translate(-45.68 -33.06)"/><path class="cls-8" d="M300.48,327.91c-14.68-4.09-36.67-1-60.14-7.31a323.66,323.66,0,0,1-34.29-11.21A114.73,114.73,0,0,1,198,324.64c6.74,4.31,64.52,41,83.4,44.82,22.38,4.5,42.71,14.39,55.75,6S315.63,345.25,300.48,327.91Z" transform="translate(-45.68 -33.06)"/><path class="cls-9" d="M300.48,327.91c-14.68-4.09-36.67-1-60.14-7.32-6.85-1.84-12.92-3.69-18.1-5.39-7.94,3.39-16,6.52-24.08,9.56,7.54,4.82,64.49,40.93,83.21,44.7,22.38,4.5,42.71,14.39,55.75,6S315.63,345.25,300.48,327.91Z" transform="translate(-45.68 -33.06)"/><path class="cls-8" d="M176.78,384.07c-14.31-5.92,14.81-30.6,26.65-50.34,13.73-6.62,36.91-10.42,58.89-20.81s35.06-19.2,35.06-19.2-1.09-11.92,4.27-17.74c3.06-3.33,9.94-9.38,11.42-8.42s11.1.88,10.92,3.38-10.5,2.62-10.5,2.62L309.16,278s8.09,1.15,17.12-6.57,12.11-4.76,11.63-1.53-8.26,7.34-8.26,7.34c-1.53,2.14,9.27-3.43,10.4-2.45s3.78,4.49-5.2,7.95-2.29,1.54,5.35-.76,5.67,2.59-6,8.71,7.43-4.11,7.7-.23-7.7,6.25-7.7,6.25-15.2,8.25-19.76,8.92-8.14,1.09-8.14,1.09-56.73,54.06-75.76,61.59C209.35,376.67,191.09,390,176.78,384.07Z" transform="translate(-45.68 -33.06)"/><path class="cls-9" d="M208.61,362.11c-6.6-1.72-14.05-4.4-20.06-8.45-11.27,13.83-21.45,26.41-11.77,30.41,14.31,5.92,32.57-7.4,53.8-15.79,3.56-1.41,8.41-4.37,13.93-8.26C233.13,363.51,220,365.08,208.61,362.11Z" transform="translate(-45.68 -33.06)"/><path class="cls-6" d="M188.13,209.85s-24.68,3-30.6,28.63-1.48,79.46-30.11,116-34.54,25.17-13.82,47.87S143.71,428,122,435.89,59.31,443.3,59.31,466H180.23s2-80.39,5.93-101.67c5.43-29.61,51.32-42.45,53.79-97.23S207.38,209.85,188.13,209.85Z" transform="translate(-45.68 -33.06)"/><path class="cls-7" d="M101.31,385.58c-.48,3.63,3.51,7.13,12.29,16.75C134.33,425,143.71,428,122,435.89c-1.08.4-2.2.77-3.37,1.12a43.18,43.18,0,0,0,16.11-4.81c9.45-5.35,11-16.35,3.47-24.39C128.49,397.46,114.6,390.6,101.31,385.58Z" transform="translate(-45.68 -33.06)"/><path class="cls-7" d="M66.78,464A98.63,98.63,0,0,1,71,449.75c-7,3.59-11.68,8.6-11.68,16.25h3.95q1.59-.19,3.18-.42C66.55,465,66.67,464.52,66.78,464Z" transform="translate(-45.68 -33.06)"/><path class="cls-7" d="M188.13,209.85a26.36,26.36,0,0,0-3,.62c-1.3,9.19-3,18.41-2.55,27.67.57,11.1,6.72,23.72,18.95,25.73,6.38,1.05,12.91,1.78,16.56,8,2.65,4.53,1.19,11.29.38,16.11A62.94,62.94,0,0,1,200,323.5c-8.48,8.45-26.58-21.6-38.45-23-25-2.88,19.25,20.21,5.78,47.16-5.08,10.16-11.1,42.08-8.11,52.67,2.55,9,4.65,19.33,1.31,28.46-7.52,20.54-30,30.54-49.32,36.9l-.87.28h69.94s2-80.39,5.93-101.67c5.43-29.61,51.32-42.45,53.79-97.23S207.38,209.85,188.13,209.85Z" transform="translate(-45.68 -33.06)"/><path class="cls-8" d="M234.79,319.05a279,279,0,0,1-32.36-11.15s1-9.81-5.32-14.58c-3.61-2.74-3.13-5.06-6.5-7.46-1.44-1-6.78-4.91-6.73-2.41.08,4.29,5.05,10.11,5.05,10.11l3.61,6s-11.31-3.37-25.26-6.74c-11.56-2.78-19.82-6-18.77-2.88s20.69,10.1,20.69,10.1c1.89,1.84-19.43-5.16-20.93-5.05-3.37.24,1.2,4.09,15.34,8.7,9.15,3-5.73-1.29-13.65-2.2s3.12,5.94,15.65,9.91c23.12,7.33-12.29-4.14-12.29-2.22,0,3.9,16,9.95,16,9.95s15.17,5.6,19.78,5.45,8.21-.37,8.21-.37,4.81,3.1,12.2,7.67a5.75,5.75,0,0,1,.86-.43c5.34-2.19,10.75-4.2,16.19-6.09Q230.61,322.12,234.79,319.05Z" transform="translate(-45.68 -33.06)"/><path class="cls-9" d="M234.79,319.05c-4.61-1.32-8.82-2.63-12.55-3.85-7.94,3.39-16,6.52-24.08,9.56,1.67,1.07,5.78,3.68,11.36,7.13a5.75,5.75,0,0,1,.86-.43c5.34-2.19,10.75-4.2,16.19-6.09Q230.61,322.12,234.79,319.05Z" transform="translate(-45.68 -33.06)"/><path class="cls-10" d="M197.31,185.67s-11.65.49-12.14,21.71-6.21,31.44,32.57,50.84C249.33,274,289.8,276,306.58,242.42s-9.38-30.6-12.83-46.39-25.42-13.33-25.42-13.33Z" transform="translate(-45.68 -33.06)"/><path class="cls-11" d="M222.18,248.35c-38.78-19.4-33.06-29.62-32.57-50.84a43.67,43.67,0,0,1,.85-7.93c-2.64,3-5.07,8.34-5.29,17.8-.49,21.22-6.21,31.44,32.57,50.84C249.33,274,289.8,276,306.58,242.42a70.47,70.47,0,0,0,3.5-8.12C292.78,266,253.21,263.86,222.18,248.35Z" transform="translate(-45.68 -33.06)"/><path class="cls-11" d="M200.27,185.67s-2.27,30.6,43.14,38,42.94-33.56,42-37S200.27,185.67,200.27,185.67Z" transform="translate(-45.68 -33.06)"/><path class="cls-9" d="M197.77,157.37s-5-11.85-12.53-5.27-3.13,34.22,15,33.57S197.77,157.37,197.77,157.37Z" transform="translate(-45.68 -33.06)"/><path class="cls-12" d="M183.44,163a8.76,8.76,0,0,1,.59-3.12,3.2,3.2,0,0,1,1.07-1.43l.48-.23a3.31,3.31,0,0,1,.55-.06,1.44,1.44,0,0,1,.51.08,1.53,1.53,0,0,1,.47.16,4.76,4.76,0,0,1,1.45,1.1l.51.58c.17.22.33.47.5.71a14.18,14.18,0,0,1,.82,1.44q.35.74.66,1.47c.18.5.4,1,.56,1.5s.33,1,.47,1.51c.3,1,.58,2,.79,3.05a56.6,56.6,0,0,1,1,6.21l.08.67-.59.22a10.36,10.36,0,0,0-1,.45,7.54,7.54,0,0,0-1,.58,2.59,2.59,0,0,0-.66.67.57.57,0,0,0,0,.63,3.2,3.2,0,0,0,.31.37,3.75,3.75,0,0,0,.44.35,8.86,8.86,0,0,0,1,.61c.74.37,1.52.68,2.3,1a17,17,0,0,1-2.52-.41,8.76,8.76,0,0,1-1.24-.44,6.21,6.21,0,0,1-.62-.33,3,3,0,0,1-.57-.51,1.92,1.92,0,0,1-.39-.81,1.84,1.84,0,0,1,.09-.94,3.28,3.28,0,0,1,.91-1.26,8.66,8.66,0,0,1,1.1-.84,10.58,10.58,0,0,1,1.2-.66l-.51.89c-.37-2-.81-4-1.27-6-.25-1-.48-2-.75-3s-.57-1.94-.88-2.89c-.16-.48-.34-.94-.52-1.4s-.39-.94-.61-1.31c-.11-.2-.2-.41-.32-.61l-.45-.64a4.46,4.46,0,0,0-.9-.89,1,1,0,0,0-.94-.17,2.51,2.51,0,0,0-.93.89A11.86,11.86,0,0,0,183.44,163Z" transform="translate(-45.68 -33.06)"/><path class="cls-9" d="M282.56,157.85s3.57-12.41,11.81-6.86,7.15,33.54-10.95,35.26S282.56,157.85,282.56,157.85Z" transform="translate(-45.68 -33.06)"/><path class="cls-12" d="M298.44,163a11.86,11.86,0,0,0-1.23-2.78,2.51,2.51,0,0,0-.93-.89,1,1,0,0,0-.94.17,4.22,4.22,0,0,0-.9.89L294,161c-.12.2-.22.41-.32.61-.22.37-.4.88-.61,1.31s-.36.92-.52,1.4c-.31.95-.62,1.91-.89,2.89s-.5,2-.74,3c-.46,2-.9,4-1.27,6l-.51-.89a9.64,9.64,0,0,1,1.19.66,9.53,9.53,0,0,1,1.11.84,3.28,3.28,0,0,1,.91,1.26,1.74,1.74,0,0,1,.08.94,1.79,1.79,0,0,1-.38.81,3,3,0,0,1-.58.51,5.15,5.15,0,0,1-.61.33,8.76,8.76,0,0,1-1.24.44,17,17,0,0,1-2.52.41c.78-.31,1.56-.62,2.3-1a8.86,8.86,0,0,0,1-.61,3,3,0,0,0,.43-.35,2.55,2.55,0,0,0,.32-.37.57.57,0,0,0,0-.63,2.59,2.59,0,0,0-.66-.67,7.54,7.54,0,0,0-1-.58,10.36,10.36,0,0,0-1.05-.45l-.59-.22.07-.67a56.62,56.62,0,0,1,1-6.21c.21-1,.49-2,.79-3.05.14-.51.31-1,.47-1.51s.37-1,.56-1.5.43-1,.66-1.47a12.5,12.5,0,0,1,.82-1.44c.17-.24.33-.49.49-.71l.52-.58a4.84,4.84,0,0,1,1.44-1.1,1.74,1.74,0,0,1,.47-.16,1.53,1.53,0,0,1,.52-.08,3.19,3.19,0,0,1,.54.06l.49.23a3.28,3.28,0,0,1,1.07,1.43A9,9,0,0,1,298.44,163Z" transform="translate(-45.68 -33.06)"/><path class="cls-8" d="M236.46,106s-39.38,2-41.2,53.3,38.17,69.1,64.22,57.25,32.71-47.38,25.44-71.72S266.14,104.07,236.46,106Z" transform="translate(-45.68 -33.06)"/><path class="cls-13" d="M234.63,99.33s-38.84-2.54-34.7-26.42S227.85,52,234.85,49.45s30.67-7.75,36.4,14.22-22.61,44.9-39.8,41.4S234.63,99.33,234.63,99.33Z" transform="translate(-45.68 -33.06)"/><path class="cls-13" d="M238.13,64.31a20.28,20.28,0,0,0-3.2-3.08q-1.73-1.41-3.58-2.65a39.82,39.82,0,0,0-7.84-4.1,19.89,19.89,0,0,0-8.6-1.42,13,13,0,0,0-4.18,1.07,13.51,13.51,0,0,0-3.59,2.4,17.39,17.39,0,0,0-2.77,3.34,25.09,25.09,0,0,0-2,3.87,18.54,18.54,0,0,0-.91,8.58c.12,1.47.36,2.92.58,4.4s.4,2.93.69,4.37a20.57,20.57,0,0,0,1.25,4.18,11.39,11.39,0,0,0,2.34,3.57l0,0h0a19,19,0,0,0,7.24,4.94c.68.3,1.37.6,2.07.89l2.07.86c1.42.53,2.83,1,4.26,1.48.71.23,1.43.43,2.16.62s1.45.36,2.19.48,1.47.24,2.21.34,1.51.13,2.25.12a54.37,54.37,0,0,0,9-.86,54.15,54.15,0,0,1-9,1.2c-.77,0-1.51,0-2.27,0s-1.52-.14-2.27-.27-1.49-.29-2.23-.45-1.47-.36-2.2-.58c-1.45-.42-2.9-.9-4.32-1.4l-2.12-.83c-.7-.27-1.4-.55-2.1-.85a19.67,19.67,0,0,1-7.6-5.1l0,0a12.46,12.46,0,0,1-2.55-3.83,21.73,21.73,0,0,1-1.33-4.34c-.31-1.48-.52-3-.74-4.43s-.44-2.95-.56-4.45a19.45,19.45,0,0,1,1-9,25.13,25.13,0,0,1,2.13-4,18.4,18.4,0,0,1,2.93-3.48,13.33,13.33,0,0,1,8.27-3.54A20.52,20.52,0,0,1,223.7,54a37.38,37.38,0,0,1,7.81,4.37A44.35,44.35,0,0,1,235,61.12,20.39,20.39,0,0,1,238.13,64.31Z" transform="translate(-45.68 -33.06)"/><path class="cls-13" d="M234.54,64.36a20.49,20.49,0,0,0-3.69-2.47q-1.95-1.08-4-2a39.26,39.26,0,0,0-8.44-2.67,19.84,19.84,0,0,0-8.71.1,12.82,12.82,0,0,0-7,4.78,16.72,16.72,0,0,0-2.15,3.77,23.53,23.53,0,0,0-1.33,4.17,18.37,18.37,0,0,0,.6,8.6c.38,1.42.86,2.81,1.33,4.23s.91,2.82,1.46,4.19A20.22,20.22,0,0,0,204.53,91a11.29,11.29,0,0,0,2.93,3.11l0,0h0a19.22,19.22,0,0,0,8,3.59l2.19.52,2.19.48c1.49.28,3,.53,4.45.72.74.1,1.49.17,2.23.23s1.5.1,2.24.09,1.5,0,2.24,0,1.51-.14,2.23-.27A55.53,55.53,0,0,0,242,97a53.83,53.83,0,0,1-8.63,2.75c-.75.17-1.49.25-2.25.36s-1.51.13-2.27.13-1.52,0-2.28,0-1.52-.11-2.27-.19c-1.5-.16-3-.38-4.49-.62l-2.23-.45c-.74-.15-1.49-.3-2.23-.47a19.59,19.59,0,0,1-8.37-3.7l0,0a12.06,12.06,0,0,1-3.18-3.31,21.8,21.8,0,0,1-2.07-4c-.56-1.4-1-2.82-1.5-4.23s-.95-2.83-1.33-4.29a19.39,19.39,0,0,1-.55-9,25.25,25.25,0,0,1,1.41-4.31A18,18,0,0,1,202,61.62a13.38,13.38,0,0,1,7.52-4.93,20.46,20.46,0,0,1,9,0A37.51,37.51,0,0,1,227,59.66c1.34.64,2.66,1.34,3.94,2.11A20.57,20.57,0,0,1,234.54,64.36Z" transform="translate(-45.68 -33.06)"/><path class="cls-13" d="M235.91,57.94l.57-1c.39-.66.92-1.65,1.67-2.87a23.57,23.57,0,0,1,3.08-4.16,11.49,11.49,0,0,1,5.7-3.45,16.5,16.5,0,0,1,7.93.26,39.62,39.62,0,0,1,8.33,3.16,18.7,18.7,0,0,1,7.14,6.32,17.89,17.89,0,0,1,2.06,4.51,45.07,45.07,0,0,1,1.2,4.81,38.89,38.89,0,0,1,.6,9.86,25.79,25.79,0,0,1-2.37,9.32,21.48,21.48,0,0,1-1.12,2.06c-.45.64-.88,1.28-1.36,1.87l-.76.85-.37.42-.46.4-.82.69-.89.65a28.22,28.22,0,0,1-7.24,3.63A56.11,56.11,0,0,1,252.25,97c-2,.42-3.68.72-5.1,1l-4.42.8-.28-1.5,4.45-.76c1.41-.24,3.12-.52,5.06-.92a54,54,0,0,0,6.4-1.67,26.87,26.87,0,0,0,6.94-3.37c.27-.2.55-.38.83-.59l.83-.69.37-.31.36-.39.71-.79c.46-.54.87-1.14,1.29-1.73s.79-1.25,1.09-1.93a24.82,24.82,0,0,0,2.35-8.9,37.8,37.8,0,0,0-.48-9.6,41.13,41.13,0,0,0-1.09-4.74,17,17,0,0,0-1.89-4.34,18.07,18.07,0,0,0-6.77-6.21,39.13,39.13,0,0,0-8.15-3.25,16.12,16.12,0,0,0-7.75-.4A11.21,11.21,0,0,0,241.36,50a23.22,23.22,0,0,0-3.14,4.08c-.77,1.2-1.32,2.19-1.72,2.85Z" transform="translate(-45.68 -33.06)"/><path class="cls-13" d="M248.17,99l1-.09c.63-.07,1.62-.09,2.74-.29l1.89-.3,2.22-.49c.78-.2,1.59-.49,2.47-.75s1.71-.7,2.64-1.07,1.81-.93,2.71-1.51a22.79,22.79,0,0,0,2.66-2l1.29-1.11L269.05,90a32.28,32.28,0,0,0,2.23-2.91A40.61,40.61,0,0,0,275,80.24a18.19,18.19,0,0,0,1.84-7.71,14.62,14.62,0,0,0-.7-3.92A18.59,18.59,0,0,0,274.42,65a24.91,24.91,0,0,0-5.13-5.9,29.29,29.29,0,0,0-3-2.27l-1.52-1c-.5-.33-1-.58-1.55-.88l-1.52-.83-1.55-.67c-.51-.21-1-.46-1.51-.62l-1.5-.49a22,22,0,0,0-2.85-.76l-1.34-.29-1.29-.18a42.23,42.23,0,0,0-4.32-.4c-1.2-.07-2.15,0-2.79,0h-1l1,0c.64,0,1.59-.06,2.79,0a40.91,40.91,0,0,1,4.34.34l1.29.16,1.35.28,1.42.29c.48.1,1,.27,1.46.41l1.52.45c.52.15,1,.39,1.54.59l1.58.64,1.57.8c.52.29,1.08.54,1.59.86l1.55,1a30.26,30.26,0,0,1,3.11,2.23,25.43,25.43,0,0,1,5.41,5.93,19.23,19.23,0,0,1,1.85,3.75,15.71,15.71,0,0,1,.85,4.15,7.62,7.62,0,0,1,0,1.07,9.57,9.57,0,0,1,0,1.07,14.83,14.83,0,0,1-.35,2.1,9.72,9.72,0,0,1-.26,1l-.31,1c-.2.67-.45,1.31-.69,2A42.23,42.23,0,0,1,272.58,88a33.16,33.16,0,0,1-2.29,3.2l-1.21,1.39c-.5.48-.93.86-1.39,1.29a25,25,0,0,1-2.79,2.23c-.95.66-1.94,1.18-2.86,1.73s-1.89.91-2.8,1.26-1.77.68-2.6.93l-2.34.64c-.74.17-1.43.29-2,.42-1.25.27-2.15.33-2.8.44l-1,.13Z" transform="translate(-45.68 -33.06)"/><path class="cls-13" d="M253.6,98.51s.49-.81,1.46-2.15a53.66,53.66,0,0,1,4.38-5.27A45,45,0,0,1,262.79,88,25.81,25.81,0,0,1,267,85a16.82,16.82,0,0,1,5.22-1.92,10.69,10.69,0,0,1,5.78.51,10.13,10.13,0,0,1,1.33.63,8.4,8.4,0,0,1,1.24.79l1.13.85a13.16,13.16,0,0,0,1.11.82,9.46,9.46,0,0,0,4.78,1.84,5.65,5.65,0,0,0,2.36-.4,6.43,6.43,0,0,0,1.93-1.32,11.74,11.74,0,0,0,2.46-3.66,23.07,23.07,0,0,0,1.79-6.5,11.07,11.07,0,0,0,.07-2.58,6.12,6.12,0,0,1,.09.67,11.34,11.34,0,0,1,0,1.92,21.34,21.34,0,0,1-1.47,6.71,12.48,12.48,0,0,1-2.46,4,7.35,7.35,0,0,1-2.11,1.55,6.12,6.12,0,0,1-2.72.52,10.23,10.23,0,0,1-5.27-2,12.45,12.45,0,0,1-1.15-.82c-.38-.29-.77-.57-1.12-.82a7.28,7.28,0,0,0-1.15-.71,8,8,0,0,0-1.22-.57,9.72,9.72,0,0,0-5.28-.52,15.78,15.78,0,0,0-5,1.76,35.55,35.55,0,0,0-7.6,5.74,64.21,64.21,0,0,0-4.62,5C254.16,97.75,253.6,98.51,253.6,98.51Z" transform="translate(-45.68 -33.06)"/><path class="cls-13" d="M240.65,104.64s.75-.58,2.13-1.49a51.72,51.72,0,0,1,5.95-3.39A44,44,0,0,1,253,98a25.94,25.94,0,0,1,5-1.27,16.75,16.75,0,0,1,5.56,0,10.75,10.75,0,0,1,5.23,2.52,7.85,7.85,0,0,1,1,1.06,8.14,8.14,0,0,1,.88,1.17l.76,1.2c.25.4.49.81.75,1.15a9.59,9.59,0,0,0,3.82,3.42,5.85,5.85,0,0,0,2.35.45,6.8,6.8,0,0,0,2.28-.55,11.91,11.91,0,0,0,3.59-2.56,23,23,0,0,0,4-5.45,11.09,11.09,0,0,0,1-2.39,5.32,5.32,0,0,1-.15.66,11.5,11.5,0,0,1-.65,1.81,21.37,21.37,0,0,1-3.74,5.76,12.72,12.72,0,0,1-3.7,2.83,7.41,7.41,0,0,1-2.52.7,6.33,6.33,0,0,1-2.73-.47,10.47,10.47,0,0,1-4.25-3.68c-.3-.39-.53-.79-.78-1.18s-.52-.8-.76-1.16a7.87,7.87,0,0,0-.82-1.08,7.75,7.75,0,0,0-.95-1,9.67,9.67,0,0,0-4.75-2.36,16.09,16.09,0,0,0-5.27-.1,35.42,35.42,0,0,0-9.13,2.7,61.64,61.64,0,0,0-6.08,3C241.45,104.13,240.65,104.64,240.65,104.64Z" transform="translate(-45.68 -33.06)"/><path class="cls-13" d="M254,100.73l.29-1.3c.14-.42.25-.86.41-1.27s.32-.84.55-1.23a8.9,8.9,0,0,1,.68-1.15l.39-.56.44-.51a7.91,7.91,0,0,1,1-1,8.73,8.73,0,0,1,1.07-.83,7.39,7.39,0,0,1,1.18-.67c.79-.4,1.55-.86,2.38-1.2S264,90.3,264.77,90l2.49-1,2.51-.89h0l1.06-.21c.36,0,.73-.06,1.09-.09s.72,0,1.09,0,.72.12,1.08.18.69.21,1,.31l1,.45.93.55L278,90c.31.29.51.5.77.75a8.71,8.71,0,0,1,.7.86,9.69,9.69,0,0,1,1,1.92c.29.65.5,1.32.73,2s.45,1.29.73,1.9a13.19,13.19,0,0,0,.91,1.8,6,6,0,0,0,.57.78,4.92,4.92,0,0,0,.67.7,3.64,3.64,0,0,0,.75.61,4.28,4.28,0,0,0,.84.51,4.67,4.67,0,0,0,.89.38,5.29,5.29,0,0,0,.94.27l2,.36a20.35,20.35,0,0,0,2,.27,8.1,8.1,0,0,0,2,0,4.69,4.69,0,0,0,.93-.23,6,6,0,0,0,.83-.44h0l0,0,.64-.46.57-.58.48-.65c.15-.23.26-.48.39-.72a4.18,4.18,0,0,0,.31-.76,3.54,3.54,0,0,0,.21-.79,3.22,3.22,0,0,0,.11-.81,3.75,3.75,0,0,0,0-.82,7.58,7.58,0,0,0-.36-1.62,1.81,1.81,0,0,0-.4-.67.69.69,0,0,0-.67-.18,1.87,1.87,0,0,0-.7.39,6.72,6.72,0,0,0-.58.61,9.1,9.1,0,0,0-.94,1.41,9.21,9.21,0,0,1,.85-1.49,4.9,4.9,0,0,1,.56-.66,1.88,1.88,0,0,1,.75-.47,1,1,0,0,1,.91.19,2.26,2.26,0,0,1,.51.76,7.46,7.46,0,0,1,.46,1.68,6,6,0,0,1,0,1.76,3.67,3.67,0,0,1-.2.87,5.16,5.16,0,0,1-.3.83c-.14.26-.25.54-.41.79l-.5.73-.61.66-.73.56,0,0a7.3,7.3,0,0,1-1,.56,5.12,5.12,0,0,1-1.06.31,9.19,9.19,0,0,1-2.15.11,18.22,18.22,0,0,1-2.1-.22c-.71-.11-1.33-.21-2.06-.35a5.72,5.72,0,0,1-1.06-.28,5.2,5.2,0,0,1-1-.43,5,5,0,0,1-.95-.55,7.69,7.69,0,0,1-1.61-1.47,5.26,5.26,0,0,1-.66-.89,13.47,13.47,0,0,1-1-1.88c-.31-.64-.54-1.31-.79-2s-.46-1.3-.71-1.91a8.91,8.91,0,0,0-.92-1.73,6.51,6.51,0,0,0-.59-.76l-.7-.7-.79-.6-.84-.51-.89-.41c-.31-.09-.62-.21-.93-.29s-.64-.13-1-.17-.65,0-1,0-.65,0-1,.07l-1,.18h0l-2.51.85-2.49.89c-.83.3-1.63.66-2.45,1s-1.6.75-2.4,1.12a7.75,7.75,0,0,0-1.15.6,11.35,11.35,0,0,0-1.06.76,8,8,0,0,0-1,.87l-.45.47-.4.52a9.86,9.86,0,0,0-.73,1.09,11.8,11.8,0,0,0-.59,1.18c-.19.4-.32.81-.49,1.23Z" transform="translate(-45.68 -33.06)"/><path class="cls-13" d="M238.41,101.84s-.57-.76-1.64-2a62.51,62.51,0,0,0-4.71-5,35.79,35.79,0,0,0-7.71-5.73,16.42,16.42,0,0,0-5-1.75,9.9,9.9,0,0,0-5.33.51,10.44,10.44,0,0,0-2.41,1.26c-.36.26-.75.53-1.13.82s-.74.57-1.17.82a10.64,10.64,0,0,1-5.32,2,5.93,5.93,0,0,1-2.74-.48,7.5,7.5,0,0,1-2.17-1.5,12.43,12.43,0,0,1-2.54-4A18.28,18.28,0,0,1,195.37,83a21.59,21.59,0,0,1-.39-3,11.62,11.62,0,0,1,0-1.94,5,5,0,0,1,.1-.68,10.2,10.2,0,0,0,.06,2.6A22.68,22.68,0,0,0,197,86.53a11.59,11.59,0,0,0,2.53,3.66,5.8,5.8,0,0,0,4.37,1.65A9.92,9.92,0,0,0,208.75,90c.38-.23.75-.54,1.13-.82s.75-.56,1.15-.85a11.12,11.12,0,0,1,2.61-1.4,11,11,0,0,1,5.83-.5,17.32,17.32,0,0,1,5.28,1.91,26.45,26.45,0,0,1,4.3,3,42.4,42.4,0,0,1,3.4,3.15,52.69,52.69,0,0,1,4.47,5.28C237.91,101,238.41,101.84,238.41,101.84Z" transform="translate(-45.68 -33.06)"/><path class="cls-13" d="M238,104.06l-.39-1.28c-.17-.41-.31-.84-.5-1.24a11,11,0,0,0-.61-1.18,8.34,8.34,0,0,0-.74-1.09,7.52,7.52,0,0,0-.87-1,10.1,10.1,0,0,0-1-.87,11,11,0,0,0-1.08-.75,8,8,0,0,0-1.17-.6c-.81-.37-1.6-.8-2.44-1.11s-1.63-.68-2.47-1l-2.52-.89-2.54-.84h0l-1-.18c-.33,0-.66,0-1-.07s-.66,0-1,0-.65.11-1,.16-.63.2-.94.29l-.91.41-.85.51-.81.6c-.19.17-.48.47-.71.69a5.8,5.8,0,0,0-.61.76,9.06,9.06,0,0,0-.94,1.74c-.26.62-.49,1.27-.73,1.93s-.49,1.33-.81,2c-.15.33-.3.66-.46,1a7.14,7.14,0,0,1-.55.94,6.48,6.48,0,0,1-.67.89,5.75,5.75,0,0,1-.78.78,4.81,4.81,0,0,1-.88.68l-.46.3-.5.25-.5.24-.52.17a6.47,6.47,0,0,1-1.07.28l-1,.18-1,.16a18.33,18.33,0,0,1-2.12.22,8.85,8.85,0,0,1-2.17-.12,5,5,0,0,1-1.07-.3,6.06,6.06,0,0,1-1-.57l0,0-.73-.55-.62-.66c-.18-.24-.34-.49-.51-.74a8.56,8.56,0,0,1-.42-.79,5.21,5.21,0,0,1-.31-.83,3.67,3.67,0,0,1-.2-.87,3.31,3.31,0,0,1-.07-.89,3.73,3.73,0,0,1,.06-.88,6.94,6.94,0,0,1,.47-1.69,2.29,2.29,0,0,1,.52-.76,1.06,1.06,0,0,1,.92-.18,2.06,2.06,0,0,1,.76.48,4.5,4.5,0,0,1,.57.66A9.6,9.6,0,0,1,197,100a9.07,9.07,0,0,0-1-1.42,5.51,5.51,0,0,0-.58-.6,1.81,1.81,0,0,0-.71-.4.76.76,0,0,0-.68.17,1.92,1.92,0,0,0-.41.67,7,7,0,0,0-.37,1.63,3.75,3.75,0,0,0,0,.82,3.1,3.1,0,0,0,.11.81,3.78,3.78,0,0,0,.21.8,5.57,5.57,0,0,0,.32.76,6.16,6.16,0,0,0,.4.71l.49.66.57.57.65.46,0,0h0a7.49,7.49,0,0,0,.84.44,5,5,0,0,0,.94.23,8.9,8.9,0,0,0,2,0c.68,0,1.36-.16,2-.27l1-.18,1-.19a4.52,4.52,0,0,0,1-.25l.47-.16.44-.22.44-.22.41-.28a4.49,4.49,0,0,0,.77-.61,4.57,4.57,0,0,0,.69-.7,5.44,5.44,0,0,0,.58-.78,5.62,5.62,0,0,0,.49-.88c.17-.31.3-.62.44-.93a19,19,0,0,0,.76-1.91c.23-.65.45-1.32.74-2a9.63,9.63,0,0,1,1.07-1.93,7.79,7.79,0,0,1,.72-.86c.26-.25.46-.46.79-.75l.88-.64,1-.55c.34-.15.67-.31,1-.44s.7-.23,1.06-.32.72-.14,1.09-.17.73,0,1.1,0,.73,0,1.09.09l1.07.21h0l2.55.89,2.51,1c.84.33,1.66.72,2.49,1.08s1.61.79,2.41,1.19a11.07,11.07,0,0,1,1.2.66,12.52,12.52,0,0,1,1.09.83,9.86,9.86,0,0,1,1,1,6.71,6.71,0,0,1,.84,1.07,8.57,8.57,0,0,1,.71,1.16c.23.39.37.82.56,1.23s.28.86.42,1.29Z" transform="translate(-45.68 -33.06)"/><path class="cls-14" d="M194.57,161.87s-11.55-35.8,17.92-57.15c32.25-23.36,60.2,3.52,67.95,11.19,9,8.91,12.84,32.25,7.2,57.25l-3.49-32.41S273.24,136,272,121.18c0,0-40.39-17.49-64.2,3.29,0,0-1.4,18.55-11.11,24.8C196.68,149.27,198.33,156.61,194.57,161.87Z" transform="translate(-45.68 -33.06)"/><path class="cls-14" d="M274.27,118.15s-10.22,18.15-50.43,17.78c0,0,16.93-4.44,25.75-9.63,0,0-25,7.78-34.21,10.37l10.93-8.15s-36,1.48-28.22,53a68.93,68.93,0,0,1-7.75-30.76c-.71-34.46,30-62.25,55-49.28S274.27,118.15,274.27,118.15Z" transform="translate(-45.68 -33.06)"/><path class="cls-14" d="M271.8,120a5.19,5.19,0,0,1-.19.52,9.91,9.91,0,0,1-.68,1.4,21.19,21.19,0,0,1-1.32,2,20.45,20.45,0,0,1-2.09,2.38,29.3,29.3,0,0,1-2.8,2.48c-.52.42-1.09.78-1.66,1.19a13.84,13.84,0,0,1-1.81,1.14l-1.93,1.08c-.65.36-1.35.63-2,1s-1.38.66-2.1.93l-2.18.78a41.79,41.79,0,0,1-4.41,1.3c-.74.18-1.46.41-2.19.55l-2.16.41a37.84,37.84,0,0,1-4.1.66l-3.7.4c-1.14.15-2.2.13-3.14.18l-2.42.08-2.1.05,2.09-.24,2.4-.25c.93-.11,2-.17,3.11-.36l3.65-.56c1.31-.15,2.65-.51,4.05-.78l2.13-.43c.72-.15,1.42-.39,2.15-.58a40,40,0,0,0,4.33-1.34l2.15-.74c.71-.25,1.38-.59,2.07-.88s1.38-.57,2-.91l1.91-1c.63-.32,1.21-.71,1.79-1.08s1.15-.7,1.68-1.09a30.47,30.47,0,0,0,2.84-2.31,12.72,12.72,0,0,0,1.17-1.14c.35-.38.71-.72,1-1.07a18.71,18.71,0,0,0,1.44-1.92,12.8,12.8,0,0,0,.8-1.33C271.73,120.18,271.8,120,271.8,120Z" transform="translate(-45.68 -33.06)"/><path class="cls-14" d="M206.91,131.86s-.37.66-1,1.84-1.41,2.9-2.31,5c-.45,1-.92,2.18-1.37,3.4s-.9,2.51-1.36,3.85-.87,2.74-1.23,4.18-.68,2.91-1,4.38-.51,3-.65,4.44c-.08.74-.15,1.47-.18,2.2s-.07,1.44-.06,2.14,0,1.4,0,2.07.06,1.34.11,2,.12,1.27.2,1.87.16,1.19.28,1.74c.2,1.11.46,2.11.68,3s.51,1.64.71,2.28l.74,2s-.33-.69-.92-1.88c-.24-.62-.56-1.37-.87-2.25a28.26,28.26,0,0,1-.87-3c-.14-.56-.26-1.14-.36-1.75s-.22-1.24-.29-1.9a30.23,30.23,0,0,1-.28-4.13c0-.72,0-1.45,0-2.19s.08-1.48.14-2.23c.13-1.51.35-3,.61-4.53s.64-3,1.05-4.44.84-2.86,1.3-4.22a66,66,0,0,1,3-7.2c1-2.06,2-3.7,2.64-4.85S206.91,131.86,206.91,131.86Z" transform="translate(-45.68 -33.06)"/><path class="cls-14" d="M284.5,138.9s.12.57.29,1.59.42,2.46.62,4.21.46,3.79.61,6,.28,4.54.32,6.9-.06,4.71-.22,6.91a42.61,42.61,0,0,1-.86,6,19.54,19.54,0,0,1-.66,2.33,14,14,0,0,1-.7,1.73,8,8,0,0,1-.58,1l-.23.35.18-.38c.12-.24.28-.61.46-1.09a16,16,0,0,0,.53-1.76c.17-.69.31-1.47.46-2.33a53.08,53.08,0,0,0,.57-5.94c.12-2.18.14-4.52.09-6.85s-.08-4.67-.19-6.86-.19-4.24-.32-6C284.65,141.24,284.5,138.9,284.5,138.9Z" transform="translate(-45.68 -33.06)"/><path class="cls-14" d="M174.82,120.74c-.38-.08-.75-.16-1.13-.21a4.68,4.68,0,0,0-1.12,0,2.12,2.12,0,0,0-1,.33,2,2,0,0,0-.42.34,3.21,3.21,0,0,0-.33.43,2.7,2.7,0,0,0-.23.49,3.4,3.4,0,0,0-.16.51,7.75,7.75,0,0,0-.18,1.09,17,17,0,0,0,0,2.26v0c.11.58.19,1.16.32,1.73s.34,1.13.54,1.68l.71,1.61.87,1.54,1,1.44c.38.45.78.89,1.16,1.33.2.21.43.39.65.59l.65.58c.23.18.48.33.71.49l.72.49h0l.61.36a6.06,6.06,0,0,0,.65.28,3.43,3.43,0,0,0,.69.21,4.06,4.06,0,0,0,.71.14,12,12,0,0,0,1.48.09l1.54,0h.81c.27,0,.51,0,.78.07a5.56,5.56,0,0,1,.85.21,3.88,3.88,0,0,1,.77.36,4.23,4.23,0,0,1,.7.46,6.27,6.27,0,0,1,.61.53c.39.37.75.74,1.1,1.13l0,0h0l.49.75.42.79a12.92,12.92,0,0,1,.62,1.67,17.14,17.14,0,0,1,.36,1.73c.08.58.13,1.15.16,1.73.1,2.33-.13,4.62-.25,6.91-.06-1.15-.06-2.3-.07-3.45s-.07-2.29-.18-3.42c-.06-.56-.13-1.12-.23-1.68a15,15,0,0,0-.42-1.63,10.87,10.87,0,0,0-.64-1.54l-.41-.71-.48-.67,0,0a10,10,0,0,0-2.24-1.93,3,3,0,0,0-.64-.28,4.74,4.74,0,0,0-.65-.16c-.23,0-.5,0-.76-.06h-.73l-1.56,0a10.83,10.83,0,0,1-1.6-.07,5.72,5.72,0,0,1-.81-.14,4.59,4.59,0,0,1-.8-.24,5.18,5.18,0,0,1-.76-.34l-.71-.43,0,0-.77-.53c-.26-.18-.53-.35-.77-.54l-.68-.63c-.23-.22-.47-.42-.68-.64-.4-.47-.81-.94-1.2-1.42l-1-1.52-.88-1.63c-.25-.56-.46-1.14-.69-1.71s-.33-1.19-.49-1.78-.17-1.23-.26-1.84h0a20.08,20.08,0,0,1,.15-2.32,5.66,5.66,0,0,1,.27-1.15,3,3,0,0,1,.22-.56,2.71,2.71,0,0,1,.3-.53,3.23,3.23,0,0,1,.4-.45,2.18,2.18,0,0,1,.49-.35,2.48,2.48,0,0,1,1.15-.29,4.83,4.83,0,0,1,1.15.14C174.09,120.51,174.45,120.62,174.82,120.74Z" transform="translate(-45.68 -33.06)"/><path class="cls-14" d="M195.7,153.52h-.89c-.19,0-.4-.06-.65-.11a6.66,6.66,0,0,1-1.69-.62,9.74,9.74,0,0,1-1.91-1.33c-.65-.55-1.29-1.22-2-1.89s-1.38-1.44-2.07-2.22-1.44-1.56-2.21-2.32a17,17,0,0,0-2.53-2,8.84,8.84,0,0,0-2.85-1.35,8.42,8.42,0,0,0-3-.11,14.22,14.22,0,0,0-2.84.7c-.43.16-.88.37-1.24.51s-.79.44-1.12.67a9.86,9.86,0,0,0-1.75,1.37,7.33,7.33,0,0,0-1,1.4c-.24.42-.42.76-.53,1l-.18.36s.05-.13.13-.38.21-.62.41-1.07a8.51,8.51,0,0,1,.91-1.54,8.63,8.63,0,0,1,1.72-1.6c.35-.26.71-.48,1.09-.73s.85-.43,1.31-.64a11.48,11.48,0,0,1,3-.87,9.57,9.57,0,0,1,3.37,0,8.75,8.75,0,0,1,1.66.58c.26.13.48.23.77.39l.74.46A18.57,18.57,0,0,1,185,144.4c.78.8,1.51,1.61,2.2,2.41,1.36,1.58,2.6,3.1,3.78,4.26a11.6,11.6,0,0,0,1.72,1.42,6.19,6.19,0,0,0,1.55.75l.62.18.48.05Z" transform="translate(-45.68 -33.06)"/><path class="cls-14" d="M287.32,153.72c.41-1.32.86-2.63,1.38-3.91a24.12,24.12,0,0,1,1.84-3.75,14.44,14.44,0,0,1,1.2-1.73,11.31,11.31,0,0,1,1.48-1.54,6.85,6.85,0,0,1,.86-.64,8.1,8.1,0,0,1,1-.53c.33-.16.69-.24,1-.37s.72-.12,1.09-.18l-.08,0,1.08-.27,1.11-.19a9.07,9.07,0,0,1,2.27,0c.79.05,1.47.27,2.16.35a4.6,4.6,0,0,0,2-.08,6.77,6.77,0,0,0,2.54-1.58,5.12,5.12,0,0,0,.61-.78,4.55,4.55,0,0,0,.68-1.85,6.24,6.24,0,0,0-.05-2,8.06,8.06,0,0,0-.65-2,9.49,9.49,0,0,0-1.08-1.78,7.37,7.37,0,0,0-.68-.8l-.18-.19-.18-.14-.44-.32a8.74,8.74,0,0,0-.88-.62l-.93-.48a5.23,5.23,0,0,0-1-.41c-.34-.11-.67-.26-1-.35a12.56,12.56,0,0,0-2.09-.45,1.87,1.87,0,0,0-1.74.84,6.67,6.67,0,0,0-.72,2,6.06,6.06,0,0,1,.56-2.11,2.13,2.13,0,0,1,1.93-1.08,12.47,12.47,0,0,1,2.18.32c.36.08.71.21,1.06.32a5.12,5.12,0,0,1,1.05.39l1,.48c.34.17.62.4.93.59l.45.31a1.25,1.25,0,0,1,.25.19l.21.19a10.09,10.09,0,0,1,.77.83,9.41,9.41,0,0,1,2,4,7.16,7.16,0,0,1,.08,2.31,5.47,5.47,0,0,1-.78,2.21,5.94,5.94,0,0,1-.71.94,7.17,7.17,0,0,1-.9.78,7.25,7.25,0,0,1-2.05,1.08,5.85,5.85,0,0,1-2.35.08c-.75-.1-1.47-.34-2.14-.38a8.35,8.35,0,0,0-2.06,0l-1,.17-1,.24h-.07c-.32.05-.64.08-1,.14s-.62.18-.91.31a7.16,7.16,0,0,0-.88.43,9,9,0,0,0-.81.56,10.5,10.5,0,0,0-1.44,1.39,14.08,14.08,0,0,0-1.23,1.62,31.16,31.16,0,0,0-2,3.57C288.39,151.17,287.86,152.45,287.32,153.72Z" transform="translate(-45.68 -33.06)"/><path class="cls-14" d="M287.67,151.12l.66-1,.35-.51c.14-.17.31-.35.49-.55a7.91,7.91,0,0,1,1.27-1.24l.79-.64a14.85,14.85,0,0,1,3.07-1.59,8.32,8.32,0,0,1,1.21-.33,5.56,5.56,0,0,1,1.27-.23l1.31-.1c.44,0,.88,0,1.32.08a6.69,6.69,0,0,1,2.6.68,8.23,8.23,0,0,1,2.13,1.44,10.39,10.39,0,0,1,1.57,1.79,14.48,14.48,0,0,1,2.17,4.73,7.41,7.41,0,0,1,.19.85l.06.3s-.14-.4-.43-1.09a18.31,18.31,0,0,0-1.38-2.72,14.73,14.73,0,0,0-1.17-1.64,12.32,12.32,0,0,0-1.57-1.58,8.25,8.25,0,0,0-2-1.24,5.86,5.86,0,0,0-2.3-.56c-.41,0-.82-.09-1.22-.1l-1.22.08a6.73,6.73,0,0,0-1.18.18,7.25,7.25,0,0,0-1.14.26,14.87,14.87,0,0,0-2.07.82c-.31.17-.64.3-.92.48l-.8.55a12.3,12.3,0,0,0-1.34,1.06c-.19.17-.38.32-.54.47l-.42.46C288,150.81,287.67,151.12,287.67,151.12Z" transform="translate(-45.68 -33.06)"/><path class="cls-15" d="M238.72,185.17s15.79-3.21,16-2.22-6.66,6.66-6.66,6.66S244.64,191.59,238.72,185.17Z" transform="translate(-45.68 -33.06)"/><path class="cls-12" d="M247.36,189.61a13.49,13.49,0,0,1,1.42-2.07,20,20,0,0,1,1.64-1.78,25.19,25.19,0,0,1,3.73-3l-.39,1.85a21.2,21.2,0,0,1-1.25-3,15.06,15.06,0,0,1-.44-1.63,10.47,10.47,0,0,1-.27-1.72,11.39,11.39,0,0,1,1.33,1.12,13.43,13.43,0,0,1,1.17,1.22,23.61,23.61,0,0,1,2,2.63l.64,1-1,.86a25.31,25.31,0,0,1-3.92,2.71,23.11,23.11,0,0,1-2.18,1.06A13.16,13.16,0,0,1,247.36,189.61Z" transform="translate(-45.68 -33.06)"/><ellipse class="cls-15" cx="171.32" cy="153.6" rx="11.35" ry="3.95"/><ellipse class="cls-15" cx="225.61" cy="153.6" rx="11.35" ry="3.95"/><path class="cls-12" d="M259.09,198.71l1.1.66a17.71,17.71,0,0,0,2.39,1.2,6,6,0,0,0,.67.24c.22.05.44.14.66.17a4.58,4.58,0,0,0,.63.1,4,4,0,0,0,.58,0l.51,0,.39,0h.37l-.31.2a3.15,3.15,0,0,1-.89.39,3.26,3.26,0,0,1-.65.12,3.11,3.11,0,0,1-.75,0,4.19,4.19,0,0,1-.78-.11,7.92,7.92,0,0,1-.79-.24,6.42,6.42,0,0,1-2.39-1.69A4.35,4.35,0,0,1,259.09,198.71Z" transform="translate(-45.68 -33.06)"/><path class="cls-12" d="M253.51,195.45a5.84,5.84,0,0,1,.79-.46,12.6,12.6,0,0,1,2.21-.86c.47-.13,1-.25,1.55-.35a15.56,15.56,0,0,1,1.77-.18,12.45,12.45,0,0,1,1.92.05,13.77,13.77,0,0,1,2,.33,15.85,15.85,0,0,1,1.94.67q.46.22.9.48a3.84,3.84,0,0,1,.84.53,7.86,7.86,0,0,1,1.41,1.26,7,7,0,0,1,1,1.34c.24.46.44.89.6,1.26a8.84,8.84,0,0,1,.25,1,8.69,8.69,0,0,1,.15.9s-.27-.23-.67-.62l-.68-.69c-.3-.23-.63-.48-1-.76a8.9,8.9,0,0,0-1.13-.76,10.35,10.35,0,0,0-1.32-.71c-.44-.25-1-.37-1.46-.6s-1.05-.33-1.59-.46-1.09-.28-1.66-.36c-.28,0-.55-.1-.82-.16l-.83-.11c-1.09-.17-2.13-.28-3-.39l-2.26-.26Z" transform="translate(-45.68 -33.06)"/><path class="cls-16" d="M265.62,194.55l38-27.64s-1-5.67,4.2-7.16,9.62,4.94,6.41,9.38-8.14,1-8.14,1l-37,26.65Z" transform="translate(-45.68 -33.06)"/><path class="cls-6" d="M307,165.06a2.59,2.59,0,1,0,2.59-2.59A2.59,2.59,0,0,0,307,165.06Z" transform="translate(-45.68 -33.06)"/><line class="cls-17" x1="263.12" y1="132.87" x2="228.08" y2="157.79"/><path class="cls-18" d="M234.52,142.56a8.81,8.81,0,0,1-.78,1.14,24.43,24.43,0,0,1-2.41,2.69,30,30,0,0,1-4,3.17c-.77.53-1.61,1-2.46,1.5s-1.75.91-2.67,1.29a27.2,27.2,0,0,1-2.81,1,22.29,22.29,0,0,1-2.81.72,18.76,18.76,0,0,1-2.69.39,18.48,18.48,0,0,1-2.43.08c-.76,0-1.45-.1-2.05-.16s-1.14-.22-1.57-.31c-.85-.2-1.32-.36-1.32-.36s.48-.19,1.31-.43c.41-.12.9-.26,1.46-.4s1.18-.41,1.85-.61,1.39-.48,2.15-.72,1.53-.55,2.34-.85,1.64-.64,2.48-1,1.68-.71,2.53-1.05,1.68-.76,2.53-1.1,1.65-.74,2.44-1.11l4.4-2,3.21-1.41Z" transform="translate(-45.68 -33.06)"/><path class="cls-18" d="M251,142.56l1.26.53,3.21,1.41,4.4,2c.79.37,1.62.71,2.44,1.11s1.67.76,2.53,1.1,1.68.74,2.53,1.05,1.66.68,2.48,1,1.58.62,2.34.85,1.47.55,2.14.72,1.3.41,1.86.61,1.05.28,1.46.4c.83.24,1.31.43,1.31.43s-.47.16-1.33.36c-.42.09-.95.23-1.56.31s-1.29.12-2.05.16a18.48,18.48,0,0,1-2.43-.08,18.76,18.76,0,0,1-2.69-.39,22.29,22.29,0,0,1-2.81-.72,27.2,27.2,0,0,1-2.81-1c-.92-.38-1.8-.85-2.68-1.29s-1.68-1-2.45-1.5a30,30,0,0,1-4-3.17,23.43,23.43,0,0,1-2.41-2.69A8.81,8.81,0,0,1,251,142.56Z" transform="translate(-45.68 -33.06)"/><path class="cls-9" d="M210.83,165.92s1,15.8,9.55,15.8c11.92,0,12.5-17.77,12.5-17.77s-3.29-9-10.86-9.38C222,154.57,213.38,155.81,210.83,165.92Z" transform="translate(-45.68 -33.06)"/><path class="cls-18" d="M211.16,164.28s.13.55.42,1.46c.15.45.35,1,.59,1.59a20,20,0,0,0,1,1.92c.2.33.43.65.66,1s.49.65.79.94a6.8,6.8,0,0,0,.94.83l.52.37a6.12,6.12,0,0,0,.56.31,5.63,5.63,0,0,0,1.21.51,8,8,0,0,0,1.32.32,8.13,8.13,0,0,0,1.41.12l.36,0H221c-.05,0,.13,0-.11,0h0l.21,0,.81-.07c.26,0,.58,0,.79-.08l.61-.16c.21-.07.41-.08.62-.16l.63-.26a9.26,9.26,0,0,0,2.31-1.42,14.11,14.11,0,0,0,1.87-1.92c.52-.7,1-1.39,1.41-2.07A33.53,33.53,0,0,0,232,164c.38-.88.58-1.41.58-1.41s0,.14,0,.41a9.65,9.65,0,0,1,0,1.14,16.48,16.48,0,0,1-.78,4c-.15.4-.29.83-.47,1.27s-.4.87-.65,1.31a12.3,12.3,0,0,1-1.91,2.62,8.78,8.78,0,0,1-1.33,1.16,7.3,7.3,0,0,1-1.57,1l-.85.39a5.54,5.54,0,0,1-.95.29l-1,.23c-.32.07-.56.06-.85.1l-.81.06h-.55l-.46,0a9.36,9.36,0,0,1-1.82-.24,8.09,8.09,0,0,1-1.75-.55l-.83-.37a8.18,8.18,0,0,1-.76-.48c-.25-.18-.5-.33-.72-.52s-.42-.4-.62-.6a8.77,8.77,0,0,1-1-1.26c-.3-.43-.53-.89-.77-1.31s-.36-.88-.5-1.3a12.36,12.36,0,0,1-.57-4.11A8.52,8.52,0,0,1,211.16,164.28Z" transform="translate(-45.68 -33.06)"/><path class="cls-9" d="M275.32,165.92s-1,16.16-9.54,15.8c-11.51-.5-12.5-17.77-12.5-17.77s3.29-9,10.86-9.38C264.14,154.57,272.77,155.81,275.32,165.92Z" transform="translate(-45.68 -33.06)"/><path class="cls-18" d="M275.32,164.28a7.51,7.51,0,0,1,.16,1.54,12.1,12.1,0,0,1-.57,4.11c-.14.42-.32.85-.5,1.3a12,12,0,0,1-.77,1.31,8.69,8.69,0,0,1-1,1.26c-.2.2-.41.41-.62.6s-.48.34-.72.52-.49.35-.76.48l-.83.37a8.36,8.36,0,0,1-1.76.55,9.26,9.26,0,0,1-1.81.24l-.46,0h-.55l-.82-.06c-.28,0-.52,0-.84-.1l-1-.23a5.82,5.82,0,0,1-.95-.29l-.85-.39a7.82,7.82,0,0,1-1.57-1,9.87,9.87,0,0,1-1.33-1.16,12.66,12.66,0,0,1-1.91-2.62c-.25-.44-.45-.88-.65-1.31s-.32-.87-.47-1.27a16.48,16.48,0,0,1-.78-4c0-.49,0-.88,0-1.14a3.24,3.24,0,0,1,0-.41s.2.53.58,1.41a31.63,31.63,0,0,0,1.76,3.47c.41.68.89,1.37,1.41,2.07a14,14,0,0,0,1.86,1.92,9.45,9.45,0,0,0,2.31,1.42l.63.26c.22.08.42.09.62.16l.62.16c.21.05.52.05.78.08l.82.07.2,0h0c-.23,0-.06,0-.11,0h.14l.36,0a7.93,7.93,0,0,0,1.4-.12,8.07,8.07,0,0,0,1.33-.32,5.35,5.35,0,0,0,1.2-.51,6.28,6.28,0,0,0,.57-.31L271,172a6.89,6.89,0,0,0,.95-.83c.3-.29.52-.64.79-.94s.46-.65.65-1a16.18,16.18,0,0,0,.95-1.92c.25-.6.45-1.14.59-1.59C275.2,164.83,275.32,164.28,275.32,164.28Z" transform="translate(-45.68 -33.06)"/><polygon class="cls-10" points="161.94 396.72 186.71 410.74 183.04 453.02 161.98 436.58 161.94 396.72"/><polygon class="cls-19" points="278.71 399.07 186.71 410.74 183.04 453.02 275.93 441.4 278.71 399.07"/><polygon class="cls-20" points="161.94 396.72 257.58 383.51 278.71 399.07 186.71 410.74 161.94 396.72"/><path class="cls-10" d="M234.56,433.36a3,3,0,0,0,3.4,2.54l62.74-7a3,3,0,0,0,2.54-3.4h0a3,3,0,0,0-3.4-2.54l-62.74,7a3,3,0,0,0-2.54,3.39Z" transform="translate(-45.68 -33.06)"/><path class="cls-16" d="M245.32,435.72s5.88-18.32-7.88-22.56-6.23-21-6.23-21l64.21-7.28s-11.56,13.27.11,18.72,2.33,25.54,2.33,25.54Z" transform="translate(-45.68 -33.06)"/><path class="cls-21" d="M290.54,398.19c-1.47-6,4.88-13.3,4.88-13.3l-64.21,7.28s-4.69,10.47.14,16.95C251,404.74,270.51,399.47,290.54,398.19Z" transform="translate(-45.68 -33.06)"/><path class="cls-21" d="M269.29,425.2c-7.58,1.09-15.18,2.14-22.76,3.26a31.66,31.66,0,0,1-1.21,7.26l52.54-6.57a45.62,45.62,0,0,0,2.88-8.92C290.25,421.9,279.79,423.69,269.29,425.2Z" transform="translate(-45.68 -33.06)"/></g></svg>