<svg xmlns="http://www.w3.org/2000/svg" xmlns:xlink="http://www.w3.org/1999/xlink" viewBox="0 0 400.24 409.51"><defs><style>.cls-1{fill:none;}.cls-2{isolation:isolate;}.cls-3{fill:#b9e2fe;}.cls-4{clip-path:url(#clip-path);}.cls-5{fill:#fff;}.cls-6{fill:#0079db;}.cls-7{fill:#111a56;}.cls-8{fill:#190097;}.cls-9{opacity:0.5;mix-blend-mode:multiply;}.cls-10{fill:#ff1076;}</style><clipPath id="clip-path" transform="translate(0.24 -0.18)"><path id="SVGID" class="cls-1" d="M400,366.4C400,385,386.16,400,369.09,400H30.67C13.61,400-.24,385-.24,366.4V33.78C-.24,15.22,13.61.18,30.67.18H369.09c17.07,0,30.91,15,30.91,33.6Z"/></clipPath></defs><g class="cls-2"><g id="Layer_1" data-name="Layer 1"><path class="cls-3" d="M400,366.4C400,385,386.16,400,369.09,400H30.67C13.61,400-.24,385-.24,366.4V33.78C-.24,15.22,13.61.18,30.67.18H369.09c17.07,0,30.91,15,30.91,33.6Z" transform="translate(0.24 -0.18)"/><g class="cls-4"><path class="cls-5" d="M279.5,107.44c-.28,11.5-.46,25-1.17,39.28-.52,11.19-1.37,22.84-2.85,34.38-.81,6.2-1.76,12.33-3,18.35-7,35.76-21.9,66.91-54,74a63.08,63.08,0,0,1-12.37,1.5,100.53,100.53,0,0,1-31.1-4.1c-15.9-4.68-30.68-13.8-38.36-28.82-6.39-12.46-10.55-27.4-13.26-43-1-5.94-1.87-12-2.54-17.93-1.2-10.93-1.83-21.77-2.19-31.93-.07-2.37-.14-4.71-.17-7-.67-32-6.52-69.17,9.66-96.77,10.43-17.78,29.51-26.48,48.27-28,15.79-1.34,32.15-5,47.49,1.23,14.67,6,29.65,15.1,40.23,28C277.31,62.6,280,86.17,279.5,107.44Z" transform="translate(0.24 -0.18)"/><path class="cls-5" d="M123.41,199a7.56,7.56,0,0,1-1.73.38c-3.52.31-8-.42-10.89-2.68-4.69-3.6-7.51-12.11-9.35-17.86-2.08-6.44-4.72-13.52-4.09-20.5,1-10.27,12.2-16,19.82-10.46a12.15,12.15,0,0,1,1.51,1.26A364.51,364.51,0,0,0,123.41,199Z" transform="translate(0.24 -0.18)"/><path class="cls-5" d="M292.05,178.87c-1.87,5.75-4.65,14.26-9.38,17.86-2.68,2.11-6.73,2.88-10.15,2.72,3.42-17.24,5-35.52,5.81-52.73,7.44-3.34,16.93,2.26,17.77,11.65C296.78,165.35,294.09,172.43,292.05,178.87Z" transform="translate(0.24 -0.18)"/><polygon class="cls-6" points="48.48 178.69 62.4 244.44 75.1 226.03 85.39 264.17 93.6 244.44 113.28 276.88 96.89 206.96 87.81 227.78 80.88 193.15 64.22 212.88 48.48 178.69"/><polygon class="cls-6" points="345.51 178.69 331.6 244.44 318.89 226.03 308.61 264.17 300.39 244.44 280.71 276.88 297.11 206.96 306.19 227.78 313.11 193.15 329.78 212.88 345.51 178.69"/><path class="cls-7" d="M279.5,107.44c-.28,11.5-.46,25-1.17,39.28-.52,11.19-1.37,22.84-2.85,34.38H262.19V136.87C246,127,248.61,110.62,248.61,110.62c-53.24,2.49-73.44-26.25-73.44-26.25-9.91,51.39-41.68,56.07-41.68,56.07V181.1H120.87c-1.2-10.93-1.83-21.77-2.19-31.93-.07-2.37-.14-4.71-.17-7-.67-32-6.52-69.17,9.66-96.77,10.43-17.78,29.51-26.48,48.27-28,15.79-1.34,32.15-5,47.49,1.23,14.67,6,29.65,15.1,40.23,28C277.31,62.6,280,86.17,279.5,107.44Z" transform="translate(0.24 -0.18)"/><path class="cls-6" d="M369.51,409.69H26.94c5.29-69,44.67-82.39,44.67-82.39l126.62-41.51L324.84,327.3S364.22,340.71,369.51,409.69Z" transform="translate(0.24 -0.18)"/><path class="cls-8" d="M218.5,304.61v10.54c-25.81,15.06-43.47,0-43.47,0V304.61S192.69,319.67,218.5,304.61Z" transform="translate(0.24 -0.18)"/><path class="cls-5" d="M218.5,273.45v31.16c-25.81,15.06-43.47,0-43.47,0V270.85a100.53,100.53,0,0,0,31.1,4.1A63.08,63.08,0,0,0,218.5,273.45Z" transform="translate(0.24 -0.18)"/><g class="cls-9"><ellipse class="cls-10" cx="197" cy="304.43" rx="47.6" ry="51.74"/></g><g class="cls-9"><path class="cls-10" d="M196.76,385.09c-40.82,0-74-36.1-74-80.48s33.22-80.48,74-80.48,74.05,36.1,74.05,80.48S237.59,385.09,196.76,385.09Zm0-153.29c-36.93,0-67,32.66-67,72.81s30.06,72.81,67,72.81,67-32.66,67-72.81S233.7,231.8,196.76,231.8Z" transform="translate(0.24 -0.18)"/></g></g></g></g></svg>