<svg id="Layer_1" data-name="Layer 1" xmlns="http://www.w3.org/2000/svg" xmlns:xlink="http://www.w3.org/1999/xlink" viewBox="0 0 434.15 410.25"><defs><style>.cls-1{fill:none;}.cls-2{fill:#b9e2fe;}.cls-3{clip-path:url(#clip-path);}.cls-4{fill:#0079db;}.cls-5{fill:#fff;}.cls-6{fill:#111a56;}.cls-7{fill:#85bfed;}</style><clipPath id="clip-path" transform="translate(-0.36 -6.64)"><path class="cls-1" d="M400,366.94C400,385.2,386.19,400,369.14,400H31.23c-17,0-30.87-14.8-30.87-33.06V39.69c0-18.26,13.82-33,30.87-33H369.14C386.19,6.64,400,21.43,400,39.69Z"/></clipPath></defs><path class="cls-2" d="M400,366.94C400,385.2,386.19,400,369.14,400H31.23c-17,0-30.87-14.8-30.87-33.06V39.69c0-18.26,13.82-33,30.87-33H369.14C386.19,6.64,400,21.43,400,39.69Z" transform="translate(-0.36 -6.64)"/><g class="cls-3"><path class="cls-4" d="M434.51,134.75v230l-181.8-94.48a12.08,12.08,0,0,0-2-6.83,14.42,14.42,0,0,0,2.29-7.88Z" transform="translate(-0.36 -6.64)"/><path class="cls-5" d="M261.72,221.35a20.56,20.56,0,0,1-3.66,7.47l-10,8.48s-2.29,6,.31,9.88a11.39,11.39,0,0,1,4.44,6.9c.07.45.14.94.18,1.47a14.42,14.42,0,0,1-2.29,7.88,12.08,12.08,0,0,1,2,6.83,9.05,9.05,0,0,1-.42,2.67,11,11,0,0,1-2.85,4.6,157.33,157.33,0,0,0,.63,26.85s4.29,27.86-18.77,27.86H177.58s-3.28,53.28,3,75.52h-115l.64-2.83s15.1-52.56,11.33-95.42A257.61,257.61,0,0,0,68,268a252.12,252.12,0,0,0-18.38-44.3S32.21,193,34.47,153.37c0,0,3.76-66.35,66.47-93.84,0,0,99-32,126.84,42.34.85,2.23,1.62,4.56,2.33,7,0,0,4.54,30.76,5.28,51.8,0,0,1.51,21,15.1,31.52C250.49,192.17,265.38,206.65,261.72,221.35Z" transform="translate(-0.36 -6.64)"/><path class="cls-6" d="M145.68,100.89c3.7,30.92-8.9,43.25-8.9,43.25l14.68,51.12-12,8.07c-15.21-56.52-42.5-28.84-42.5-28.84C73.34,184,82.49,237.94,82.49,237.94,83.26,256,75,264.3,68,268a252.12,252.12,0,0,0-18.38-44.3S32.21,193,34.47,153.37c0,0,3.76-66.35,66.47-93.84,0,0,99-32,126.84,42.34C185.11,116.61,145.68,100.89,145.68,100.89Z" transform="translate(-0.36 -6.64)"/><path class="cls-6" d="M92.31,223.89c5.63,9.05,16.11,13,24.41,5.36,9.31-8.58,8.42-20.56,5.35-32.33-2.53-9.68-5.43-23.07-14.43-28.2-7.07-4-17.43-3.76-23.2,2.91C73.6,184.2,85,212.21,92.31,223.89Z" transform="translate(-0.36 -6.64)"/><path class="cls-7" d="M248.1,237.3l10-8.48a20.56,20.56,0,0,0,3.66-7.47c-103.38,2.56-118.54,83-120.22,95.34v.05c-23.23,35.11-31.47,74.92-34,91-.74,4.49-1,7.13-1,7.32L124,416.89c0-.12.35-3.47,1.27-9.13,2.18-13.05,7.71-38.34,20.52-63.53,23.38-45.85,59.15-69.83,106.47-71.3,1.58-5.09-1.55-9.5-1.55-9.5,2.22-3.73,2.57-6.86,2.11-9.35-38.44.94-66.93,15.12-88,34.73C175.78,267.62,199,242.43,248.1,237.3Z" transform="translate(-0.36 -6.64)"/><path class="cls-5" d="M94.22,218.17c5.63,9.05,16.11,13,24.41,5.36,9.31-8.58,8.42-20.56,5.35-32.32-2.54-9.69-5.43-23.08-14.43-28.21-7.07-4-17.44-3.76-23.2,2.91C75.51,178.48,86.94,206.49,94.22,218.17Z" transform="translate(-0.36 -6.64)"/><ellipse class="cls-6" cx="277.88" cy="252.4" rx="4.53" ry="4.85"/><path class="cls-6" d="M320.72,281.52a7.74,7.74,0,1,1-7.73-8.27A8,8,0,0,1,320.72,281.52Z" transform="translate(-0.36 -6.64)"/><path class="cls-6" d="M344.56,240.31a3.17,3.17,0,1,1-3.16-3.38A3.29,3.29,0,0,1,344.56,240.31Z" transform="translate(-0.36 -6.64)"/><path class="cls-6" d="M327.1,241.78a4.55,4.55,0,1,1-4.53-4.85A4.71,4.71,0,0,1,327.1,241.78Z" transform="translate(-0.36 -6.64)"/><path class="cls-6" d="M342.91,218.24a4.39,4.39,0,1,1-4.38-4.69A4.55,4.55,0,0,1,342.91,218.24Z" transform="translate(-0.36 -6.64)"/><ellipse class="cls-6" cx="359.65" cy="210.51" rx="5.71" ry="6.11"/><path class="cls-6" d="M383.51,203.48a3.7,3.7,0,1,1-3.69-4A3.83,3.83,0,0,1,383.51,203.48Z" transform="translate(-0.36 -6.64)"/><path class="cls-6" d="M385.19,235.49a5.38,5.38,0,1,1-5.37-5.75A5.56,5.56,0,0,1,385.19,235.49Z" transform="translate(-0.36 -6.64)"/><path class="cls-6" d="M365.72,263.18c0,5-3.76,9-8.4,9s-8.39-4-8.39-9,3.75-9,8.39-9S365.72,258.21,365.72,263.18Z" transform="translate(-0.36 -6.64)"/><path class="cls-6" d="M370.42,302.56a6.57,6.57,0,1,1-6.55-7A6.78,6.78,0,0,1,370.42,302.56Z" transform="translate(-0.36 -6.64)"/><ellipse class="cls-6" cx="381.48" cy="270.21" rx="3.36" ry="3.6"/><path class="cls-6" d="M341.4,292.78a2.79,2.79,0,1,1-2.79-3A2.89,2.89,0,0,1,341.4,292.78Z" transform="translate(-0.36 -6.64)"/><path class="cls-6" d="M334.15,267.23a5.8,5.8,0,1,1-5.79-6.21A6,6,0,0,1,334.15,267.23Z" transform="translate(-0.36 -6.64)"/><path class="cls-6" d="M305.27,250.77a3.87,3.87,0,1,1-3.86-4.13A4,4,0,0,1,305.27,250.77Z" transform="translate(-0.36 -6.64)"/><path class="cls-6" d="M297.55,272.89a3.7,3.7,0,1,1-3.7-4A3.84,3.84,0,0,1,297.55,272.89Z" transform="translate(-0.36 -6.64)"/></g></svg>