<svg id="Layer_1" data-name="Layer 1" xmlns="http://www.w3.org/2000/svg" viewBox="0 0 400 399.77"><defs><style>.cls-1{fill:#b9e2fe;}.cls-2{fill:#bbb400;}.cls-3{fill:#fff;}.cls-4{fill:#111a56;}.cls-5{fill:#0079db;}.cls-6{fill:#0015ff;}</style></defs><path class="cls-1" d="M400,366.18c0,18.55-13.83,33.59-30.89,33.59H30.89c-17.06,0-30.89-15-30.89-33.59V33.6C0,15,13.83,0,30.89,0H369.11C386.17,0,400,15,400,33.6Z"/><polygon class="cls-2" points="194.44 219.17 194.44 228.68 163.36 228.68 163.36 224.99 177.37 219.17 179.89 218.11 194.44 219.17"/><polygon class="cls-2" points="238.18 224.99 238.18 228.68 207.07 228.68 207.07 219.17 221.65 218.11 224.17 219.17 238.18 224.99"/><path class="cls-3" d="M254.71,131.49c-3.91,7.93-13.62,2.63-13.62,2.63l-21.63-17.44.81,37.69,1.26,58.23.12,5.51-14.58,1.06V174.8H194.44v44.37l-14.55-1.06.13-5.51,1.22-57.35,0-.88.78-37.69-12.17,9.83-9.46,7.61s-9.71,5.3-13.59-2.63c0,0-8.26-5.3,6.82-16.39l7.48-5.83L191.05,86h19.44L247.9,115.1C262.94,126.19,254.71,131.49,254.71,131.49Z"/><polygon class="cls-4" points="231.66 126.5 219.49 116.68 220.3 155.25 181.24 155.25 182.05 116.68 169.88 126.5 161.13 109.27 191.06 86.04 210.49 86.04 240.41 109.27 231.66 126.5"/><path class="cls-5" d="M228.86,61.65c0,16.88-12.58,30.56-28.1,30.56s-28.09-13.68-28.09-30.56S185.25,31.1,200.76,31.1,228.86,44.78,228.86,61.65Z"/><polygon class="cls-3" points="207.07 174.8 194.44 174.8 194.44 219.17 179.89 218.11 180.01 212.6 181.24 155.25 181.28 154.37 220.27 154.37 221.53 212.6 221.65 218.11 207.07 219.17 207.07 174.8"/><path class="cls-1" d="M184,124.86c0-26.53-19.85-48.11-44.24-48.11S95.53,98.33,95.53,124.86a51.23,51.23,0,0,0,6.29,24.74L79.06,167.27l24.61,48.5.49-.4L103.73,236h72.08l-.43-20.63.49.4,24.61-48.5-22.77-17.68A51.27,51.27,0,0,0,184,124.86Z"/><path class="cls-1" d="M322.48,167.27l-22.77-17.68A51.16,51.16,0,0,0,306,124.86c0-26.53-19.84-48.11-44.24-48.11s-44.23,21.58-44.23,48.11a51.23,51.23,0,0,0,6.29,24.74l-22.76,17.67,24.62,48.5.49-.4L225.73,236h72.08l-.43-20.63.49.4Z"/><polygon class="cls-4" points="170.66 189.7 158.49 179.88 159.3 218.45 120.24 218.45 121.05 179.88 108.88 189.7 100.14 172.47 130.05 149.23 149.49 149.23 179.41 172.47 170.66 189.7"/><path class="cls-5" d="M167.86,124.86c0,16.86-12.58,30.54-28.1,30.54s-28.09-13.68-28.09-30.54S124.24,94.3,139.76,94.3,167.86,108,167.86,124.86Z"/><polygon class="cls-4" points="292.66 189.7 280.49 179.88 281.3 218.45 242.24 218.45 243.05 179.88 230.88 189.7 222.13 172.47 252.06 149.23 271.49 149.23 301.41 172.47 292.66 189.7"/><path class="cls-5" d="M289.86,124.86c0,16.86-12.58,30.54-28.1,30.54s-28.09-13.68-28.09-30.54S246.25,94.3,261.76,94.3,289.86,108,289.86,124.86Z"/><path class="cls-1" d="M358.87,259.6l-.48-.39L359.55,313l16.75,7v33.31H269.21V320L286,313l1.16-53.78-.48.43-.58-1.16a28.79,28.79,0,0,1-10.3,2,22.43,22.43,0,0,1-14-4.75,22.37,22.37,0,0,1-14,4.75,28.64,28.64,0,0,1-10.26-2l-.59,1.12-.48-.39L237.54,313l16.79,7v33.31H147.23V320L164,313l1.19-53.78-.51.43-.55-1.16a28.92,28.92,0,0,1-10.3,2,22.31,22.31,0,0,1-14-4.75,22.43,22.43,0,0,1-14,4.75,28.79,28.79,0,0,1-10.3-2l-.58,1.12-.48-.39,1.2,53.78,16.75,7v33.31H25.22V320L42,313l1.16-53.78-.48.43-.58-1.16a28.79,28.79,0,0,1-10.3,2,22.54,22.54,0,0,1-15-5.48v-42.5a54.61,54.61,0,0,1,5.3-4.46L40.87,193.4a50.64,50.64,0,0,1-6.36-24.71c0-26.49,19.86-48.08,44.26-48.08S123,142.2,123,168.69a50.61,50.61,0,0,1-6.32,24.71l19,14.75a46.13,46.13,0,0,1,4.13,3.37A53,53,0,0,1,144.1,208l18.75-14.61a50.94,50.94,0,0,1-6.33-24.71c0-26.49,19.85-48.08,44.26-48.08S245,142.2,245,168.69a50.62,50.62,0,0,1-6.33,24.71l19,14.75a50.85,50.85,0,0,1,4.13,3.37,53.36,53.36,0,0,1,4.3-3.51l18.78-14.61a50.51,50.51,0,0,1-6.33-24.71c0-26.49,19.86-48.08,44.23-48.08S367,142.2,367,168.69a50.94,50.94,0,0,1-6.33,24.71l18.95,14.75c1.26.94,2.45,1.89,3.58,2.88V256.2a22.77,22.77,0,0,1-13.49,4.25,28.92,28.92,0,0,1-10.3-2Z"/><polygon class="cls-4" points="72.44 326.22 72.44 335.73 41.36 335.73 41.36 332.05 55.37 326.22 57.88 325.17 72.44 326.22"/><polygon class="cls-4" points="116.18 332.05 116.18 335.73 85.06 335.73 85.06 326.22 99.65 325.17 102.17 326.22 116.18 332.05"/><path class="cls-5" d="M132.71,238.54c-3.91,7.93-13.63,2.63-13.63,2.63L97.46,223.73l.8,37.7,1.26,58.23.13,5.51-14.59,1.05V281.85H72.44v44.37l-14.56-1.05.13-5.51,1.23-57.36,0-.87.78-37.7-12.17,9.83-9.46,7.61s-9.71,5.3-13.59-2.63c0,0-8.26-5.29,6.81-16.39l7.49-5.83,29.92-23.23H88.48l37.42,29.06C140.94,233.25,132.71,238.54,132.71,238.54Z"/><polygon class="cls-4" points="109.66 233.56 97.49 223.73 98.3 262.3 59.24 262.3 60.05 223.73 47.88 233.56 39.13 216.32 69.05 193.09 88.48 193.09 118.41 216.32 109.66 233.56"/><path class="cls-5" d="M106.86,168.71c0,16.87-12.58,30.55-28.1,30.55s-28.09-13.68-28.09-30.55,12.58-30.55,28.09-30.55S106.86,151.83,106.86,168.71Z"/><polygon class="cls-6" points="85.06 281.85 72.44 281.85 72.44 326.22 57.88 325.17 58.02 319.66 59.24 262.3 59.27 261.43 98.26 261.43 99.52 319.66 99.65 325.17 85.06 326.22 85.06 281.85"/><polygon class="cls-4" points="194.44 326.22 194.44 335.73 163.36 335.73 163.36 332.05 177.37 326.22 179.89 325.17 194.44 326.22"/><polygon class="cls-4" points="238.18 332.05 238.18 335.73 207.07 335.73 207.07 326.22 221.65 325.17 224.17 326.22 238.18 332.05"/><path class="cls-5" d="M254.71,238.54c-3.91,7.93-13.62,2.63-13.62,2.63l-21.63-17.44.81,37.7,1.26,58.23.12,5.51-14.58,1.05V281.85H194.44v44.37l-14.55-1.05.13-5.51,1.22-57.36,0-.87.78-37.7-12.17,9.83-9.46,7.61s-9.71,5.3-13.59-2.63c0,0-8.26-5.29,6.82-16.39l7.48-5.83,29.92-23.23h19.44l37.41,29.06C262.94,233.25,254.71,238.54,254.71,238.54Z"/><polygon class="cls-4" points="231.66 233.56 219.49 223.73 220.3 262.3 181.24 262.3 182.05 223.73 169.88 233.56 161.13 216.32 191.06 193.09 210.49 193.09 240.41 216.32 231.66 233.56"/><ellipse class="cls-5" cx="200.76" cy="168.71" rx="28.09" ry="30.55"/><polygon class="cls-6" points="207.07 281.85 194.44 281.85 194.44 326.22 179.89 325.17 180.01 319.66 181.24 262.3 181.28 261.43 220.27 261.43 221.53 319.66 221.65 325.17 207.07 326.22 207.07 281.85"/><polygon class="cls-4" points="316.44 326.22 316.44 335.73 285.36 335.73 285.36 332.05 299.37 326.22 301.88 325.17 316.44 326.22"/><polygon class="cls-4" points="360.18 332.05 360.18 335.73 329.06 335.73 329.06 326.22 343.65 325.17 346.17 326.22 360.18 332.05"/><path class="cls-5" d="M376.71,238.54c-3.91,7.93-13.62,2.63-13.62,2.63l-21.63-17.44.8,37.7,1.26,58.23.13,5.51-14.59,1.05V281.85H316.44v44.37l-14.55-1.05.13-5.51,1.22-57.36,0-.87.77-37.7-12.17,9.83-9.46,7.61s-9.71,5.3-13.58-2.63c0,0-8.27-5.29,6.81-16.39l7.48-5.83,29.93-23.23h19.42l37.42,29.06C384.94,233.25,376.71,238.54,376.71,238.54Z"/><polygon class="cls-4" points="353.66 233.56 341.49 223.73 342.3 262.3 303.24 262.3 304.05 223.73 291.88 233.56 283.13 216.32 313.06 193.09 332.48 193.09 362.41 216.32 353.66 233.56"/><path class="cls-5" d="M350.86,168.71c0,16.87-12.58,30.55-28.09,30.55s-28.1-13.68-28.1-30.55,12.58-30.55,28.1-30.55S350.86,151.83,350.86,168.71Z"/><polygon class="cls-6" points="329.06 281.85 316.44 281.85 316.44 326.22 301.88 325.17 302.02 319.66 303.24 262.3 303.27 261.43 342.26 261.43 343.52 319.66 343.65 325.17 329.06 326.22 329.06 281.85"/></svg>