<svg id="Layer_1" data-name="Layer 1" xmlns="http://www.w3.org/2000/svg" xmlns:xlink="http://www.w3.org/1999/xlink" viewBox="0 0 433.2 399.86"><defs><style>.cls-1{fill:none;}.cls-2{fill:#b9e2fe;}.cls-3{clip-path:url(#clip-path);}.cls-4{fill:#85bfed;}.cls-5{fill:#0079db;}.cls-6{fill:#111a56;}</style><clipPath id="clip-path" transform="translate(15.81 -0.14)"><path class="cls-1" d="M400,366.39C400,385,386.2,400,369.16,400H31.47C14.44,400,.63,385,.63,366.39V33.75C.63,15.19,14.44.14,31.47.14H369.16C386.2.14,400,15.19,400,33.75Z"/></clipPath></defs><path class="cls-2" d="M400,366.39C400,385,386.2,400,369.16,400H31.47C14.44,400,.63,385,.63,366.39V33.75C.63,15.19,14.44.14,31.47.14H369.16C386.2.14,400,15.19,400,33.75Z" transform="translate(15.81 -0.14)"/><g class="cls-3"><path class="cls-4" d="M305.9,250s-7.88,25.95-31.24,8.82l1.34-1.46,3.13-3.41s-4.65-9.5-8.13-12.34c0,0-20.48-13.84-31.77-17.63,1.76,1.41,22.69,17.86,33.74,36.68a54.84,54.84,0,0,1,5,10.69s3.2,16.44-13.65,21.5a27.15,27.15,0,0,1-15.93-3.18l0,.19a33.43,33.43,0,0,1,.35,6.13c-.1,3.84-.95,8.43-4.18,10.77,0,0-12.18,10.73-28.75-3.79a14.19,14.19,0,0,1-2.5,2.53l-.17.15c-4,3.18-12.74,7.09-26.07-1.73l-8.62-6.32-5.6-4.18a39.31,39.31,0,0,0,1.94-4.9c1.8-5.9,1.72-12.15-2.82-16.56-5.73-5.59-14.28.62-19.38,6.75-18.09-13.15-38.7-28-49.82-35.38C99.7,241.21,97.3,239.72,96,239c0,0-7.92-4.1-19.74-9.81-26.46-12.8-72.37-33.81-92-35.38L-9.3,77.18l123.49,63.73s13.33,5.49,33.63,1.31c-.17,5.59-.17,10.73-.17,10.73,1.48,35.11,16.15,34.15,16.15,34.15,16.11-.62,17.27-25.53,17.27-25.53.85-.31,1.62-.65,2.36-1,0,0,0,0,.07,0C191,157,193.77,152,193.77,152l2.29,1.5L241.55,183l17.06,11.07,3.2,2.07L282.5,209.6s16.5,9,22.17,33.57C305.16,245.31,305.58,247.58,305.9,250Z" transform="translate(15.81 -0.14)"/><path class="cls-5" d="M417.39,207.22,323,233.09s-10.24,8-18.33,10.08C299,218.56,282.5,209.6,282.5,209.6l-20.69-13.46-3.2-2.07L241.55,183l-45.49-29.55-2.29-1.5s-2.74,5-10.27,8.59a25.32,25.32,0,0,1-2.43,1s-1.16,24.91-17.27,25.53c0,0-14.67,1-16.15-34.15,0,0,0-5.14.17-10.73.21-5.25.6-10.89,1.31-12.92,0,0,5.87-12.76,53.37-19.16,0,0,49.53,7,84.72,31.62A47.35,47.35,0,0,0,311,139.19L414.75,90Z" transform="translate(15.81 -0.14)"/><path class="cls-5" d="M274.48,258.65l.18.12L273,260.61c-11.19-19.05-32.51-35.68-33.81-36.72,11.29,3.79,31.84,17.67,31.84,17.67,3.48,2.84,8.13,12.34,8.13,12.34Z" transform="translate(15.81 -0.14)"/><polygon class="cls-6" points="231.65 302.77 204.12 275.55 228.96 305.44 231.65 302.77"/><path class="cls-6" d="M248.76,295.94,211.51,251l36.87,38.6,0,.19A33.43,33.43,0,0,1,248.76,295.94Z" transform="translate(15.81 -0.14)"/><path class="cls-6" d="M232.9,297.2c2.77-3.22,5.52-5.32,6.14-4.68s-1.12,3.76-3.9,7-5.52,5.31-6.14,4.68S230.13,300.42,232.9,297.2Z" transform="translate(15.81 -0.14)"/><path class="cls-6" d="M258.79,271.32c2.78-3.22,5.53-5.32,6.15-4.68s-1.13,3.76-3.9,7-5.53,5.32-6.15,4.68S256,274.54,258.79,271.32Z" transform="translate(15.81 -0.14)"/><path class="cls-6" d="M287.33,236.19c2.77-3.22,5.52-5.32,6.14-4.68s-1.12,3.76-3.9,7-5.52,5.31-6.14,4.68S284.56,239.41,287.33,236.19Z" transform="translate(15.81 -0.14)"/><path class="cls-6" d="M283.6,182.15a56.15,56.15,0,0,1-15,11c-2.36,1.14-4.64,2.18-6.83,3l-3.2-2.07c2.72-1.15,5.67-2.49,8.73-4a81.41,81.41,0,0,0,14.81-9.74c3.41-3.06,5.52-5.09,5.88-4.79S286.79,178.43,283.6,182.15Z" transform="translate(15.81 -0.14)"/><path class="cls-6" d="M311.62,183.67a88.84,88.84,0,0,1,3.17,18.2c.33,4.69.24,7.61-.17,7.67s-1.12-2.77-2-7.34-2-10.83-3.95-17.46a58.8,58.8,0,0,0-7.49-15.56c-2.68-3.43-4.51-5.57-4.22-6s2.57,1.16,5.85,4.41A44.37,44.37,0,0,1,311.62,183.67Z" transform="translate(15.81 -0.14)"/><path class="cls-6" d="M181.07,161.57s.14-13.87-3.23-26.25c0,0,5.49,9.27,5.66,25.22A25.32,25.32,0,0,1,181.07,161.57Z" transform="translate(15.81 -0.14)"/><path class="cls-6" d="M196.06,153.45l-2.29-1.5s4.61-6.93,3.87-19.54A34,34,0,0,1,196.06,153.45Z" transform="translate(15.81 -0.14)"/><path class="cls-5" d="M102.79,243.28a12.81,12.81,0,0,1-1.9,3.76,14.68,14.68,0,0,1-7.07,5.21,16.78,16.78,0,0,1-16.75-3.37c-4.25-3.95-6.54-10.2-3.65-15.83a17.05,17.05,0,0,1,2.81-3.83c2.81,1.34,5.42,2.6,7.74,3.75,7.42,3.68,12,6.06,12,6.06C97.3,239.72,99.7,241.21,102.79,243.28Z" transform="translate(15.81 -0.14)"/><path class="cls-6" d="M102.79,243.28a12.81,12.81,0,0,1-1.9,3.76,14.68,14.68,0,0,1-7.07,5.21c-.07-.77-.11-1.53-.21-2.34a26.09,26.09,0,0,0-5.42-12.49A44.33,44.33,0,0,0,84,233c7.42,3.68,12,6.06,12,6.06C97.3,239.72,99.7,241.21,102.79,243.28Z" transform="translate(15.81 -0.14)"/><path class="cls-5" d="M139.7,241.29a12.31,12.31,0,0,1-.46,4.22c-5.21,4.17-9.43,10.65-12.77,17.09a1.34,1.34,0,0,0-.18.38c-5.24,5.75-10.94,11.58-18.68,11.58-12.42,0-14.49-15.68-10.17-25.3,2-4.48,5.63-8,8.55-11.73,4.65-5.86,12.32-15.4,20.58-12.68a15.38,15.38,0,0,1,2.86,1.3C134.63,229.1,139.24,235.12,139.7,241.29Z" transform="translate(15.81 -0.14)"/><path class="cls-6" d="M139.24,240.68c-.93,2.49-3,5.85-12.77,17.09a1.34,1.34,0,0,0-.18.38c-5.24,5.75-10.94,11.58-18.68,11.58s-11.41-6-12.1-12.88c-.81,8.59,2.63,17.71,12.1,17.71,7.74,0,13.44-5.83,18.68-11.58a1.34,1.34,0,0,1,.18-.38c3.34-6.44,7.56-12.92,12.77-17.09a12.31,12.31,0,0,0,.46-4.22,13.31,13.31,0,0,0-.26-1.64C139.38,240,139.33,240.34,139.24,240.68Z" transform="translate(15.81 -0.14)"/><path class="cls-5" d="M154.47,278.81c-6.15,5.86-14.35,14.11-23.25,9.54-7.85-4-8.55-17.93-4.93-25.37a1.34,1.34,0,0,1,.18-.38c3.34-6.44,7.56-12.92,12.77-17.09,5-4.07,11-5.95,18.08-3.34,3.94,1.46,6.13,4.49,7.57,8.82C168.65,262.41,161.69,272,154.47,278.81Z" transform="translate(15.81 -0.14)"/><path class="cls-6" d="M164.89,251c-.12-.37-.28-.66-.42-1,.19,8.79-5.55,16.22-11.45,21.81-6.16,5.86-14.36,14.1-23.26,9.54a12.13,12.13,0,0,1-5.52-6.63c.32,5.75,2.46,11.34,7,13.65,8.9,4.57,17.1-3.68,23.25-9.54C161.69,272,168.65,262.41,164.89,251Z" transform="translate(15.81 -0.14)"/><path class="cls-6" d="M279.13,253.9,276,257.31c-6.37-16.63-35-32.38-36.77-33.38,11.29,3.79,31.77,17.63,31.77,17.63C274.48,244.4,279.13,253.9,279.13,253.9Z" transform="translate(15.81 -0.14)"/><path class="cls-5" d="M178.47,297.55a13,13,0,0,1-1,2.15c-2.88,5.21-8,9.5-13.54,10.65a12.57,12.57,0,0,1-8.55-1.07c-9.15-4.71-10.66-18.47-5.45-26.94a30.35,30.35,0,0,1,2.67-3.68c5.1-6.13,13.65-12.34,19.38-6.75,4.54,4.41,4.62,10.66,2.82,16.56a39.31,39.31,0,0,1-1.94,4.9c.39.31.78.58,1.13.89.6.42,1.16.84,1.73,1.26C176.71,296.21,177.59,296.9,178.47,297.55Z" transform="translate(15.81 -0.14)"/><path class="cls-6" d="M175.73,295.52c-8.2,8.59-13,5.17-13,5.17,5.92-.46,10.17-7.32,10.17-7.32C173.86,294.14,174.81,294.83,175.73,295.52Z" transform="translate(15.81 -0.14)"/><path class="cls-6" d="M178.47,297.55a13,13,0,0,1-1,2.15c-2.88,5.21-8,9.5-13.54,10.65,4.32-4.67,3.66-9.31,3.66-9.31l6.4-6.78c.6.42,1.16.84,1.73,1.26C176.71,296.21,177.59,296.9,178.47,297.55Z" transform="translate(15.81 -0.14)"/></g></svg>