<svg id="Layer_1" data-name="Layer 1" xmlns="http://www.w3.org/2000/svg" viewBox="0 0 400.24 399.82"><defs><style>.cls-1{fill:#b9e2fe;}.cls-2{fill:#fff;}.cls-3{fill:#85bfed;}.cls-4{fill:#0079db;}.cls-5{fill:#0015ff;}.cls-6{fill:#111a56;}</style></defs><path class="cls-1" d="M400,366.4C400,385,386.17,400,369.09,400H30.68C13.6,400-.24,385-.24,366.4V33.78C-.24,15.22,13.6.18,30.68.18H369.09c17.08,0,30.91,15,30.91,33.6Z" transform="translate(0.24 -0.18)"/><path class="cls-2" d="M213.88,166.34V334.65c0,21.5-16.18,39.09-36,39.09H116.5c-19.78,0-36-17.59-36-39.09V166.34c0-18.32,11.74-33.77,27.42-38a33.23,33.23,0,0,1,8.54-1.11h61.42a33.9,33.9,0,0,1,9.48,1.38C202.63,133.19,213.88,148.4,213.88,166.34Z" transform="translate(0.24 -0.18)"/><path class="cls-3" d="M184.58,139.7a24.88,24.88,0,0,0-6.66-1H116.5a24.43,24.43,0,0,0-6,.77c-11.39,3.06-19.36,14.1-19.36,26.83V334.65c0,15.21,11.39,27.59,25.39,27.59h61.42c14,0,25.39-12.38,25.39-27.59V166.34C203.31,154,195.62,143,184.58,139.7Z" transform="translate(0.24 -0.18)"/><path class="cls-4" d="M203.31,242.94v91.71c0,15.21-11.39,27.59-25.39,27.59H116.5c-14,0-25.39-12.38-25.39-27.59V242.94Z" transform="translate(0.24 -0.18)"/><path class="cls-4" d="M187.4,119.78v8.85a33.9,33.9,0,0,0-9.48-1.38H116.5a33.23,33.23,0,0,0-8.54,1.11v-8.85a33.23,33.23,0,0,1,8.54-1.12h61.42A33.55,33.55,0,0,1,187.4,119.78Z" transform="translate(0.24 -0.18)"/><path class="cls-3" d="M187.4,101.88v17.9a33.55,33.55,0,0,0-9.48-1.39H116.5a33.23,33.23,0,0,0-8.54,1.12V101.57a103,103,0,0,1,14.92-2.87,203.09,203.09,0,0,1,24.33-1.42,194.1,194.1,0,0,1,24.29,1.46A98.5,98.5,0,0,1,187.4,101.88Z" transform="translate(0.24 -0.18)"/><path class="cls-5" d="M203.59,42.48V62.56L172.31,39.83H122.88c1.09-15.78,9.94-17.43,9.94-17.43h39.64Z" transform="translate(0.24 -0.18)"/><path class="cls-6" d="M171.5,89.88v8.86a194.1,194.1,0,0,0-24.29-1.46,203.09,203.09,0,0,0-24.33,1.42V89.84a203.21,203.21,0,0,1,24.33-1.41A194.21,194.21,0,0,1,171.5,89.88Z" transform="translate(0.24 -0.18)"/><path class="cls-4" d="M171.5,71.41V89.88a194.21,194.21,0,0,0-24.29-1.45,203.21,203.21,0,0,0-24.33,1.41V71.41Z" transform="translate(0.24 -0.18)"/><rect class="cls-3" x="140.25" y="39.65" width="14.39" height="31.58"/><rect class="cls-6" x="140.25" y="39.65" width="14.39" height="8.53"/><rect class="cls-6" x="144.76" y="242.76" width="6.31" height="59.63"/><rect class="cls-3" x="144.76" y="127.07" width="6.31" height="11.5"/><rect class="cls-4" x="144.76" y="138.56" width="6.31" height="104.2"/><path class="cls-2" d="M319.59,202.21V354.57c0,10.54-7.94,19.17-17.63,19.17h-44c-9.7,0-17.63-8.63-17.63-19.17V202.21c0-10.54,7.93-19.16,17.63-19.16h18.86V324h6.31v-141H302C311.65,183.05,319.59,191.67,319.59,202.21Z" transform="translate(0.24 -0.18)"/><path class="cls-3" d="M302,190.71H283.09V324h-6.31V190.71H257.92c-5.82,0-10.58,5.17-10.58,11.5V354.57c0,6.33,4.76,11.5,10.58,11.5h44c5.81,0,10.58-5.17,10.58-11.5V202.21C312.54,195.88,307.77,190.71,302,190.71Z" transform="translate(0.24 -0.18)"/><rect class="cls-3" x="258.51" y="153.63" width="43.33" height="29.24"/><rect class="cls-4" x="258.51" y="177.69" width="43.33" height="5.18"/><rect class="cls-4" x="265.88" y="105.57" width="28.59" height="48.06"/><rect class="cls-6" x="265.88" y="147.08" width="28.59" height="6.55"/><path class="cls-2" d="M287.52,132.93c0,4.55-3.39,8.24-7.58,8.24s-7.58-3.69-7.58-8.24,3.39-8.24,7.58-8.24S287.52,128.38,287.52,132.93Z" transform="translate(0.24 -0.18)"/><rect class="cls-3" x="277.02" y="182.87" width="6.31" height="7.66"/><rect class="cls-4" x="277.02" y="190.53" width="6.31" height="75.42"/><rect class="cls-6" x="277.02" y="265.95" width="6.31" height="57.91"/><path class="cls-4" d="M312.54,266.13v88.44c0,6.33-4.77,11.5-10.58,11.5h-44c-5.82,0-10.58-5.17-10.58-11.5V266.13h29.44V324h6.31v-57.9Z" transform="translate(0.24 -0.18)"/></svg>