<svg id="Layer_1" data-name="Layer 1" xmlns="http://www.w3.org/2000/svg" viewBox="0 0 399.24 398.21"><defs><style>.cls-1{fill:#b9e2fe;}.cls-2{fill:#111a56;}.cls-3{fill:#0079db;}.cls-4{fill:#fff;}</style></defs><path class="cls-1" d="M400,365.08c0,18.48-13.8,33.47-30.83,33.47H31.6c-17,0-30.84-15-30.84-33.47V33.8C.76,15.32,14.57.34,31.6.34H369.17c17,0,30.83,15,30.83,33.46Z" transform="translate(-0.76 -0.34)"/><path class="cls-2" d="M114.83,295.19l-1.23-3.58c7.16-2.91,14.79-13.55,20.92-22.12,2.48-3.46,4.83-6.73,7-9.28,6.1-7.29,9.58-14.19,12.93-22.32,12.71-30.81,17.8-62.69,16-100.33-.37-8-3-15.42-5.46-22.59-2.35-6.7-4.76-13.63-5.45-21.13-.3-3.3-.34-6.87-.39-10.66-.13-10.53-.27-22.46-6.61-29.4-3.5-3.85-8.76-5.74-14.81-5.26-7.82.59-15.77,4.91-19.8,10.76-2,3-4.38,5.9-6.66,8.75-5.93,7.41-12,15.08-13.8,24.25C96,100,96.3,108.67,96.62,117c.25,6.84.53,13.92-.17,20.69-1,10.1-1.74,26.4-21.36,36.89l-2.89-3.38C90.27,161.55,92,146.48,93,137.28a146.57,146.57,0,0,0,.15-20.12c-.32-8.57-.66-17.43.91-25.65,1.93-10.15,8.36-18.2,14.58-26,2.34-2.92,4.55-5.69,6.51-8.53,4.6-6.69,13.59-11.63,22.37-12.29,7.08-.54,13.31,1.73,17.55,6.38,7.34,8,7.49,20.79,7.62,32,.05,3.7.09,7.2.38,10.33.64,7,2.87,13.39,5.24,20.16,2.59,7.44,5.28,15.14,5.69,23.75,1.8,38.26-3.39,70.7-16.33,102.08-4.13,10-8.05,16.77-13.54,23.32-2,2.45-4.34,5.66-6.78,9.07C130.56,281.24,122.92,291.9,114.83,295.19Z" transform="translate(-0.76 -0.34)"/><path class="cls-2" d="M286.44,285.94c-35.05-21.55-62.74-57.27-72.26-93.23-4.55-17.17-2.72-30.69,5.95-43.84,7.12-10.79,7.92-19.85,8.85-30.33a157.69,157.69,0,0,1,2-16.13C234,87,252.16,70,269.22,66.9c10.92-2,19.74,2,24.85,11.23,6.68,12.11,6.14,28.13,5.61,43.62-.6,17.75-2.51,37.39,7.79,49.46l-3.28,4c-11.29-13.22-8.65-35.05-8-53.57.53-15.63,1-30.38-5.12-41.52-5.53-10-14.6-10.66-21.25-9.43-15.53,2.86-32.7,18.67-35.34,32.52a154.79,154.79,0,0,0-2,15.72c-1,11-1.82,20.56-9.49,32.2-8.08,12.26-9.71,24.4-5.43,40.56,9.27,35,36.33,69.89,70.62,91Z" transform="translate(-0.76 -0.34)"/><path class="cls-3" d="M72.2,171.21S73,278.81,59.6,314.37c0,0,131.08,120.38,277.28-9.11,0,0-22.68-49.24-29.41-134C307.47,171.21,157.9,231.39,72.2,171.21Z" transform="translate(-0.76 -0.34)"/><path class="cls-4" d="M76.08,308.68C93,321.39,137.28,350,194,350c43.49,0,85.72-16.63,125.66-49.45-6.56-17.74-18.35-55.25-24.36-108.92-24.8,8.18-73.25,21.6-124,21.6-32.74,0-61.27-5.64-85.18-16.78C85.59,227.36,83.55,278.2,76.08,308.68Z" transform="translate(-0.76 -0.34)"/><path class="cls-3" d="M192,237.92l4.92-.22c1.63-.16,3.23-.43,4.83-.63l9.45-1.23c6.16-1,12-2.62,17.66-3.75,5.54-1.61,10.75-3.42,15.69-4.91a56.6,56.6,0,0,0,7-2.66l6.4-2.66c8.34-3,14.53-6.86,19.17-8.79s7.31-2.95,7.64-2.36-1.75,2.6-5.85,5.75-10,7.9-18.3,11.88l-6.39,3.35a54.12,54.12,0,0,1-7.07,3.32c-5,1.91-10.37,4.09-16.1,6-5.85,1.45-12,3.31-18.39,4.51l-9.9,1.47c-1.67.22-3.36.5-5.06.69l-5.18.25-10.26.45-10-.45-4.85-.25-4.73-.6-9.13-1.25c-11.79-2.37-22.29-5.15-30.75-8.67-17.05-6.59-26.28-13.9-25.66-15,.65-1.29,10.62,3.58,27.6,8.24,8.42,2.55,18.66,4.5,30,6.29l8.78.86,4.52.46,4.64.11,9.5.29Z" transform="translate(-0.76 -0.34)"/><path class="cls-3" d="M192,269.73l4.92-.22c1.63-.17,3.23-.43,4.83-.63l9.45-1.24c6.16-1,12-2.62,17.66-3.75,5.54-1.6,10.75-3.41,15.69-4.9a56.62,56.62,0,0,0,7-2.67l6.4-2.66c8.34-3,14.53-6.86,19.17-8.78s7.31-2.95,7.64-2.36-1.75,2.59-5.85,5.75c-4.18,3-10,7.89-18.3,11.88l-6.39,3.35a54.12,54.12,0,0,1-7.07,3.32c-5,1.9-10.37,4.08-16.1,6-5.85,1.45-12,3.3-18.39,4.51l-9.9,1.46c-1.67.23-3.36.51-5.06.69l-5.18.25-10.26.46-10-.45-4.85-.25-4.73-.61-9.13-1.25c-11.79-2.37-22.29-5.14-30.75-8.66-17.05-6.59-26.28-13.9-25.66-15,.65-1.29,10.62,3.58,27.6,8.24,8.42,2.55,18.66,4.49,30,6.28l8.78.87,4.52.45,4.64.12,9.5.29Z" transform="translate(-0.76 -0.34)"/><path class="cls-3" d="M192,307.59l4.92-.22c1.63-.17,3.23-.43,4.83-.63l9.45-1.24c6.16-1,12-2.62,17.66-3.75,5.54-1.61,10.75-3.41,15.69-4.9a56.62,56.62,0,0,0,7-2.67l6.4-2.66c8.34-3,14.53-6.86,19.17-8.78s7.31-3,7.64-2.37-1.75,2.6-5.85,5.76-10,7.89-18.3,11.87l-6.39,3.36a54.12,54.12,0,0,1-7.07,3.32c-5,1.9-10.37,4.08-16.1,6-5.85,1.45-12,3.3-18.39,4.51l-9.9,1.46c-1.67.23-3.36.51-5.06.69l-5.18.25-10.26.45-10-.44-4.85-.25-4.73-.61-9.13-1.25c-11.79-2.37-22.29-5.14-30.75-8.66-17.05-6.59-26.28-13.9-25.66-15,.65-1.29,10.62,3.58,27.6,8.24,8.42,2.55,18.66,4.49,30,6.28l8.78.86,4.52.46,4.64.12,9.5.29Z" transform="translate(-0.76 -0.34)"/></svg>