<svg id="Layer_1" data-name="Layer 1" xmlns="http://www.w3.org/2000/svg" xmlns:xlink="http://www.w3.org/1999/xlink" viewBox="0 0 400 433.79"><defs><style>.cls-1{fill:none;}.cls-2{fill:#b9e2fe;}.cls-3{clip-path:url(#clip-path);}.cls-4{fill:#0079db;}.cls-5{fill:#fff;}.cls-6{fill:#0015ff;}</style><clipPath id="clip-path"><path class="cls-1" d="M400,366.38C400,385,386.17,400,369.11,400H30.89C13.83,400,0,385,0,366.38V33.61C0,15,13.83,0,30.89,0H369.11C386.17,0,400,15,400,33.61Z"/></clipPath></defs><path class="cls-2" d="M400,366.38C400,385,386.17,400,369.11,400H30.89C13.83,400,0,385,0,366.38V33.61C0,15,13.83,0,30.89,0H369.11C386.17,0,400,15,400,33.61Z"/><g class="cls-3"><path class="cls-4" d="M185.05,127c-11.69-5.64-14.45,7.8-14.45,7.8l-16.92,44.39a99,99,0,0,0-8.8-6.15l23.85-62.58c5-13.16-4.77-17.58-4.77-17.58-9.51-4.29-12.8,9.65-12.8,9.65L137,139.79,127.74,164c-2.21-1-4.54-1.94-7-2.88L147,92.16c5.92-16.42-2.57-18-2.57-18-12.17-4.39-14.88,9.81-14.88,9.81L104,155.65c-2.43-.66-4.92-1.3-7.53-1.89l.31-1.61,14.57-38.23C124.71,82.47,114,79.49,114,79.49c-12.6-6.79-21.3,24.91-21.3,24.91l-29.2,75.71C56,179.63,51,168.58,51,168.58c-6-22.53-23.94-24.75-23.94-24.75-25-1.73-9.73,20.22-9.73,20.22,17.3,21,25,48.36,25,48.36C32.94,239,42.86,254,42.86,254c15.22,20.64,9.62,29.46,9.62,29.46l-49.19,123L60,432.07l53.86-135.22c23.14-3.14,28.68-16.8,28.68-16.8l24.72-64.88c1.46-5.59.51-18.13.51-18.13l19.7-51.71C193,130.91,185.05,127,185.05,127Z"/><path class="cls-4" d="M215,127c11.69-5.64,14.45,7.8,14.45,7.8l16.92,44.39a100.18,100.18,0,0,1,8.79-6.15l-23.84-62.58c-5-13.16,4.77-17.58,4.77-17.58,9.51-4.29,12.8,9.65,12.8,9.65l14.2,37.3L272.26,164c2.21-1,4.54-1.94,7-2.88L253,92.16c-5.92-16.42,2.57-18,2.57-18,12.17-4.39,14.88,9.81,14.88,9.81L296,155.65c2.43-.66,4.92-1.3,7.53-1.89l-.31-1.61-14.57-38.23C275.29,82.47,286,79.49,286,79.49c12.61-6.79,21.31,24.91,21.31,24.91l29.2,75.71c7.57-.48,12.52-11.53,12.52-11.53,6-22.53,23.94-24.75,23.94-24.75,25-1.73,9.73,20.22,9.73,20.22-17.3,21-25,48.36-25,48.36,9.38,26.57-.54,41.58-.54,41.58-15.22,20.64-9.62,29.46-9.62,29.46l49.93,124.73L340.7,433.79,286.11,296.85c-23.14-3.14-28.68-16.8-28.68-16.8l-24.72-64.88c-1.46-5.59-.51-18.13-.51-18.13l-19.7-51.71C207,130.91,215,127,215,127Z"/><path class="cls-5" d="M298.35,191.59S307.27,168.72,285,166c0,0-3.18-37.42-31.21-23.57,0,0-19.12-25.64-46.5,2.08,0,0-7.18-46.18-40.77-34,0,0-28,6.24-18.48,52,0,0-42.46,4.16-19.64,54.06,0,0-36.63,6.94-11.36,40.9,0,0-23.14,47.13,26.55,53.36,0,0,20.38,61,62.42,5.55,0,0,46.5,31.88,56.7-29.8,0,0,52.87,13.16,38.21-47.13C300.89,239.42,329.78,211.21,298.35,191.59Z"/><path class="cls-6" d="M280.55,229.62c0,21.11-15.73,38.23-35.14,38.23H175.72c-19.41,0-35.14-17.12-35.14-38.23V211.77c0-21.11,15.73-38.23,35.14-38.23h69.69c19.41,0,35.14,17.12,35.14,38.23Z"/><ellipse class="cls-5" cx="200.02" cy="371.93" rx="15.5" ry="16.87"/><ellipse class="cls-5" cx="50.07" cy="108.44" rx="12.33" ry="13.42"/><ellipse class="cls-5" cx="331.09" cy="101.9" rx="9.69" ry="10.54"/><ellipse class="cls-5" cx="205.64" cy="42.01" rx="16.21" ry="17.63"/><ellipse class="cls-5" cx="363.24" cy="39.23" rx="13.65" ry="14.86"/><ellipse class="cls-5" cx="292.33" cy="377.72" rx="7.93" ry="8.63"/><ellipse class="cls-5" cx="280.55" cy="33" rx="7.93" ry="8.63"/><ellipse class="cls-5" cx="124.46" cy="355.06" rx="7.93" ry="8.63"/><ellipse class="cls-5" cx="24.96" cy="287.48" rx="5.73" ry="6.23"/><ellipse class="cls-5" cx="87.95" cy="46.53" rx="8.41" ry="9.15"/><path class="cls-5" d="M172.59,197.82c4.94,0,7.57,2.86,7.57,8.24v6.06c0,.57-.27.91-.84.91h-5.47a.8.8,0,0,1-.84-.91v-4.46c0-1.49-.69-2.29-2.1-2.29h-2.53a2,2,0,0,0-2.1,2.29v7.89L178.79,220a2.1,2.1,0,0,1,1.37,2.12v13.21c0,5.37-2.63,8.23-7.57,8.23H166.7c-4.89,0-7.57-2.86-7.57-8.23v-6c0-.63.32-.91.84-.91h5.47c.58,0,.84.28.84.91v4.4c0,1.55.79,2.29,2.1,2.29h2.53c1.36,0,2.1-.74,2.1-2.29v-7.6l-12.46-4.46a2,2,0,0,1-1.42-2.12V206.06c0-5.38,2.68-8.24,7.57-8.24Z"/><path class="cls-5" d="M185.43,206.06c0-5.38,2.63-8.24,7.57-8.24h5.88c4.94,0,7.57,2.86,7.57,8.24v29.28c0,5.37-2.63,8.23-7.57,8.23H193c-4.94,0-7.57-2.86-7.57-8.23Zm12.14,30.13c1.37,0,2.1-.74,2.1-2.28V207.49c0-1.49-.73-2.29-2.1-2.29h-3c-1.37,0-2.1.8-2.1,2.29v26.42c0,1.54.73,2.28,2.1,2.28Z"/><path class="cls-5" d="M229.91,243.57c-.48,0-.74-.28-.84-.8l-1.47-8.35h-9.36l-1.42,8.35c-.1.52-.37.8-.84.8h-5.62c-.58,0-.85-.34-.69-1l8.72-44a.85.85,0,0,1,.9-.8h7.31a.84.84,0,0,1,.89.8l8.72,44c.11.63-.1,1-.73,1Zm-7-35.74-3.37,20h6.73Z"/><path class="cls-5" d="M241,198.74a.81.81,0,0,1,.84-.92h12.62c4.94,0,7.56,2.86,7.56,8.24V220c0,5.32-2.62,8.23-7.56,8.23h-6.31v14.42c0,.57-.27.91-.84.91H241.8a.81.81,0,0,1-.84-.91Zm11.77,22c1.42,0,2.11-.86,2.11-2.29V207.66c0-1.49-.69-2.29-2.11-2.29h-4.62V220.7Z"/></g></svg>